<svg id="Layer_1" data-name="Layer 1" xmlns="http://www.w3.org/2000/svg" viewBox="0 0 1080 1080"><path d="M135.29,512.24c-10.86,0-21-.07-31,.11-1,0-2.42,1.38-2.84,2.44a16.3,16.3,0,0,0-1.09,5.83c0,4.29-2.31,6-6.24,6.62-5.15.87-10.26,2-15.35,3.21-5.36,1.24-11.25,1.29-14.94,6.53A4.82,4.82,0,0,1,61,538.42c-6.86,1.4-13.74,2.7-20.35,4-.58-.63-1-.85-1-1.15-2.82-11.67-2.84-11.87,8.81-13.64,6.17-.94,12.34-4.1,18.8.22,1.71,1.15,5.24-.24,7.89-.72,4.26-.79,8.47-1.84,12.72-2.69,9.23-1.86,8.8.27,9.24-12H85.41v-48A96.61,96.61,0,0,1,76.35,468c-1.54.44-4.44.65-4.81-.05-3.09-5.84-5.73-11.91-9.27-19.57,4.59.93,7.76,1.54,10.92,2.23,3,.64,5.87,1.57,8.86,1.92,1,.12,2.15-1.15,3.24-1.79-.82-1-1.44-2.31-2.47-3-5.29-3.63-11.52-6.31-15.89-10.8C52,421.6,53.55,397.66,69.62,383.85c16.51-14.19,40.6-12.13,54.14,4.42a9.87,9.87,0,0,0,6.27,3.41c1.1.07,2.94-3,3.56-5,6.76-21.12,25.71-34.26,47.48-32.73,20.6,1.45,38.06,17.62,41.3,38.95,2.23,14.71-2.56,27.43-12.81,38.13-.69.73-1.3,1.54-2.4,2.85l8.51.87v77.14H158.09c.9,2.6,1.41,4.42,2.15,6.14,24.07,56.66,48,113.37,72.35,169.93,4.27,9.93,9.83,19.31,14.9,28.88.71,1.33,2,3.15,3.21,3.31,11.41,1.47,22.85,2.67,34.3,3.87,3.62.38,4.91-1.34,5.18-5,1.62-22.5,3.75-45,5.19-67.46.65-10.22-2.71-13.81-12.63-16.15a5.18,5.18,0,0,1-3.25-2.28c8,0,16-.2,23.94.19,1.31.07,2.78,2.54,3.67,4.17,12.1,22.19,24.09,44.43,36.15,66.64a26.88,26.88,0,0,0,2.61,3.26,37,37,0,0,0,2.66-3.76c11.64-22.43,23.2-44.9,34.93-67.28.75-1.44,2.74-3.08,4.22-3.14,7.35-.32,14.72-.15,22.08-.15l.22,1.49c-3.14.43-6.26,1.05-9.41,1.25-3.59.23-5.59,1.33-5.35,5.5,1.07,18.93,1.83,37.88,2.93,56.81.37,6.47,1.67,12.88,2,19.35.28,5.52,3.36,6.92,8.06,6.95a6.17,6.17,0,0,1,3.84,1.27H372.21l-.1-1c2.83-.27,5.79-.16,8.46-1,1.54-.47,3.79-2.49,3.74-3.73-1-20.92-2.3-41.83-3.56-62.74,0-.28-.42-.53-1.31-1.57l-37.12,70h-3c-12.52-23.39-24.77-46.25-37-69.1l-1.58.31c-1,13.57-2.16,27.14-3.08,40.72-.46,6.67-.37,13.38-.86,20-.33,4.58,1.22,6.79,6,6.53a7.68,7.68,0,0,1,4.63,1.29H165.11l-.1-.7,42.38-5.12a198.67,198.67,0,0,0-13-44.74c-2.55-6.14-4.49-13.94-9.29-17.31-4.3-3-12.14-1.15-18.43-1.16-23.88-.07-47.76,0-71.64-.07-2.86,0-5.24.11-6.37,3.46C82.41,678.26,76,696.66,69.76,715.09a32.6,32.6,0,0,0-.77,4.6l41.73,5.09v.59H16.88c10.2-1.65,19.65-3.33,29.15-4.64,3.6-.5,5.94-1.94,7.36-5.3,10.85-25.58,22.15-51,32.55-76.72,16.17-40,31.74-80.21,47.53-120.35C134.17,516.59,134.57,514.71,135.29,512.24Zm1.83,33.19-2-.22L94.16,645c13.14,3.51,75.14,3.46,86.79,0A860.42,860.42,0,0,0,137.12,545.43Zm90.61,174.4c-27.82-66.9-55.51-133.45-83.67-201.15-1.86,6-5.63,9.94-3.13,15.89q37.62,89.58,74.78,179.34C218.08,719.64,220.94,722.05,227.73,719.83Zm-28.55-321.6a22.66,22.66,0,0,0-22.65-22.75c-12.08,0-22.39,10.25-22.57,22.41a22.89,22.89,0,0,0,23,22.95A22.56,22.56,0,0,0,199.18,398.23ZM94.9,428.55c9.79-.11,18.13-8.81,17.91-18.68A18.42,18.42,0,0,0,94.68,392a18.29,18.29,0,1,0,.22,36.57ZM294,636l45.29,83.46,1.52-.4c-.15-1.53.08-3.23-.53-4.55C327.71,687.36,299,637.54,294,636Zm92.82,7.17-1.6-.23c-.57,2.46-1.78,5-1.62,7.37,1.59,23.41,3.38,46.81,5.23,70.21.1,1.17,1.35,2.26,2.06,3.39l1.59-.72Q389.61,683.22,386.78,643.21ZM146.83,434c-3-3.75-5.27-6.94-8-9.72a6.11,6.11,0,0,0-4.53-1.5c-6.44.83-5.49,7.12-9.21,11.22Zm56.11,61.29c-1.61,2.82-3.35,4.5-3.09,5.77s2.45,2.3,3.8,3.43c1-1.25,2.93-2.52,2.89-3.74C206.5,499.27,204.79,497.88,202.94,495.24Z"/><path d="M548.41,725.74H511.69l-.18-.85c1.54-.24,3.12-.81,4.63-.66,5.28.5,6.52-2.39,6.35-6.87-.4-10.66-.52-21.33-1.13-32-.51-8.64-1.55-17.25-2.41-25.87a27.11,27.11,0,0,0-1.05-3.76,26.83,26.83,0,0,0-2.61,3.31q-16.2,30.34-32.33,60.72c-1.45,2.72-.91,7.59-5.79,6l-37.12-69.2-1.23.27c-.67,6.33-1.55,12.65-2,19-.9,13.72-1.35,27.46-2.43,41.16-.45,5.64,1.82,7.47,6.95,7.22a11.27,11.27,0,0,1,6.33,1.14H416.54c.13-.19.28-.7.5-.73,9.95-1.53,10.53-1.47,11.47-11.42,2-21,3.47-42.09,4.77-63.17.5-8.15-3.91-12.82-12.14-14.54a7.21,7.21,0,0,1-4.28-2.4c8.17,0,16.36-.15,24.52.18,1.13,0,2.39,2.37,3.19,3.85,11.38,21.15,22.67,42.34,34,63.49,1.17,2.18,2.76,4.13,4.69,7a56.57,56.57,0,0,0,3.56-5.26c11.4-21.95,22.7-44,34.21-65.85.81-1.55,3-3.28,4.62-3.36,7.35-.36,14.72-.16,22.09-.16.08.48.15,1,.23,1.42-3.14.46-6.29,1.35-9.42,1.28-4.93-.11-6.29,2.31-6.06,6.67.81,15,1.4,30,2.37,44.93.62,9.55,1.82,19.06,2.67,28.6.46,5.14,1.79,9.24,8.27,8.45a4.27,4.27,0,0,1,1.58.31C547.55,724.72,547.64,724.91,548.41,725.74Zm-71.5-6.21,1.41-.33c-.1-1.54.29-3.35-.38-4.59Q457.53,676.72,436.82,639c-.73-1.31-2.45-2.08-3.71-3.09l-.95,1.1Zm51,4.58,2.22-1q-2.89-39.9-5.78-79.82l-1.71-.16c-.47,2.64-1.46,5.29-1.33,7.9.46,9.36,1.34,18.71,2,28.06.92,13.5,1.73,27,2.74,40.49C526.19,721.15,527.3,722.62,528,724.11Z"/><path d="M258.92,429.28v62.83c-13-6.88-23.73-18.34-40-12.85v-36.8C234.74,447.13,246,437.5,258.92,429.28Z"/><path d="M656.32,725.64H614.61l-.09-.94,15.41-1.42c-3.24-8.58-6.1-16.44-9.26-24.17-.35-.87-2.4-1.45-3.67-1.47-11-.12-22.06-.16-33.1,0-1.34,0-3.49.87-3.88,1.87-3,7.66-5.68,15.46-8.72,24l15.86,1.19,0,.8H553.9c.15-.21.36-.75.53-.73,8.33.83,12-4,14.72-11.08,9.91-25.57,20.12-51,30.42-76.45.78-1.94,3.07-3.27,4.66-4.89,1.46,1.54,3.51,2.83,4.31,4.67,11.56,26.45,23.07,52.94,34.32,79.54,2.34,5.53,5.55,8.6,11.73,8a5.14,5.14,0,0,1,1.84.57C656.4,725.23,656.36,725.44,656.32,725.64ZM600.7,652.11l-1.73,0-16.63,40.43h36.25C612.33,678.39,606.51,665.25,600.7,652.11Zm2.77-10.43-1.74.43c.11,1.83-.25,3.86.41,5.46q15.17,36.7,30.63,73.28c.58,1.36,2.19,2.29,3.32,3.41l1.4-1.13Z"/><path d="M682.05,633.39h43.19l.18.67a15.46,15.46,0,0,1-2.62,1.06c-8.84,1.88-9.47,1.84-9.87,10.69-.74,16.24-.34,32.54-1.08,48.78-.29,6.36-1.35,13.07-3.85,18.85-3.46,8-10,12.85-19.58,12.55-8.45-.27-16.92-.06-25.46-.06-.75-7.45-1.45-14.42-2.16-21.4l1.27-.31c1.36,3.19,3.16,6.27,4,9.59,1.84,7.48,7.49,9.32,13.87,9.6,7,.31,13-2.37,15.92-9a31.64,31.64,0,0,0,2.81-12.54c-.17-20.24-.91-40.47-1.25-60.71-.07-3.77-1.57-5.09-5.12-5.29s-6.9-.84-10.34-1.3C682,634.15,682,633.77,682.05,633.39Zm8.81,89.55L692,724a41.45,41.45,0,0,0,4.19-2.82c7.07-6.09,8.56-14.34,8.6-23,.08-19,0-37.91,0-56.87a11.18,11.18,0,0,0-.14-3.23c-.2-.67-1.11-1.58-1.68-1.56s-1.49,1-1.62,1.64a22.87,22.87,0,0,0-.16,4.31c0,18.42,0,36.83,0,55.25C701.29,707.52,700.27,716.86,690.86,722.94Z"/><path d="M775.53,725.65H728.59l-.06-.9c3.86-.27,7.81-.15,11.55-1,1.68-.38,4.17-2.66,4.18-4.11q.5-39.76.21-79.55c0-1.42-2.54-3.44-4.3-4.09-2.65-1-5.66-1-8.51-1.45-.31-.05-.57-.38-1.59-1.12h44.46c.08.26.17.52.25.77-2.75.52-5.52,1.53-8.25,1.44-4.28-.13-5.78,1.9-6,5.73-.38,8.11-1.15,16.23-1.14,24.34,0,15.89.44,31.79.81,47.68.25,10.58.35,10.57,10.87,11,1.54.06,3.07.26,4.6.39Zm-27.37-45.86c0,13.2-.06,26.4.08,39.59,0,1.44,1.19,2.87,1.83,4.3.82-1.43,2.36-2.86,2.37-4.29q.22-39.32,0-78.63c0-1.56-1.36-3.12-2.09-4.68-.73,1.56-2.09,3.11-2.11,4.67C748.08,653.76,748.16,666.78,748.16,679.79Z"/><path d="M816.45,710.27c.61,9.13.43,9.38-7.36,9.43-6.69,0-13.37-.07-20.06-.06-3.56,0-5.24-1.46-5.09-5.26.22-5.41.21-10.84,0-16.26-.12-3.2,1.13-4.82,4.26-4.84,8.31,0,16.63-.17,24.93,0,4,.11,4.3,1.23,3.13,8.51h-8.43c-1.65-4.27-7.35-6.8-11.55-4.8a3.92,3.92,0,0,0-1.63,2.93c-.17,5-.08,10.07-.08,15.51h11.82C806.57,707.38,812.36,711.54,816.45,710.27Z"/><path d="M883.43,713.22c1.12,4.72-.5,6.36-3.91,6.39q-9.49.09-19,0c-3.24,0-4.78-1.59-5-5-.67-12.12-.48-12.41,11.83-12.4,3.79,0,7.59,0,11.39,0,3.53,0,5.19,1.33,5.24,5.15s-2,4.51-5.11,4.47c-3.43,0-6.88-.17-10.3.11-1,.09-1.93,1.42-2.9,2.17,1,.75,2,2.15,3,2.1,2-.08,3.86-1.06,5.83-1.46C877.4,714.12,880.31,713.73,883.43,713.22Z"/><path d="M980.39,719.71h-4.34c-10.51,0-10.51,0-10.45-10.36,0-6.52.63-7.14,7.15-7.17,5.61,0,11.22.05,16.82,0,3.58,0,5.16,1.45,5.33,5.16C995.47,719.72,995.57,719.72,980.39,719.71Zm-4.1-4.38c9.24.53,9.67,0,7.49-8.65h-7.49Z"/><path d="M918.52,719.53c-8.62,0-16.55.46-24.4-.14-6.39-.49-2.51-5.72-4.17-9.7h20c-2.58-5.36-6.27-3.36-9.22-3.47-3.2-.12-6.41,0-9.62,0-.11-.7-.23-1.4-.35-2.1,1.77-.64,3.53-1.75,5.32-1.83,5.77-.23,11.55-.06,17.33-.08,3.53,0,5.34,1.42,5.13,5.22S918.52,714.93,918.52,719.53Zm-14.17-8.59-4.09,3c1.33.72,2.69,2.08,4,2,1.53-.08,3-1.39,4.48-2.17Z"/><path d="M1029.8,719.37h-10V707c-8.45-2-8.73-1.84-8.73,6.13v6.19h-10.38c0-4.93-.21-9.59.16-14.21.09-1.07,2.16-2.77,3.37-2.82,7-.27,14-.37,21,.06,1.61.09,4.19,2.34,4.41,3.87C1030.21,710.42,1029.8,714.76,1029.8,719.37Z"/><path d="M1053.35,714.18c-4.3-1-8.59-2.09-12.91-3-3-.62-5.66-2-4.52-5.23.58-1.67,3.4-3.43,5.34-3.6a101.7,101.7,0,0,1,16.74,0c1.74.13,3.33,2.16,5,3.33-1.77.86-3.48,2.07-5.35,2.46-1.18.24-2.59-.88-4-1.16-2.52-.51-5.08-.86-7.62-1.28-.12.7-.24,1.41-.37,2.11,4.27,1,8.5,2.07,12.8,2.84,3.13.57,4.81,1.79,4.61,5.31-.21,3.84-2.9,3.67-5.36,3.7-6,.08-11.91.15-17.84-.26-1.44-.1-2.76-2-4.13-3.12,1.47-.82,2.91-2.21,4.43-2.31,1.77-.12,3.58,1,5.43,1.38,2.43.46,4.9.68,7.36,1Z"/><path d="M834.05,704.6v14.82H823.58c0-4.92-.26-9.71.19-14.43.1-1.06,2.6-2.62,4.05-2.69a139.22,139.22,0,0,1,17.69,0c2,.15,4.09,1.9,5.59,3.45.49.51-.78,3.93-1.27,3.94a29,29,0,0,1-8.56-1.07C839.06,708,837.14,706.39,834.05,704.6Z"/><path d="M937.65,707.43V715l6.67,2.28c-.16.7-.31,1.39-.46,2.08-4.54,0-9.1.24-13.61-.18-1-.1-2.49-2.33-2.71-3.74a54.59,54.59,0,0,1-.12-8.25l-4.67-2.66a36.82,36.82,0,0,0,3.79-2.73c1.61-1.49,2.78-4.05,4.61-4.6,3.23-1,6.69-.59,6.49,3.73l5.87,3.19Z"/><path d="M949.06,719.2c0-4.17.18-7.77,0-11.35-.24-3.84.41-5.86,5.16-5.85s5.38,2.1,5.15,5.91c-.21,3.59,0,7.19,0,11.29Z"/><path d="M954.18,701.43l-5.13-3.49c1.77-.7,3.56-2,5.3-1.92s3.28,1.52,4.92,2.36Z"/><path d="M180,386.07c-2.69,1.62-4.31,3.38-5.6,3.17s-2.55-2.29-3.81-3.55c1.45-1.23,2.77-3.17,4.38-3.45C176,382.05,177.54,384.14,180,386.07Z"/><path d="M176.24,408.31c-2.59,1.66-4.2,3.51-5.52,3.32s-3.35-2.44-3.29-3.71,2.26-3.35,3.59-3.42S173.81,406.43,176.24,408.31Z"/><path d="M189.87,405.84c-2.38,1.76-4.08,3.87-5.11,3.58-1.6-.45-2.75-2.53-4.08-3.91,1.35-1.19,2.63-3.2,4.06-3.32S187.51,404.06,189.87,405.84Z"/><path d="M165.81,401.14c-1.83-2.54-3.74-4-3.63-5.36s2.15-2.64,3.35-3.95c1.3,1.22,3.46,2.32,3.64,3.69S167.51,398.47,165.81,401.14Z"/><path d="M191.27,392.65c-2.23,1.82-3.87,4.07-5,3.83-1.54-.34-3.26-2.36-3.71-4-.22-.78,2.25-3.21,3.58-3.27S189,391,191.27,392.65Z"/><path d="M105.41,416.27c-2,1.5-3.23,3.06-4.35,3s-2.11-1.75-3.17-2.72c1-1,1.9-2.78,3-2.91S103.31,415,105.41,416.27Z"/><path d="M85.44,403.66c1.4,2,2.86,3.17,2.84,4.32s-1.63,2.09-2.54,3.13c-1-.94-2.77-1.82-2.86-2.85S84.16,405.8,85.44,403.66Z"/><path d="M92.57,395.73c1.51,2,3.11,3.21,3,4.3s-1.76,2.18-2.75,3.26c-1.09-1-2.89-1.9-3.07-3.05S91.19,397.83,92.57,395.73Z"/><path d="M94.33,418.08c-2.16,1.47-3.42,3-4.52,2.88s-2.44-1.75-2.77-3c-.17-.61,1.68-2.5,2.61-2.5C90.88,415.48,92.12,416.77,94.33,418.08Z"/></svg>