<svg id="Layer_1" data-name="Layer 1" xmlns="http://www.w3.org/2000/svg" viewBox="0 0 1080 1080"><defs><style>.cls-1{fill:#e41e29;}</style></defs><path class="cls-1" d="M455.86,628.44c-27-17.39-63.63-20.44-122.71-4.05-63,14.81-84,24.29-111.57,5.25C211,620.28,207.19,605.22,210,583.52c6.58-35.38,24.36-69.42,55.94-107.18,17.62-19.65,34-36.5,55.56-43.27,16.55-4.25,15,8.76,13,10.62a16,16,0,0,0-8.4,2.12c-2.23,1.72-8.34,7.3-8.67,14.8-.47,11.48,11.41,9.09,16.53,2.79,5.53-7.11,13.69-20.71,7.27-33.39a18.86,18.86,0,0,0-13.12-8.69C308.37,420.19,290,429.62,273,440c-37.17,25.81-66.89,61.58-83.71,100.74-9.7,23.62-18.47,57.47-5.33,85,10.17,19.11,31.29,29.26,56.48,27.14,17.66-1.86,39-7.57,53.4-11s87.92-28.74,112.08,15.26A32.64,32.64,0,0,1,434,641.25c16.51-1.52,40.33,4.78,57.68,17.52C485.91,650.08,469.52,637.27,455.86,628.44Z"/><path class="cls-1" d="M340.65,480.78c-13.76-9-41.41,8.23-63.55,37.83-20.25,26.55-29,57.4-19.48,71.67,14.15,16.79,40.43-7.63,51.61-20.7l1.44-1.53c7.6-8.16,13.47-18,19.16-27.41,0,0,5.22-8.63,5.47-9,3.23-.59,7.12-1.52,11.5-2.78-.07.2-16.77,28.27-15.06,42.2.53,4.25.12,19.78,15.28,24.49,20.21,3.39,36.35-12.27,50.58-26.21l3.8-3.64c-.35,1.38-.8,3.24-.8,3.24-5.92,20.57,2.06,24.89,7,26.48,15.07,4.39,33.08-17.52,33.14-17.52-.47,6.9-1.83,12.61,5.44,17.19,6.86,2.46,13.81-1.29,19.09-4.81,19-13.4,34.35-34.38,46.72-52.52h-7.89c-.1,0-19.48,28.1-32.07,34.21,0,0-2.31,1.17-3.63.24-1.64-1.39-1-4.29,0-6.34.06-.13,48.61-84.33,48.61-84.33H494.16s-2.51,4.05-2.71,4.32c-.16-.14-.52-.83-.78-1.17-14.2-19.64-46.36,10.57-70.57,45.61-9.32,13.48-21.19,28.65-33.49,39.6,0,0-18.23,16.71-26,4.7-2.85-5-2-12.42-.37-17.26,9.07-25.82,24.7-49.25,42.48-63.38,5-3.92,10.48-5.05,13.19-3.39s3,5.31,1.36,7.9a12.79,12.79,0,0,0-10.16,3.91c-5.31,5.58-7.16,10.95-5.47,16,8.21,11.68,24.58-11.42,23.79-25.49-.28-5-3-9.82-7-12.14-6-3.59-15.12-2.66-21,.2-7.91,3-20.43,13.4-27.74,21.5-9.21,10.15-25,21.44-29.92,20.17,1.61-4.31,14.94-31.59.92-41.81Zm110.5,40.35c4.46-6.17,17.44-22.69,20.6-25.48,10.64-9.36,14.89-5.24,15.26-2.32-9.93,17.78-21.65,38.16-32.67,56.47,0-.06-3.45,5.25-3.45,5.25-4.86,7.43-9.76,13.8-17.76,18.24a5.14,5.14,0,0,1-4.27-.46,4.54,4.54,0,0,1-1.93-4.38c.48-5.71,6.29-23.16,24.22-47.32ZM326.46,531.82s-.2.6-.3.79c0,0-10,16.26-10,16.26-6,8-13.53,18.12-22.92,23-2.78.93-6.63,1.53-8.59-.92-4.15-5-2-11.88-.27-17.46l.61-2c5-13.53,12.91-25.48,20.62-36.57a1.06,1.06,0,0,1,.39-.13c0,.07,0,.07.06.2,4.83,9.29,13.9,13.6,20.68,15.6,0,0,.08.06.08.2a3.18,3.18,0,0,1-.37,1.06Zm9.44-19.18c0,.13-4.44,10.22-4.44,10.22-.63.53-1.64.27-2.79,0l-2-.33c-6.2-1.93-10.87-6-12.31-10.95-2-9.56,6.18-17.06,9.77-19.78,3.45-2.39,8.82-3.65,11.93-1.19a12.46,12.46,0,0,1,2.65,8.36C338.75,503.28,337.41,508.13,335.9,512.64Zm289.77,30.79a13.49,13.49,0,0,0-13-7.5c-18.16,1.66-35.92,16.59-45.24,38-4.9,11-7.57,20.11-9.32,34.57,5.65-6.5,17.16-17.18,30.23-23a63,63,0,0,1,10.85-26.22c3.43-5.11,10.3-13.34,18-11.15,6.73,2.26,4.37,20.91-4.59,39a124.87,124.87,0,0,1-27,35.71c-9.07,7.7-22.49,17-34.23,9.82-7.39-4.37-11.16-13.53-10.36-25.35,3.53-33.51,18.78-62,40.62-94.57,22.51-30.19,47.32-61.18,80.75-77.71,6.82-3.45,13.13-4.25,18.59-2.12,0,0-31.38,17.25-46.34,49.17-3.8,8.1-9.1,19-3.77,28.74,2.79,5,7.73,5.44,11.71,5.17,18.34-4.24,30.18-21.36,39.86-37C688,467.05,693,455.23,693,442.09c0-1.59-.08-3.71-.21-5.31,8.75-4.64,26.72,3.59,26.72,3.59,14,4.64,43.92,27.54,54,31.92,4.92-5.71,13-14.33,17.55-18.65l-6.58-4.05c-10.55-6.44-21.7-12.54-32.67-18.58-24.92-13.6-45.2-8.83-55.52-5.11-4.06,1.46-7.77,2.72-7.77,2.72-7.66-8.36-20.22-7.57-29.48-5.31-33.29,9.56-64.2,32.85-97.34,73.27-24.37,31.65-39.48,59-47.54,86-6.2,18.18-8.09,44.92,7.06,60.79,12.89,13.47,30,10.55,42,5.71,26.14-12.88,49.63-40.62,61.34-72.54,2.83-9.49,6-22.9,1.1-33.12Zm60.11-100c-3.46,39.69-34.31,63-41.95,64.84-4.62.93-12.52-1.13-5.47-17.79,10.38-22.43,28.09-41.47,47.1-51.23a10.31,10.31,0,0,1,.32,4.18Zm183,5c-16.6,9.43-33.8,15.53-54.62,13.41-5.77,6.5-11.39,13.21-16.57,20.11,29.23,7.43,60.21-9.09,77.49-24.82a121.89,121.89,0,0,0,27.65-35.84A145.25,145.25,0,0,1,868.77,448.46Zm-313.6,33.05H533.4l-12.28,19.95h21.77Z"/><path class="cls-1" d="M814.06,630.29c-2.34,1.59-5.63.37-4.4-3.28,3.07-9.29,15.24-28.23,15.24-28.23l33.91-60.14H835.58c-1.1,1.81-3.46,6-3.46,6-1.08-1.79-4.29-5.77-5.61-6.63-5.68-3.59-14-1.89-19.75,1.36-25,14.6-43.19,43.45-57.56,65.95,0,0-15.13,25-23.52,26.87-6.56.53-5.88-8.3-5.6-10.36,2.54-14.87,8.42-29,14.35-41.81a320.55,320.55,0,0,0,38.34-31.32c27.15-25.95,50-55.35,53.38-61.92a52.89,52.89,0,0,1-7.9.86c-20.88,29.13-63.62,71.48-76.58,77.78,5.74-13.81,42.83-79.71,74.39-111.23l5-4.78c7.68-7.5,15.64-15.2,21.84-16.46.65-.06,1.5,0,2.23,1.53.27,5.84-1.9,10.16-4.4,15.07l-3.49,7.16a81.82,81.82,0,0,0,8.2-2c3.77-7.1,8-15.06,6.41-24.55a7,7,0,0,0-5.61-5.91c-9.42-1.79-19.68,5.18-27.93,10.82l-.33.2c-42.44,33.25-78.28,81.16-109.61,146.6-2.27,1.72-11.05,3.78-12.54,2.78,3.1-6.37,7-14.93,8.94-24.22a64.05,64.05,0,0,0,.65-8c0-5.71-1.37-11.09-6.49-14.8-6-3-13.41-1.59-18.41.66-22.4,9.29-39.13,32.26-51.21,51.17-6.5,12-13,24.88-14.77,39.62-1.26,11.54,1.31,19,7.87,22.69,6.75,3.45,15.25-.13,18.59-1.85,22.69-12,38.54-35.91,51-57.81a72.51,72.51,0,0,0,12.48-1.59.32.32,0,0,1,.21.07c-.3,1-3,9-3,9-7.92,23.22-11.59,39-4.11,48.37,10.7,13.21,28.39-.46,42.79-18.51-3.09,21.63,8.12,25,16.67,23.36,9.82-2.65,20.76-13.14,25.84-18.51-1.63,6.3-1.19,17.58,7.74,18.71,6.12,1.13,10.7-2.2,16-5,19-10.36,41.78-44.86,47.69-54.83H846.6c-8.4,12.69-19.09,29.34-32.54,37.24ZM643.38,628a10.49,10.49,0,0,1-1.64-5.87c-.23-13,13.77-36.32,23.65-49h0c4.14,9.07,13.52,14.9,19.18,17.35-7,15.67-31.14,49.21-41.21,37.53Zm45.18-44.53c-.67.47-12.49-3.52-14.78-14.47-1.94-9.42,4.55-16.79,10.83-20.5a10.85,10.85,0,0,1,9.74-1.8c2.76,1.86,3.51,5.18,3.51,8.76a52.57,52.57,0,0,1-.55,6.51l0,.46a88.56,88.56,0,0,1-8.7,21Zm94.85,40.35-2.24,2c-3.19,2.85-6.48,5.91-10.44,4.38a4,4,0,0,1-2.05-3c-.18-8.16,3.5-15.73,7.06-23.09l.91-1.93c10.26-17.12,22.18-37.29,39.68-51.29,2.95-2.13,6.15-3.92,9.53-2.53a4.94,4.94,0,0,1,1.68,3.25,5.69,5.69,0,0,1-.55,1.8c-4.89,7.9-9.55,16.19-14.08,24.15C804.06,593.27,794.88,609.53,783.41,623.8Z"/></svg>