<svg id="Layer_1" data-name="Layer 1" xmlns="http://www.w3.org/2000/svg" viewBox="0 0 1080 1080"><defs><style>.cls-1{fill:#36459a;}</style></defs><path class="cls-1" d="M66.76,568a56.87,56.87,0,0,1-20.17-20.16,56,56,0,0,1,0-56,56.93,56.93,0,0,1,20.17-20.12,53.76,53.76,0,0,1,28-7.52,63.82,63.82,0,0,1,23.86,4.52,38.44,38.44,0,0,1,18,14.4l-16.58,13.4a52.54,52.54,0,0,0-4.48-14.84,32.35,32.35,0,0,0-8.76-11.4,19.94,19.94,0,0,0-13-4.44,28.07,28.07,0,0,0-9.58,1.87A38.89,38.89,0,0,0,69.52,478a59.88,59.88,0,0,0-11.21,17.91A58.5,58.5,0,0,0,54,518.59l.16,3.89a67.74,67.74,0,0,0,7,26,50.93,50.93,0,0,0,15.06,18.29,32.89,32.89,0,0,0,19.93,6.78q22.59-1.09,36.6-15.57a1,1,0,0,1,.62-.24.93.93,0,0,1,.62.27.88.88,0,0,1,.32.67,1,1,0,0,1-.32.7,56.07,56.07,0,0,1-17.67,11.83,54.14,54.14,0,0,1-21.49,4.28A53.76,53.76,0,0,1,66.76,568Z"/><path class="cls-1" d="M134.85,575.5a.93.93,0,0,1-.62-.27.84.84,0,0,1,0-1.32.93.93,0,0,1,.62-.27h2.8a3.56,3.56,0,0,0,2.65-1.13,3.66,3.66,0,0,0,1.09-2.61V521c0-2-.53-3.32-1.6-4a17.44,17.44,0,0,0-5.1-2c-.52-.16-.78-.44-.78-.86.11-.67.44-1,1-1l1.24.23a11.59,11.59,0,0,0,3.58.47,20.93,20.93,0,0,0,9-2.1,9.78,9.78,0,0,0,5.6-6.46,1.05,1.05,0,0,1,1-.7.94.94,0,0,1,.67.27.9.9,0,0,1,.27.66v12.15q5.29-12.62,18.76-12.85a24.3,24.3,0,0,1,6.78,1.09,25.1,25.1,0,0,1,7.35,3.62,24,24,0,0,1,6.35,6.73l-9.89,8q-1.09-7.47-5.53-11.29a14.42,14.42,0,0,0-9.57-3.81,13.22,13.22,0,0,0-7.05,2,14.4,14.4,0,0,0-5.22,5.92,21.41,21.41,0,0,0-2,9.7V569.9a3.86,3.86,0,0,0,3.74,3.74h2.8a.93.93,0,1,1,0,1.86Z"/><path class="cls-1" d="M328.1,575.5H314a7.1,7.1,0,0,1-5-1.94,7.55,7.55,0,0,1-2.41-4.91l-.15-3,.07-4a30.59,30.59,0,0,1-8.87,9.89A21.13,21.13,0,0,1,285,575.5a24.78,24.78,0,0,1-14.21-4q-5.88-4-7-12.77l-.16-2.41a18.4,18.4,0,0,1,2.53-9.62,22.55,22.55,0,0,1,6.78-7.12,29.53,29.53,0,0,1,9.46-4.2,77.9,77.9,0,0,1,19.77-2.18l4.36.07v-4.12a49.29,49.29,0,0,0-1.09-10,20.34,20.34,0,0,0-4.08-9,11,11,0,0,0-8.45-3.9,19.72,19.72,0,0,0-10.67,2.73,23.89,23.89,0,0,0-7.36,7.32,54.28,54.28,0,0,0-5.18,10.31q-2.18,5.73-4.12,11.88a136.7,136.7,0,0,1-7.4,19.11,32.37,32.37,0,0,1-10.59,12.73Q241,575,229.68,575.5a29,29,0,0,1-17.16-5.06,33.19,33.19,0,0,1-11.1-13.35,41.82,41.82,0,0,1-3.89-18q0-13.64,7.86-23.44Q214,505,229.76,504.5a30,30,0,0,1,15.54,4,32,32,0,0,1,11.05,11,39,39,0,0,1,5.34,15.81l-50.77,8.95a51.84,51.84,0,0,0,5.14,18.46q5.69,11,16.19,11,9.74-.47,15.81-6.07A41.41,41.41,0,0,0,257.75,554a146.45,146.45,0,0,0,6.12-16q2-6.47,4.32-12.42a52.87,52.87,0,0,1,5.52-10.71,24.89,24.89,0,0,1,8-7.55,23,23,0,0,1,11.8-2.8,33.78,33.78,0,0,1,13.28,2.68,24.58,24.58,0,0,1,10.39,8.18q4.05,5.49,4.28,13.82V569.9a3.86,3.86,0,0,0,3.74,3.74h2.88a.77.77,0,0,1,.62.27,1,1,0,0,1,0,1.32A.77.77,0,0,1,328.1,575.5ZM210.76,542.41l37.84-6.62a56.43,56.43,0,0,0-3.46-15,27.75,27.75,0,0,0-6.81-10.47,14,14,0,0,0-9.74-3.86q-9,.46-13.51,8.64t-4.55,21.26A56.74,56.74,0,0,0,210.76,542.41Zm79.66,27.41a13.58,13.58,0,0,0,8.29-2.69,18.66,18.66,0,0,0,5.72-7.08,21.84,21.84,0,0,0,2.1-9.54V535.17c-1.81-.1-3.71-.15-5.68-.15h-2.1a22.42,22.42,0,0,0-11.49,3.42,19,19,0,0,0-6.65,7.63,21.36,21.36,0,0,0-2.18,9.27,18,18,0,0,0,1.4,7.12,12.81,12.81,0,0,0,4.05,5.34A10.43,10.43,0,0,0,290.42,569.82Z"/><path class="cls-1" d="M350.37,575.5a21.94,21.94,0,0,1-7.67-1.36,14.69,14.69,0,0,1-6.11-4.12,10,10,0,0,1-2.42-6.82V506.36h-7a.9.9,0,0,1-.63-.31.86.86,0,0,1-.31-.62.9.9,0,0,1,.27-.66.94.94,0,0,1,.67-.27,21.51,21.51,0,0,0,13.93-5.92,20,20,0,0,0,6.15-13.71.87.87,0,0,1,.28-.66.93.93,0,0,1,1.59.66V504.5h13.63a.92.92,0,0,1,.93.93.93.93,0,0,1-.27.62.83.83,0,0,1-.66.31H349.12V563.2c0,3.48.59,5.93,1.75,7.36A5.17,5.17,0,0,0,355,572.7q3.59,0,6.54-3.89a1,1,0,0,1,.78-.39,3.11,3.11,0,0,1,.78.31c.16.1.23.31.23.62l-.15.55a11.73,11.73,0,0,1-5.41,4.2A19.36,19.36,0,0,1,350.37,575.5Z"/><path class="cls-1" d="M394.59,575.5h-28a.93.93,0,1,1,0-1.86h2.81a3.54,3.54,0,0,0,2.64-1.13,3.66,3.66,0,0,0,1.09-2.61V521c0-2-.54-3.32-1.63-4a18.15,18.15,0,0,0-5.14-2,.87.87,0,0,1-.7-.86c.1-.67.44-1,1-1l1.25.23a11.55,11.55,0,0,0,3.58.47,20.92,20.92,0,0,0,9-2.1,9.77,9.77,0,0,0,5.61-6.46c.1-.47.44-.7,1-.7a.92.92,0,0,1,.93.93V569.9a3.86,3.86,0,0,0,3.74,3.74h2.8a.94.94,0,0,1,.67.27.94.94,0,0,1,0,1.32A.94.94,0,0,1,394.59,575.5Zm-16-71,9.81-9.74L378.55,485l-9.73,9.81Z"/><path class="cls-1" d="M429.79,575.66a29.61,29.61,0,0,1-16.2-4.44,32.51,32.51,0,0,1-11.17-12,40.84,40.84,0,0,1-4.87-17l-.08-2.88q0-13.71,7.95-23.6,8.47-10.57,24.37-11.13a29.65,29.65,0,0,1,16.15,4.44A32.21,32.21,0,0,1,457.12,521a41.1,41.1,0,0,1,4.82,17l.08,2.88q0,13.71-7.94,23.52Q445.52,575.11,429.79,575.66Zm2.18-1.95q8.47-.86,12.77-9.3t4.28-20.6A72.56,72.56,0,0,0,447.73,530a46.39,46.39,0,0,0-3.89-11.91,25.28,25.28,0,0,0-6.38-8.37,13.52,13.52,0,0,0-8.84-3.11q-9,.47-13.59,8.68t-4.55,21.53a65.92,65.92,0,0,0,2.37,17.87,35.3,35.3,0,0,0,7,13.74A14.29,14.29,0,0,0,431,573.71Z"/><path class="cls-1" d="M510.41,570.44A16.35,16.35,0,0,1,505.7,559a15.08,15.08,0,0,1,.86-4.91q1.4-3.89,4.36-10.2,2.25-4.9,4.51-10.27t3.86-10.52a31.25,31.25,0,0,0,1.59-9.11q0-7.62-7.24-7.63a21.39,21.39,0,0,0-4.12.47q-10.2,2.57-16.67,12.81A41.07,41.07,0,0,0,486.39,542V569.9a3.86,3.86,0,0,0,3.74,3.74h2.8a.9.9,0,0,1,.66.27.92.92,0,0,1,0,1.32.9.9,0,0,1-.66.27h-28a.93.93,0,1,1,0-1.86h2.81a3.54,3.54,0,0,0,2.64-1.13,3.66,3.66,0,0,0,1.09-2.61V521c0-2-.54-3.32-1.63-4a18.28,18.28,0,0,0-5.14-2,.87.87,0,0,1-.7-.86c.1-.67.44-1,1-1l1.25.23a11.5,11.5,0,0,0,3.58.47,20.65,20.65,0,0,0,9-2.1,10.06,10.06,0,0,0,5.65-6.46c.1-.47.44-.7,1-.7a.92.92,0,0,1,.93.93v22a37,37,0,0,1,6-11.49,31,31,0,0,1,9.69-8.29,25.76,25.76,0,0,1,12.61-3.11q9.74.47,14.72,5.95a18.43,18.43,0,0,1,5.14,12.19,27.52,27.52,0,0,1-2.38,10q-2.37,5.88-5.49,12.34Q519,560.72,519,566.71a9,9,0,0,0,1.16,4.67,4.26,4.26,0,0,0,4,1.94,15.44,15.44,0,0,0,6.89-2.1,16.88,16.88,0,0,0,6.35-5.6,1,1,0,0,1,.78-.39,1,1,0,0,1,.66.23.78.78,0,0,1,.27.62,1.45,1.45,0,0,1-.15.63,19,19,0,0,1-7.51,6.42,21.54,21.54,0,0,1-9.62,2.37A15,15,0,0,1,510.41,570.44Z"/><path class="cls-1" d="M636.9,575.5l-2.49-.07a20.2,20.2,0,0,1-8.88-3.39,22.08,22.08,0,0,1-7.94-9.15V575.5H596.1a.9.9,0,0,1-.66-.27.92.92,0,0,1,0-1.32.9.9,0,0,1,.66-.27h2.8a3.56,3.56,0,0,0,2.65-1.13,3.66,3.66,0,0,0,1.09-2.61V480.67c0-2-.55-3.34-1.64-4.09a16.16,16.16,0,0,0-5.13-2,.93.93,0,0,1-.71-.94c.06-.62.37-.93.94-.93l1.32.23a13.34,13.34,0,0,0,3.51.39,21.31,21.31,0,0,0,9-2.06,9.89,9.89,0,0,0,5.68-6.43,1,1,0,0,1,1-.7.94.94,0,0,1,.94.94v56.76q2.64-8.49,8.37-12.85a20.15,20.15,0,0,1,12.5-4.36,27.18,27.18,0,0,1,4,.31Q655,507.23,662,516.72a36.62,36.62,0,0,1,7,22.35,42.29,42.29,0,0,1-3.86,18,32.84,32.84,0,0,1-11,13.39A29.06,29.06,0,0,1,636.9,575.5Zm-3.58-3q6.23,0,10.94-5.26a37,37,0,0,0,7.39-13.7,58.93,58.93,0,0,0,2.69-18,56.09,56.09,0,0,0-1.75-14.25,26.14,26.14,0,0,0-5.38-10.82,11.81,11.81,0,0,0-9.3-4.13,16.85,16.85,0,0,0-10.08,3.35,23,23,0,0,0-7.44,9.85q-2.8,6.5-2.8,16V553.7a19.17,19.17,0,0,0,4.59,13Q627.25,572.55,633.32,572.55Z"/><path class="cls-1" d="M679.64,596.92h1a22.83,22.83,0,0,0,11.64-3.31,39.87,39.87,0,0,0,9.92-8.22,33.86,33.86,0,0,0,6.23-9.89H696.54q-14.17-38.93-16.82-45.78l-6.85-18.22c-1.3-3.42-3.3-5.14-6-5.14h-2.8a.93.93,0,0,1,0-1.86h29a.93.93,0,1,1,0,1.86,17.46,17.46,0,0,0-3.74.28c-.73.18-1.09.84-1.09,2a3.28,3.28,0,0,0,.23,1.25q0,.31,18,49.36l4,10.82,3.19-8.56a171.24,171.24,0,0,0,6.15-23.09,123.37,123.37,0,0,0,2.81-24.33,33.14,33.14,0,0,0-1.17-9.57h15l-28,76.92a90.93,90.93,0,0,1-4,8.57q-7.32,14-15.57,21.64-4.6,4.2-9,4.21Z"/><path class="cls-1" d="M820.07,568a56.87,56.87,0,0,1-20.17-20.16,56,56,0,0,1,0-56,56.93,56.93,0,0,1,20.17-20.12,53.76,53.76,0,0,1,28-7.52,63.86,63.86,0,0,1,23.86,4.52,38.44,38.44,0,0,1,18,14.4l-16.59,13.4a52.52,52.52,0,0,0-4.47-14.84,32.35,32.35,0,0,0-8.76-11.4,20,20,0,0,0-13-4.44,28,28,0,0,0-9.57,1.87A38.82,38.82,0,0,0,822.83,478a59.49,59.49,0,0,0-11.21,17.91,58.5,58.5,0,0,0-4.36,22.66l.15,3.89a67.92,67.92,0,0,0,7,26,51,51,0,0,0,15.07,18.29,32.87,32.87,0,0,0,19.93,6.78Q872,572.47,886,558a1,1,0,0,1,.62-.24,1,1,0,0,1,.62.27.87.87,0,0,1,.31.67,1,1,0,0,1-.31.7,56.3,56.3,0,0,1-17.67,11.83A56,56,0,0,1,820.07,568Z"/><path class="cls-1" d="M888.16,575.5a1,1,0,0,1-.63-.27.86.86,0,0,1,0-1.32,1,1,0,0,1,.63-.27H891a3.56,3.56,0,0,0,2.65-1.13,3.7,3.7,0,0,0,1.09-2.61V521c0-2-.54-3.32-1.6-4a17.44,17.44,0,0,0-5.1-2c-.52-.16-.78-.44-.78-.86.11-.67.44-1,1-1l1.25.23a11.55,11.55,0,0,0,3.58.47,20.89,20.89,0,0,0,9-2.1,9.77,9.77,0,0,0,5.61-6.46,1,1,0,0,1,1-.7.9.9,0,0,1,.66.27.87.87,0,0,1,.28.66v12.15q5.29-12.62,18.76-12.85a24.35,24.35,0,0,1,6.78,1.09,25.1,25.1,0,0,1,7.35,3.62,24,24,0,0,1,6.35,6.73l-9.89,8q-1.1-7.47-5.53-11.29a14.44,14.44,0,0,0-9.57-3.81,13.22,13.22,0,0,0-7,2,14.33,14.33,0,0,0-5.22,5.92,21.41,21.41,0,0,0-2,9.7V569.9a3.85,3.85,0,0,0,3.73,3.74h2.81a.93.93,0,1,1,0,1.86Z"/><path class="cls-1" d="M979.8,575.5h-28a.9.9,0,0,1-.66-.27.92.92,0,0,1,0-1.32.9.9,0,0,1,.66-.27h2.8a3.56,3.56,0,0,0,2.65-1.13,3.66,3.66,0,0,0,1.09-2.61V521c0-2-.55-3.32-1.64-4a18.19,18.19,0,0,0-5.13-2,.88.88,0,0,1-.71-.86c.11-.67.44-1,1-1l1.24.23a11.59,11.59,0,0,0,3.58.47,20.93,20.93,0,0,0,9-2.1,9.78,9.78,0,0,0,5.6-6.46.9.9,0,0,1,1-.7.94.94,0,0,1,.67.27.9.9,0,0,1,.27.66V569.9a3.86,3.86,0,0,0,3.74,3.74h2.8a.93.93,0,1,1,0,1.86Zm-16-71,9.81-9.74L963.76,485,954,494.76Z"/><path class="cls-1" d="M982.68,575.5l39.87-69.14h-10.2a77.43,77.43,0,0,0-12.42.86,17,17,0,0,0-8.8,4.09q-3.63,3.23-6,10.16a.68.68,0,0,1-.23.47,1.28,1.28,0,0,1-.31.11,1.66,1.66,0,0,0-.31.12,1,1,0,0,1-.74-.27,1,1,0,0,1-.27-.74l2.33-16.66h55.36L1001,573.64h10.28a77.39,77.39,0,0,0,12.41-.86,16.77,16.77,0,0,0,8.76-4.09q3.58-3.23,6-10.16a.68.68,0,0,1,.23-.47,1.45,1.45,0,0,1,.31-.11l.39-.12a.92.92,0,0,1,.74.31,1.05,1.05,0,0,1,.28.7L1038,575.5Z"/></svg>