<svg id="Layer_1" data-name="Layer 1" xmlns="http://www.w3.org/2000/svg" viewBox="0 0 1080 1080"><defs><style>.cls-1{fill:#231f20;}.cls-2{fill:#0aad4b;}</style></defs><path class="cls-1" d="M116.84,409.37h45.24v13.78H132.5v22.62h27.84v13.55H132.5v38H116.84Z"/><path class="cls-1" d="M187.6,409.37v88H171.83v-88Z"/><path class="cls-1" d="M203.16,497.33v-88H221c18.19,48.61,21.69,57.88,22.74,62.19h.13c-.75-10.56-.78-23.51-.78-37.93V409.37h14.08v88H240.05c-18.78-51.83-22.12-61.17-23.25-65.2h-.13c.65,10.83.66,23.79.66,39.55v25.65Z"/><path class="cls-1" d="M285.59,475.19l-4.37,22.14H265.45l20.37-88h20.44l20.59,88H310.32l-4.38-22.14Zm17.55-13.67c-3.28-16.83-5.91-29.14-7.29-37.54h-.37c-1.08,8.1-3.86,21.32-7.1,37.54Z"/><path class="cls-1" d="M334.33,497.33v-88h17.88C370.4,458,373.9,467.25,375,471.56h.13c-.75-10.56-.78-23.51-.78-37.93V409.37h14.08v88H371.22c-18.78-51.83-22.12-61.17-23.26-65.2h-.13c.65,10.83.67,23.79.67,39.55v25.65Z"/><path class="cls-1" d="M454.89,471.72c-.39,4.45-2.07,27.12-26.48,27.12-25,0-27.88-22-27.88-45.61,0-28.48,8.35-45.26,28.82-45.26,23.33,0,25.14,20,25.5,27H439.27c-.25-3-.45-13.68-10.16-13.68-9.89,0-12.3,12.1-12.3,32.23,0,16.59,1.66,32.15,11.86,32.15,9.39,0,10.14-10.62,10.53-14Z"/><path class="cls-1" d="M508.5,458.23H480.26v25.54H512L510,497.33h-45.3v-88h45.11v13.78H480.26v21.41H508.5Z"/><path class="cls-1" d="M538.23,497.33l-21.84-88h17l8.06,37.31c2.55,11.71,5,24.74,6,33.93h.26c1.06-8.94,4.28-22.09,6.74-33.6l7.8-37.64h16.48l-22.13,88Z"/><path class="cls-1" d="M630.43,458.23H602.2v25.54h31.7L632,497.33H586.65v-88h45.11v13.78H602.2v21.41h28.23Z"/><path class="cls-1" d="M659.12,459.82v37.51H643.46v-88H670.4c16,0,25.05,8.33,25.05,24,0,12.72-6.81,18.21-11.41,20,6.82,3.19,10,9,10,22v3.51c0,10,.47,13.72,1.19,18.42H680c-1.28-4-1.51-11-1.51-18.57v-3.2c0-11.76-2.7-15.74-12.64-15.74Zm0-12.75h7.39c9.51,0,13.23-4.09,13.23-13,0-7.58-3.62-12-11.68-12h-8.94Z"/><path class="cls-2" d="M717.54,473.87c.73,6.71,3.29,11.62,11.35,11.62,7.25,0,10-3.94,10-10.73,0-7.14-3.24-10.67-12.63-15-15.13-7-22.48-13.87-22.48-26.84,0-15.6,10.62-23.42,24.32-23.42,17.45,0,24.57,9.17,24.78,22.71H738.11c-.38-6.66-3.12-10.87-10.27-10.87-6.12,0-9,3.74-9,9.55,0,6.73,2.89,9.15,14.62,14.7,15.37,7.29,20.84,15,20.84,27.32,0,16-9.18,24.53-26,24.53-18.41,0-25-10.33-25.63-23.57Zm5.48-60.1v-11.1h11.54v11.1Zm0,92.64v-11.1h11.54v11.1Z"/><path class="cls-1" d="M810.09,458.23H781.86v25.54h31.69l-1.94,13.56h-45.3v-88h45.11v13.78H781.86v21.41h28.23Z"/><path class="cls-1" d="M847.57,409.37h26.82c15.27,0,23.65,8.45,23.65,22.3,0,11.09-5.29,16.49-10.16,18.31,6.22,2.56,12.71,8.25,12.71,21.48,0,16.71-10.88,25.87-26.54,25.87H847.57Zm23,35.1c9.79,0,12.34-3.78,12.34-11.36s-4-11.23-11.79-11.23H863v22.59ZM863,485.05h9.41c7.85,0,12.39-4,12.39-13.9,0-9.08-3.76-14.4-14.12-14.4H863Z"/><path class="cls-1" d="M924.46,497.33V466.2a6.4,6.4,0,0,0-.62-2.85l-22.16-54h17.58c4.93,13.78,11,30.76,13.57,40.4,3.22-10.8,9.27-27.28,13.71-40.4h16.62l-22.42,54.2a7.76,7.76,0,0,0-.5,3v30.8Z"/><path class="cls-1" d="M204.15,627c0-23.1.4-49.49.8-64.85h-.55c-4.67,25.7-12.17,71.36-21,115.17H161.5c-6.56-40.81-14.33-89.39-18.68-115.55h-.75c.8,15.8,1.4,44.16,1.4,67.54v48H121.31V542h36.22c7.08,37.4,13.29,75.18,16,94.93h.2C176.49,618.57,185,577.81,192,542h35.36V677.33H204.15Z"/><path class="cls-1" d="M328.85,619.63v57.7H304.76V542h41.43c24.6,0,38.54,12.83,38.54,37,0,19.57-10.48,28-17.54,30.82,10.48,4.9,15.44,13.8,15.44,33.79V649c0,15.37.73,21.12,1.82,28.34H361c-2-6.2-2.32-16.91-2.32-28.57v-4.93c0-18.08-4.16-24.2-19.45-24.2Zm0-19.62h11.37c14.63,0,20.35-6.29,20.35-20,0-11.66-5.57-18.41-18-18.41H328.85Z"/><path class="cls-1" d="M481.43,542V677.33H457.16V542Z"/><path class="cls-1" d="M559.36,677.33V542h27.51c28,74.78,33.36,89,35,95.68h.2c-1.15-16.26-1.2-36.18-1.2-58.35V542H642.5V677.33H616.11c-28.89-79.73-34-94.1-35.77-100.31h-.2c1,16.67,1,36.6,1,60.85v39.46Z"/><path class="cls-1" d="M740.17,643.27l-6.71,34.06H709.19L740.52,542H772l31.68,135.32H778.23l-6.75-34.06Zm27-21c-5-25.9-9.08-44.82-11.21-57.74h-.58c-1.65,12.45-5.93,32.79-10.92,57.74Z"/><path class="cls-1" d="M869.15,542h24.27V656.65h46.31l-2.36,20.68H869.15Z"/></svg>