<svg id="Layer_1" data-name="Layer 1" xmlns="http://www.w3.org/2000/svg" viewBox="0 0 1080 1080"><defs><style>.cls-1,.cls-3{fill:#010101;}.cls-1{stroke:#fff;stroke-miterlimit:10;stroke-width:23px;}.cls-2{fill:#fff;}</style></defs><rect class="cls-1" x="113.56" y="453.22" width="853.65" height="171.76" rx="47.53"/><path class="cls-2" d="M238.77,578.7H222.83a3.75,3.75,0,0,1-2.82-.92,4.17,4.17,0,0,1-.88-3v-70a4.17,4.17,0,0,1,.88-3,3.75,3.75,0,0,1,2.82-.92h45.86a3.77,3.77,0,0,1,2.83.92,4.22,4.22,0,0,1,.87,3v12.85a4.22,4.22,0,0,1-.87,3,3.77,3.77,0,0,1-2.83.92H242.47V532.8h17.89a3.77,3.77,0,0,1,2.83.92,4.22,4.22,0,0,1,.87,3v13a4.22,4.22,0,0,1-.87,3,3.77,3.77,0,0,1-2.83.92H242.47v21.27a4.22,4.22,0,0,1-.87,3A3.77,3.77,0,0,1,238.77,578.7Z"/><path class="cls-2" d="M301.69,578.7H286.38a3.76,3.76,0,0,1-2.83-.92,4.17,4.17,0,0,1-.88-3v-70a4.17,4.17,0,0,1,.88-3,3.76,3.76,0,0,1,2.83-.92h16.55a4.6,4.6,0,0,1,2.72.76,7,7,0,0,1,2,2.48l9.25,17.6a7.88,7.88,0,0,0,.88,1.41,1.17,1.17,0,0,0,1,.43h.93a1.19,1.19,0,0,0,1-.43,9.23,9.23,0,0,0,.88-1.41l9.15-17.6a7,7,0,0,1,2-2.48,4.61,4.61,0,0,1,2.73-.76h16.66a3.75,3.75,0,0,1,2.82.92,4.22,4.22,0,0,1,.88,3v70a4.22,4.22,0,0,1-.88,3,3.75,3.75,0,0,1-2.82.92H336.24a3.79,3.79,0,0,1-2.83-.92,4.22,4.22,0,0,1-.87-3v-38l-6.07,11.77a6.37,6.37,0,0,1-2.21,2.64A5.94,5.94,0,0,1,321,552h-4.11a6,6,0,0,1-3.24-.81,6.44,6.44,0,0,1-2.21-2.64L305.4,536.8v38a4.22,4.22,0,0,1-.88,3A3.76,3.76,0,0,1,301.69,578.7Z"/><path class="cls-2" d="M431.45,578.7H396.8a3.77,3.77,0,0,1-2.83-.92,4.22,4.22,0,0,1-.87-3v-70a4.22,4.22,0,0,1,.87-3,3.77,3.77,0,0,1,2.83-.92h34.65q12.85,0,19.07,5.4T456.74,523v33.7q0,11.24-6.22,16.63T431.45,578.7Zm-15-57.13v36.72h12.23a4.68,4.68,0,0,0,3.65-1.3,5.75,5.75,0,0,0,1.18-4V526.75a5.56,5.56,0,0,0-1.18-3.94,4.81,4.81,0,0,0-3.65-1.24Z"/><path class="cls-2" d="M471.85,578.7a3.75,3.75,0,0,1-2.82-.92,4.17,4.17,0,0,1-.88-3V562a4.17,4.17,0,0,1,.88-3,3.75,3.75,0,0,1,2.82-.92H482V521.78H471.85a3.75,3.75,0,0,1-2.82-.91,4.2,4.2,0,0,1-.88-3V504.83a4.17,4.17,0,0,1,.88-3,3.75,3.75,0,0,1,2.82-.92h43.8a3.76,3.76,0,0,1,2.83.92,4.22,4.22,0,0,1,.88,3V517.9a4.25,4.25,0,0,1-.88,3,3.76,3.76,0,0,1-2.83.91h-10v36.29h10a3.76,3.76,0,0,1,2.83.92,4.22,4.22,0,0,1,.88,3v12.85a4.22,4.22,0,0,1-.88,3,3.76,3.76,0,0,1-2.83.92Z"/><path class="cls-2" d="M588.55,578.7H556.16q-12.85,0-19.07-5.4t-6.22-16.63V523q0-11.24,6.22-16.63t19.07-5.4h25.71a3.79,3.79,0,0,1,2.83.92,4.22,4.22,0,0,1,.87,3V517.9a4.25,4.25,0,0,1-.87,3,3.79,3.79,0,0,1-2.83.91H560.48a7,7,0,0,0-4.73,1.35,5.09,5.09,0,0,0-1.54,4V553a5.75,5.75,0,0,0,1.18,4,4.55,4.55,0,0,0,3.55,1.3h10V541.44a4.17,4.17,0,0,1,.88-3,3.76,3.76,0,0,1,2.83-.92h15.93a3.77,3.77,0,0,1,2.83.92,4.22,4.22,0,0,1,.87,3v33.37a4.22,4.22,0,0,1-.87,3A3.77,3.77,0,0,1,588.55,578.7Z"/><path class="cls-2" d="M606.85,578.7a3.75,3.75,0,0,1-2.82-.92,4.17,4.17,0,0,1-.88-3V562a4.17,4.17,0,0,1,.88-3,3.75,3.75,0,0,1,2.82-.92H617V521.78H606.85a3.75,3.75,0,0,1-2.82-.91,4.2,4.2,0,0,1-.88-3V504.83a4.17,4.17,0,0,1,.88-3,3.75,3.75,0,0,1,2.82-.92h43.8a3.77,3.77,0,0,1,2.83.92,4.22,4.22,0,0,1,.87,3V517.9a4.25,4.25,0,0,1-.87,3,3.77,3.77,0,0,1-2.83.91h-10v36.29h10a3.77,3.77,0,0,1,2.83.92,4.22,4.22,0,0,1,.87,3v12.85a4.22,4.22,0,0,1-.87,3,3.77,3.77,0,0,1-2.83.92Z"/><path class="cls-2" d="M702,578.7H685.3a3.79,3.79,0,0,1-2.83-.92,4.22,4.22,0,0,1-.87-3v-53H666.49a3.76,3.76,0,0,1-2.83-.91,4.25,4.25,0,0,1-.87-3V504.83a4.22,4.22,0,0,1,.87-3,3.76,3.76,0,0,1,2.83-.92h54.28a3.76,3.76,0,0,1,2.83.92,4.22,4.22,0,0,1,.88,3V517.9a4.25,4.25,0,0,1-.88,3,3.76,3.76,0,0,1-2.83.91H705.66v53a4.22,4.22,0,0,1-.87,3A3.79,3.79,0,0,1,702,578.7Z"/><path class="cls-2" d="M751.31,574.81a4.22,4.22,0,0,1-.87,3,3.79,3.79,0,0,1-2.83.92H732.5a3.76,3.76,0,0,1-2.83-.92,4.17,4.17,0,0,1-.88-3V546.3a33.56,33.56,0,0,1,1-7.45,84.7,84.7,0,0,1,3-9.83l9-24.52a5.06,5.06,0,0,1,1.9-2.7,5.93,5.93,0,0,1,3.34-.86h27.66a5.75,5.75,0,0,1,3.24.86,5.06,5.06,0,0,1,1.9,2.7l9,24.52a84.7,84.7,0,0,1,3,9.83,33.56,33.56,0,0,1,1,7.45v28.51a4.22,4.22,0,0,1-.88,3,3.76,3.76,0,0,1-2.83.92H773.52a4.31,4.31,0,0,1-3-.92,3.88,3.88,0,0,1-1-3V559.69h-18.2Zm5.86-51.19L752.34,540h16.14l-4.83-16.42a4.07,4.07,0,0,0-.88-1.4,1.5,1.5,0,0,0-1.07-.44h-2.58a1.54,1.54,0,0,0-1.08.44A4.07,4.07,0,0,0,757.17,523.62Z"/><path class="cls-2" d="M861.43,578.7H809.09a3.75,3.75,0,0,1-2.82-.92,4.17,4.17,0,0,1-.88-3v-70a4.17,4.17,0,0,1,.88-3,3.75,3.75,0,0,1,2.82-.92H825a3.79,3.79,0,0,1,2.83.92,4.22,4.22,0,0,1,.87,3v53.46h14.09v-17.5a4.22,4.22,0,0,1,.87-3,3.77,3.77,0,0,1,2.83-.92h14.91a3.75,3.75,0,0,1,2.82.92,4.17,4.17,0,0,1,.88,3v34a4.17,4.17,0,0,1-.88,3A3.75,3.75,0,0,1,861.43,578.7Z"/><g id="l1"><path class="cls-3" d="M195.79,460.34h-2.22a.5.5,0,0,1-.39-.13.57.57,0,0,1-.12-.41v-9.72a.57.57,0,0,1,.12-.41.5.5,0,0,1,.39-.13h6.37a.5.5,0,0,1,.39.13.53.53,0,0,1,.13.41v1.78a.57.57,0,0,1-.13.42.54.54,0,0,1-.39.12H196.3V454h2.49a.54.54,0,0,1,.39.13.59.59,0,0,1,.12.41v1.8a.6.6,0,0,1-.12.42.54.54,0,0,1-.39.12H196.3v3a.57.57,0,0,1-.12.41A.5.5,0,0,1,195.79,460.34Z"/><path class="cls-3" d="M204.53,460.34H202.4a.5.5,0,0,1-.39-.13.53.53,0,0,1-.13-.41v-9.72a.53.53,0,0,1,.13-.41.5.5,0,0,1,.39-.13h2.3a.66.66,0,0,1,.38.11.81.81,0,0,1,.27.34l1.29,2.45.12.19a.17.17,0,0,0,.14.06H207a.17.17,0,0,0,.14-.06l.12-.19,1.27-2.45a.91.91,0,0,1,.28-.34.66.66,0,0,1,.38-.11h2.31a.54.54,0,0,1,.4.13.57.57,0,0,1,.12.41v9.72a.57.57,0,0,1-.12.41.54.54,0,0,1-.4.13h-2.2a.5.5,0,0,1-.39-.13.57.57,0,0,1-.12-.41v-5.28l-.84,1.63a.84.84,0,0,1-.31.37.79.79,0,0,1-.45.11h-.57a.79.79,0,0,1-.45-.11.84.84,0,0,1-.31-.37l-.84-1.63v5.28a.57.57,0,0,1-.12.41A.5.5,0,0,1,204.53,460.34Z"/><path class="cls-3" d="M222.55,460.34h-4.82a.5.5,0,0,1-.39-.13.57.57,0,0,1-.12-.41v-9.72a.57.57,0,0,1,.12-.41.5.5,0,0,1,.39-.13h4.82a4,4,0,0,1,2.65.75,2.92,2.92,0,0,1,.86,2.31v4.68a2.92,2.92,0,0,1-.86,2.31A4,4,0,0,1,222.55,460.34Zm-2.09-7.94v5.1h1.7a.66.66,0,0,0,.51-.18.77.77,0,0,0,.16-.55v-3.65a.76.76,0,0,0-.16-.54.66.66,0,0,0-.51-.18Z"/><path class="cls-3" d="M228.16,460.34a.5.5,0,0,1-.39-.13.57.57,0,0,1-.12-.41V458a.61.61,0,0,1,.12-.41.54.54,0,0,1,.39-.13h1.41v-5h-1.41a.54.54,0,0,1-.39-.13.61.61,0,0,1-.12-.41v-1.82a.57.57,0,0,1,.12-.41.5.5,0,0,1,.39-.13h6.08a.54.54,0,0,1,.4.13.57.57,0,0,1,.12.41v1.82a.61.61,0,0,1-.12.41.58.58,0,0,1-.4.13h-1.38v5h1.38a.58.58,0,0,1,.4.13.61.61,0,0,1,.12.41v1.79a.57.57,0,0,1-.12.41.54.54,0,0,1-.4.13Z"/><path class="cls-3" d="M244.37,460.34h-4.5a4,4,0,0,1-2.65-.75,2.88,2.88,0,0,1-.86-2.31V452.6a2.88,2.88,0,0,1,.86-2.31,4,4,0,0,1,2.65-.75h3.57a.5.5,0,0,1,.39.13.57.57,0,0,1,.12.41v1.82a.61.61,0,0,1-.12.41.54.54,0,0,1-.39.13h-3a1,1,0,0,0-.66.18.74.74,0,0,0-.21.57v3.58a.77.77,0,0,0,.16.55.64.64,0,0,0,.49.18h1.39v-2.33a.62.62,0,0,1,.12-.42.54.54,0,0,1,.39-.13h2.22a.54.54,0,0,1,.39.13.62.62,0,0,1,.12.42v4.63a.57.57,0,0,1-.12.41A.5.5,0,0,1,244.37,460.34Z"/><path class="cls-3" d="M246.91,460.34a.5.5,0,0,1-.39-.13.57.57,0,0,1-.12-.41V458a.61.61,0,0,1,.12-.41.54.54,0,0,1,.39-.13h1.41v-5h-1.41a.54.54,0,0,1-.39-.13.61.61,0,0,1-.12-.41v-1.82a.57.57,0,0,1,.12-.41.5.5,0,0,1,.39-.13H253a.54.54,0,0,1,.4.13.57.57,0,0,1,.12.41v1.82a.61.61,0,0,1-.12.41.58.58,0,0,1-.4.13h-1.38v5H253a.58.58,0,0,1,.4.13.61.61,0,0,1,.12.41v1.79a.57.57,0,0,1-.12.41.54.54,0,0,1-.4.13Z"/><path class="cls-3" d="M260.12,460.34h-2.31a.51.51,0,0,1-.4-.13.57.57,0,0,1-.12-.41v-7.36h-2.1a.54.54,0,0,1-.39-.13.61.61,0,0,1-.12-.41v-1.82a.57.57,0,0,1,.12-.41.5.5,0,0,1,.39-.13h7.54a.5.5,0,0,1,.39.13.53.53,0,0,1,.13.41v1.82a.56.56,0,0,1-.13.41.54.54,0,0,1-.39.13h-2.1v7.36a.57.57,0,0,1-.12.41A.5.5,0,0,1,260.12,460.34Z"/><path class="cls-3" d="M267,459.8a.57.57,0,0,1-.12.41.5.5,0,0,1-.39.13h-2.1a.5.5,0,0,1-.39-.13.57.57,0,0,1-.12-.41v-4a4.68,4.68,0,0,1,.13-1,12.37,12.37,0,0,1,.42-1.36l1.24-3.41a.71.71,0,0,1,.27-.37.81.81,0,0,1,.46-.12h3.84a.77.77,0,0,1,.45.12.71.71,0,0,1,.27.37l1.24,3.41a12.37,12.37,0,0,1,.42,1.36,4.75,4.75,0,0,1,.14,1v4a.57.57,0,0,1-.12.41.52.52,0,0,1-.4.13h-2.15a.57.57,0,0,1-.42-.13.53.53,0,0,1-.14-.41v-2.1H267Zm.82-7.11-.67,2.28h2.24l-.67-2.28a.63.63,0,0,0-.13-.2.24.24,0,0,0-.14-.05h-.36a.25.25,0,0,0-.15.05A.62.62,0,0,0,267.79,452.69Z"/><path class="cls-3" d="M282.27,460.34H275a.5.5,0,0,1-.39-.13.53.53,0,0,1-.13-.41v-9.72a.53.53,0,0,1,.13-.41.5.5,0,0,1,.39-.13h2.21a.5.5,0,0,1,.39.13.53.53,0,0,1,.13.41v7.42h1.95v-2.43a.59.59,0,0,1,.12-.41.56.56,0,0,1,.4-.13h2.07a.54.54,0,0,1,.39.13.59.59,0,0,1,.12.41v4.73a.57.57,0,0,1-.12.41A.5.5,0,0,1,282.27,460.34Z"/><path class="cls-3" d="M279.57,619.66h2.21a.5.5,0,0,1,.39.13.57.57,0,0,1,.12.41v9.72a.57.57,0,0,1-.12.41.5.5,0,0,1-.39.13h-6.37a.5.5,0,0,1-.39-.13.57.57,0,0,1-.12-.41v-1.79a.61.61,0,0,1,.12-.41.54.54,0,0,1,.39-.13h3.64V626h-2.48a.54.54,0,0,1-.39-.13.62.62,0,0,1-.13-.42V623.7a.6.6,0,0,1,.13-.42.54.54,0,0,1,.39-.13h2.48V620.2a.57.57,0,0,1,.12-.41A.54.54,0,0,1,279.57,619.66Z"/><path class="cls-3" d="M270.83,619.66H273a.5.5,0,0,1,.39.13.57.57,0,0,1,.12.41v9.72a.57.57,0,0,1-.12.41.5.5,0,0,1-.39.13h-2.3a.63.63,0,0,1-.38-.11A.91.91,0,0,1,270,630l-1.29-2.45a.62.62,0,0,0-.12-.19.16.16,0,0,0-.13-.06h-.13a.18.18,0,0,0-.14.06,1.67,1.67,0,0,0-.12.19L266.8,630a.82.82,0,0,1-.28.34.63.63,0,0,1-.38.11h-2.31a.5.5,0,0,1-.39-.13.57.57,0,0,1-.12-.41V620.2a.57.57,0,0,1,.12-.41.5.5,0,0,1,.39-.13H266a.5.5,0,0,1,.39.13.57.57,0,0,1,.12.41v5.28l.85-1.64a.74.74,0,0,1,.75-.47h.57a.75.75,0,0,1,.45.11.8.8,0,0,1,.31.36l.84,1.64V620.2a.53.53,0,0,1,.13-.41A.5.5,0,0,1,270.83,619.66Z"/><path class="cls-3" d="M252.81,619.66h4.81a.5.5,0,0,1,.39.13.57.57,0,0,1,.12.41v9.72a.57.57,0,0,1-.12.41.5.5,0,0,1-.39.13h-4.81a4,4,0,0,1-2.65-.75,2.89,2.89,0,0,1-.87-2.31v-4.68a2.89,2.89,0,0,1,.87-2.31A4,4,0,0,1,252.81,619.66Zm2.08,7.93v-5.1h-1.7a.62.62,0,0,0-.5.18.81.81,0,0,0-.17.56v3.65a.76.76,0,0,0,.17.54.62.62,0,0,0,.5.17Z"/><path class="cls-3" d="M247.19,619.66a.51.51,0,0,1,.4.13.57.57,0,0,1,.12.41V622a.62.62,0,0,1-.12.42.55.55,0,0,1-.4.13h-1.41v5h1.41a.55.55,0,0,1,.4.13.59.59,0,0,1,.12.41v1.82a.57.57,0,0,1-.12.41.51.51,0,0,1-.4.13h-6.08a.5.5,0,0,1-.39-.13.57.57,0,0,1-.12-.41V628.1a.59.59,0,0,1,.12-.41.54.54,0,0,1,.39-.13h1.39v-5h-1.39a.54.54,0,0,1-.39-.13.62.62,0,0,1-.12-.42V620.2a.57.57,0,0,1,.12-.41.5.5,0,0,1,.39-.13Z"/><path class="cls-3" d="M231,619.66h4.49a4,4,0,0,1,2.65.75,2.89,2.89,0,0,1,.87,2.31v4.68a2.89,2.89,0,0,1-.87,2.31,4,4,0,0,1-2.65.75h-3.57a.5.5,0,0,1-.39-.13.57.57,0,0,1-.12-.41V628.1a.59.59,0,0,1,.12-.41.54.54,0,0,1,.39-.13h3a1,1,0,0,0,.66-.18.74.74,0,0,0,.22-.57v-3.58a.81.81,0,0,0-.17-.56.63.63,0,0,0-.49-.18h-1.39v2.34a.62.62,0,0,1-.12.42.54.54,0,0,1-.39.13H231a.56.56,0,0,1-.4-.13.62.62,0,0,1-.12-.42V620.2a.57.57,0,0,1,.12-.41A.52.52,0,0,1,231,619.66Z"/><path class="cls-3" d="M228.44,619.66a.51.51,0,0,1,.4.13.57.57,0,0,1,.12.41V622a.62.62,0,0,1-.12.42.55.55,0,0,1-.4.13H227v5h1.41a.55.55,0,0,1,.4.13.59.59,0,0,1,.12.41v1.82a.57.57,0,0,1-.12.41.51.51,0,0,1-.4.13h-6.08a.5.5,0,0,1-.39-.13.57.57,0,0,1-.12-.41V628.1a.59.59,0,0,1,.12-.41.54.54,0,0,1,.39-.13h1.39v-5h-1.39a.54.54,0,0,1-.39-.13.62.62,0,0,1-.12-.42V620.2a.57.57,0,0,1,.12-.41.5.5,0,0,1,.39-.13Z"/><path class="cls-3" d="M215.23,619.66h2.32a.5.5,0,0,1,.39.13.57.57,0,0,1,.12.41v7.36h2.1a.54.54,0,0,1,.39.13.55.55,0,0,1,.13.41v1.82a.53.53,0,0,1-.13.41.5.5,0,0,1-.39.13h-7.54a.5.5,0,0,1-.39-.13.57.57,0,0,1-.12-.41V628.1a.59.59,0,0,1,.12-.41.54.54,0,0,1,.39-.13h2.1V620.2a.57.57,0,0,1,.12-.41A.5.5,0,0,1,215.23,619.66Z"/><path class="cls-3" d="M208.38,620.2a.57.57,0,0,1,.12-.41.51.51,0,0,1,.4-.13H211a.52.52,0,0,1,.4.13.57.57,0,0,1,.12.41v4a4.82,4.82,0,0,1-.14,1,12.37,12.37,0,0,1-.42,1.36l-1.24,3.4a.73.73,0,0,1-.27.38.78.78,0,0,1-.46.12h-3.84a.79.79,0,0,1-.45-.12.67.67,0,0,1-.26-.38l-1.25-3.4a12.37,12.37,0,0,1-.42-1.36,4.75,4.75,0,0,1-.13-1v-4a.57.57,0,0,1,.12-.41.5.5,0,0,1,.39-.13h2.16a.57.57,0,0,1,.42.13.53.53,0,0,1,.13.41v2.1h2.53Zm-.81,7.11.67-2.28H206l.67,2.28a.62.62,0,0,0,.12.19.2.2,0,0,0,.15.06h.36a.24.24,0,0,0,.15-.06A.62.62,0,0,0,207.57,627.31Z"/><path class="cls-3" d="M193.09,619.66h7.27a.5.5,0,0,1,.39.13.57.57,0,0,1,.12.41v9.72a.57.57,0,0,1-.12.41.5.5,0,0,1-.39.13h-2.22a.5.5,0,0,1-.39-.13.57.57,0,0,1-.12-.41v-7.43h-2v2.43a.6.6,0,0,1-.12.42.54.54,0,0,1-.39.12h-2.07a.58.58,0,0,1-.4-.12.6.6,0,0,1-.12-.42V620.2a.57.57,0,0,1,.12-.41A.54.54,0,0,1,193.09,619.66Z"/></g><g id="r1"><path class="cls-3" d="M812.84,460.34h-2.21a.5.5,0,0,1-.39-.13.57.57,0,0,1-.12-.41v-9.72a.57.57,0,0,1,.12-.41.5.5,0,0,1,.39-.13H817a.5.5,0,0,1,.39.13.57.57,0,0,1,.12.41v1.78a.62.62,0,0,1-.12.42.54.54,0,0,1-.39.12h-3.64V454h2.48a.56.56,0,0,1,.4.13.59.59,0,0,1,.12.41v1.8a.6.6,0,0,1-.12.42.56.56,0,0,1-.4.12h-2.48v3a.57.57,0,0,1-.12.41A.51.51,0,0,1,812.84,460.34Z"/><path class="cls-3" d="M821.58,460.34h-2.12a.52.52,0,0,1-.4-.13.57.57,0,0,1-.12-.41v-9.72a.57.57,0,0,1,.12-.41.52.52,0,0,1,.4-.13h2.3a.62.62,0,0,1,.37.11.82.82,0,0,1,.28.34l1.29,2.45.12.19a.17.17,0,0,0,.14.06h.12a.17.17,0,0,0,.14-.06l.12-.19,1.27-2.45a.91.91,0,0,1,.28-.34.66.66,0,0,1,.38-.11h2.31a.5.5,0,0,1,.39.13.53.53,0,0,1,.13.41v9.72a.53.53,0,0,1-.13.41.5.5,0,0,1-.39.13h-2.2a.5.5,0,0,1-.39-.13.57.57,0,0,1-.12-.41v-5.28l-.84,1.63a.84.84,0,0,1-.31.37.79.79,0,0,1-.45.11h-.57a.79.79,0,0,1-.45-.11.84.84,0,0,1-.31-.37l-.84-1.63v5.28a.57.57,0,0,1-.12.41A.51.51,0,0,1,821.58,460.34Z"/><path class="cls-3" d="M839.61,460.34h-4.82a.5.5,0,0,1-.39-.13.57.57,0,0,1-.12-.41v-9.72a.57.57,0,0,1,.12-.41.5.5,0,0,1,.39-.13h4.82a3.93,3.93,0,0,1,2.64.75,2.89,2.89,0,0,1,.87,2.31v4.68a2.89,2.89,0,0,1-.87,2.31A3.93,3.93,0,0,1,839.61,460.34Zm-2.09-7.94v5.1h1.7a.66.66,0,0,0,.51-.18.77.77,0,0,0,.16-.55v-3.65a.76.76,0,0,0-.16-.54.66.66,0,0,0-.51-.18Z"/><path class="cls-3" d="M845.22,460.34a.5.5,0,0,1-.39-.13.53.53,0,0,1-.13-.41V458a.56.56,0,0,1,.13-.41.54.54,0,0,1,.39-.13h1.41v-5h-1.41a.54.54,0,0,1-.39-.13.56.56,0,0,1-.13-.41v-1.82a.53.53,0,0,1,.13-.41.5.5,0,0,1,.39-.13h6.08a.5.5,0,0,1,.39.13.57.57,0,0,1,.13.41v1.82a.61.61,0,0,1-.13.41.54.54,0,0,1-.39.13h-1.38v5h1.38a.54.54,0,0,1,.39.13.61.61,0,0,1,.13.41v1.79a.57.57,0,0,1-.13.41.5.5,0,0,1-.39.13Z"/><path class="cls-3" d="M861.43,460.34h-4.5a4,4,0,0,1-2.65-.75,2.88,2.88,0,0,1-.86-2.31V452.6a2.88,2.88,0,0,1,.86-2.31,4,4,0,0,1,2.65-.75h3.57a.5.5,0,0,1,.39.13.57.57,0,0,1,.12.41v1.82a.61.61,0,0,1-.12.41.54.54,0,0,1-.39.13h-3a1,1,0,0,0-.66.18.74.74,0,0,0-.21.57v3.58a.77.77,0,0,0,.16.55.63.63,0,0,0,.49.18h1.39v-2.33a.62.62,0,0,1,.12-.42.54.54,0,0,1,.39-.13h2.22a.54.54,0,0,1,.39.13.62.62,0,0,1,.12.42v4.63a.57.57,0,0,1-.12.41A.5.5,0,0,1,861.43,460.34Z"/><path class="cls-3" d="M864,460.34a.5.5,0,0,1-.39-.13.53.53,0,0,1-.13-.41V458a.56.56,0,0,1,.13-.41.54.54,0,0,1,.39-.13h1.41v-5H864a.54.54,0,0,1-.39-.13.56.56,0,0,1-.13-.41v-1.82a.53.53,0,0,1,.13-.41.5.5,0,0,1,.39-.13h6.08a.5.5,0,0,1,.39.13.57.57,0,0,1,.13.41v1.82a.61.61,0,0,1-.13.41.54.54,0,0,1-.39.13h-1.38v5h1.38a.54.54,0,0,1,.39.13.61.61,0,0,1,.13.41v1.79a.57.57,0,0,1-.13.41.5.5,0,0,1-.39.13Z"/><path class="cls-3" d="M877.18,460.34h-2.32a.5.5,0,0,1-.39-.13.57.57,0,0,1-.12-.41v-7.36h-2.1a.54.54,0,0,1-.39-.13.61.61,0,0,1-.12-.41v-1.82a.57.57,0,0,1,.12-.41.5.5,0,0,1,.39-.13h7.54a.5.5,0,0,1,.39.13.57.57,0,0,1,.12.41v1.82a.61.61,0,0,1-.12.41.54.54,0,0,1-.39.13h-2.1v7.36a.57.57,0,0,1-.12.41A.5.5,0,0,1,877.18,460.34Z"/><path class="cls-3" d="M884,459.8a.57.57,0,0,1-.12.41.5.5,0,0,1-.39.13h-2.1a.5.5,0,0,1-.39-.13.53.53,0,0,1-.13-.41v-4a4.75,4.75,0,0,1,.14-1,12.37,12.37,0,0,1,.42-1.36L882.7,450a.71.71,0,0,1,.27-.37.81.81,0,0,1,.46-.12h3.84a.79.79,0,0,1,.45.12.71.71,0,0,1,.27.37l1.24,3.41a12.37,12.37,0,0,1,.42,1.36,4.75,4.75,0,0,1,.14,1v4a.57.57,0,0,1-.12.41.54.54,0,0,1-.4.13h-2.15a.61.61,0,0,1-.43-.13.53.53,0,0,1-.13-.41v-2.1H884Zm.82-7.11-.68,2.28h2.25l-.67-2.28a.63.63,0,0,0-.13-.2.25.25,0,0,0-.15-.05h-.35a.25.25,0,0,0-.15.05A.48.48,0,0,0,884.85,452.69Z"/><path class="cls-3" d="M899.33,460.34h-7.27a.54.54,0,0,1-.4-.13.57.57,0,0,1-.12-.41v-9.72a.57.57,0,0,1,.12-.41.54.54,0,0,1,.4-.13h2.21a.5.5,0,0,1,.39.13.57.57,0,0,1,.12.41v7.42h2v-2.43a.59.59,0,0,1,.12-.41.54.54,0,0,1,.39-.13h2.08a.54.54,0,0,1,.39.13.59.59,0,0,1,.12.41v4.73a.57.57,0,0,1-.12.41A.5.5,0,0,1,899.33,460.34Z"/><path class="cls-3" d="M896.63,619.66h2.21a.5.5,0,0,1,.39.13.57.57,0,0,1,.12.41v9.72a.57.57,0,0,1-.12.41.5.5,0,0,1-.39.13h-6.37a.5.5,0,0,1-.39-.13.57.57,0,0,1-.12-.41v-1.79a.61.61,0,0,1,.12-.41.54.54,0,0,1,.39-.13h3.64V626h-2.48a.58.58,0,0,1-.4-.13.62.62,0,0,1-.12-.42V623.7a.6.6,0,0,1,.12-.42.58.58,0,0,1,.4-.13h2.48V620.2a.57.57,0,0,1,.12-.41A.52.52,0,0,1,896.63,619.66Z"/><path class="cls-3" d="M887.89,619.66H890a.51.51,0,0,1,.4.13.57.57,0,0,1,.12.41v9.72a.57.57,0,0,1-.12.41.51.51,0,0,1-.4.13h-2.3a.62.62,0,0,1-.37-.11.82.82,0,0,1-.28-.34l-1.29-2.45a.62.62,0,0,0-.12-.19.16.16,0,0,0-.13-.06h-.13a.18.18,0,0,0-.14.06,1.67,1.67,0,0,0-.12.19L883.86,630a.91.91,0,0,1-.28.34.63.63,0,0,1-.38.11h-2.31a.5.5,0,0,1-.39-.13.57.57,0,0,1-.12-.41V620.2a.57.57,0,0,1,.12-.41.5.5,0,0,1,.39-.13h2.2a.5.5,0,0,1,.39.13.57.57,0,0,1,.12.41v5.28l.85-1.64a.74.74,0,0,1,.75-.47h.57a.79.79,0,0,1,.45.11.87.87,0,0,1,.31.36l.84,1.64V620.2a.57.57,0,0,1,.12-.41A.52.52,0,0,1,887.89,619.66Z"/><path class="cls-3" d="M869.87,619.66h4.81a.5.5,0,0,1,.39.13.57.57,0,0,1,.12.41v9.72a.57.57,0,0,1-.12.41.5.5,0,0,1-.39.13h-4.81a3.94,3.94,0,0,1-2.65-.75,2.89,2.89,0,0,1-.87-2.31v-4.68a2.89,2.89,0,0,1,.87-2.31A3.94,3.94,0,0,1,869.87,619.66Zm2.08,7.93v-5.1h-1.7a.66.66,0,0,0-.51.18.81.81,0,0,0-.16.56v3.65a.76.76,0,0,0,.16.54.66.66,0,0,0,.51.17Z"/><path class="cls-3" d="M864.25,619.66a.54.54,0,0,1,.4.13.57.57,0,0,1,.12.41V622a.62.62,0,0,1-.12.42.58.58,0,0,1-.4.13h-1.41v5h1.41a.58.58,0,0,1,.4.13.59.59,0,0,1,.12.41v1.82a.57.57,0,0,1-.12.41.54.54,0,0,1-.4.13h-6.08a.5.5,0,0,1-.39-.13.57.57,0,0,1-.12-.41V628.1a.59.59,0,0,1,.12-.41.54.54,0,0,1,.39-.13h1.38v-5h-1.38a.54.54,0,0,1-.39-.13.62.62,0,0,1-.12-.42V620.2a.57.57,0,0,1,.12-.41.5.5,0,0,1,.39-.13Z"/><path class="cls-3" d="M848,619.66h4.5a4,4,0,0,1,2.65.75,2.89,2.89,0,0,1,.87,2.31v4.68a2.89,2.89,0,0,1-.87,2.31,4,4,0,0,1-2.65.75H849a.5.5,0,0,1-.39-.13.57.57,0,0,1-.12-.41V628.1a.59.59,0,0,1,.12-.41.54.54,0,0,1,.39-.13h3a1,1,0,0,0,.66-.18.74.74,0,0,0,.21-.57v-3.58a.81.81,0,0,0-.16-.56.63.63,0,0,0-.49-.18h-1.39v2.34a.62.62,0,0,1-.12.42.54.54,0,0,1-.39.13H848a.54.54,0,0,1-.39-.13.62.62,0,0,1-.12-.42V620.2a.57.57,0,0,1,.12-.41A.5.5,0,0,1,848,619.66Z"/><path class="cls-3" d="M845.5,619.66a.54.54,0,0,1,.4.13.57.57,0,0,1,.12.41V622a.62.62,0,0,1-.12.42.58.58,0,0,1-.4.13h-1.41v5h1.41a.58.58,0,0,1,.4.13.59.59,0,0,1,.12.41v1.82a.57.57,0,0,1-.12.41.54.54,0,0,1-.4.13h-6.08a.5.5,0,0,1-.39-.13.57.57,0,0,1-.12-.41V628.1a.59.59,0,0,1,.12-.41.54.54,0,0,1,.39-.13h1.38v-5h-1.38a.54.54,0,0,1-.39-.13.62.62,0,0,1-.12-.42V620.2a.57.57,0,0,1,.12-.41.5.5,0,0,1,.39-.13Z"/><path class="cls-3" d="M832.29,619.66h2.32a.5.5,0,0,1,.39.13.57.57,0,0,1,.12.41v7.36h2.1a.54.54,0,0,1,.39.13.59.59,0,0,1,.12.41v1.82a.57.57,0,0,1-.12.41.5.5,0,0,1-.39.13h-7.54a.5.5,0,0,1-.39-.13.57.57,0,0,1-.12-.41V628.1a.59.59,0,0,1,.12-.41.54.54,0,0,1,.39-.13h2.1V620.2a.57.57,0,0,1,.12-.41A.5.5,0,0,1,832.29,619.66Z"/><path class="cls-3" d="M825.44,620.2a.57.57,0,0,1,.12-.41.5.5,0,0,1,.39-.13h2.1a.52.52,0,0,1,.4.13.57.57,0,0,1,.12.41v4a4.82,4.82,0,0,1-.14,1,12.37,12.37,0,0,1-.42,1.36l-1.24,3.4a.73.73,0,0,1-.27.38.81.81,0,0,1-.46.12H822.2a.79.79,0,0,1-.45-.12.73.73,0,0,1-.27-.38l-1.24-3.4a12.37,12.37,0,0,1-.42-1.36,4.82,4.82,0,0,1-.14-1v-4a.53.53,0,0,1,.13-.41.5.5,0,0,1,.39-.13h2.16a.59.59,0,0,1,.42.13.53.53,0,0,1,.13.41v2.1h2.53Zm-.82,7.11.68-2.28h-2.25l.68,2.28a.39.39,0,0,0,.12.19.2.2,0,0,0,.15.06h.35a.2.2,0,0,0,.15-.06A.39.39,0,0,0,824.62,627.31Z"/><path class="cls-3" d="M810.15,619.66h7.26a.51.51,0,0,1,.4.13.57.57,0,0,1,.12.41v9.72a.57.57,0,0,1-.12.41.51.51,0,0,1-.4.13H815.2a.5.5,0,0,1-.39-.13.57.57,0,0,1-.12-.41v-7.43h-2v2.43a.6.6,0,0,1-.12.42.54.54,0,0,1-.39.12h-2.07a.55.55,0,0,1-.4-.12.6.6,0,0,1-.12-.42V620.2a.57.57,0,0,1,.12-.41A.51.51,0,0,1,810.15,619.66Z"/></g><g id="l2"><path class="cls-3" d="M350.79,460.34h-2.22a.5.5,0,0,1-.39-.13.57.57,0,0,1-.12-.41v-9.72a.57.57,0,0,1,.12-.41.5.5,0,0,1,.39-.13h6.37a.5.5,0,0,1,.39.13.53.53,0,0,1,.13.41v1.78a.57.57,0,0,1-.13.42.54.54,0,0,1-.39.12H351.3V454h2.49a.54.54,0,0,1,.39.13.59.59,0,0,1,.12.41v1.8a.6.6,0,0,1-.12.42.54.54,0,0,1-.39.12H351.3v3a.57.57,0,0,1-.12.41A.5.5,0,0,1,350.79,460.34Z"/><path class="cls-3" d="M359.53,460.34H357.4a.5.5,0,0,1-.39-.13.53.53,0,0,1-.13-.41v-9.72a.53.53,0,0,1,.13-.41.5.5,0,0,1,.39-.13h2.3a.66.66,0,0,1,.38.11.81.81,0,0,1,.27.34l1.29,2.45.12.19a.17.17,0,0,0,.14.06H362a.17.17,0,0,0,.14-.06l.12-.19,1.27-2.45a.91.91,0,0,1,.28-.34.66.66,0,0,1,.38-.11h2.31a.54.54,0,0,1,.4.13.57.57,0,0,1,.12.41v9.72a.57.57,0,0,1-.12.41.54.54,0,0,1-.4.13h-2.2a.5.5,0,0,1-.39-.13.57.57,0,0,1-.12-.41v-5.28l-.84,1.63a.84.84,0,0,1-.31.37.79.79,0,0,1-.45.11h-.57a.79.79,0,0,1-.45-.11.84.84,0,0,1-.31-.37l-.84-1.63v5.28a.57.57,0,0,1-.12.41A.5.5,0,0,1,359.53,460.34Z"/><path class="cls-3" d="M377.55,460.34h-4.82a.5.5,0,0,1-.39-.13.57.57,0,0,1-.12-.41v-9.72a.57.57,0,0,1,.12-.41.5.5,0,0,1,.39-.13h4.82a4,4,0,0,1,2.65.75,2.92,2.92,0,0,1,.86,2.31v4.68a2.92,2.92,0,0,1-.86,2.31A4,4,0,0,1,377.55,460.34Zm-2.09-7.94v5.1h1.7a.66.66,0,0,0,.51-.18.77.77,0,0,0,.16-.55v-3.65a.76.76,0,0,0-.16-.54.66.66,0,0,0-.51-.18Z"/><path class="cls-3" d="M383.16,460.34a.5.5,0,0,1-.39-.13.57.57,0,0,1-.12-.41V458a.61.61,0,0,1,.12-.41.54.54,0,0,1,.39-.13h1.41v-5h-1.41a.54.54,0,0,1-.39-.13.61.61,0,0,1-.12-.41v-1.82a.57.57,0,0,1,.12-.41.5.5,0,0,1,.39-.13h6.08a.54.54,0,0,1,.4.13.57.57,0,0,1,.12.41v1.82a.61.61,0,0,1-.12.41.58.58,0,0,1-.4.13h-1.38v5h1.38a.58.58,0,0,1,.4.13.61.61,0,0,1,.12.41v1.79a.57.57,0,0,1-.12.41.54.54,0,0,1-.4.13Z"/><path class="cls-3" d="M399.37,460.34h-4.5a4,4,0,0,1-2.65-.75,2.88,2.88,0,0,1-.86-2.31V452.6a2.88,2.88,0,0,1,.86-2.31,4,4,0,0,1,2.65-.75h3.57a.5.5,0,0,1,.39.13.57.57,0,0,1,.12.41v1.82a.61.61,0,0,1-.12.41.54.54,0,0,1-.39.13h-3a1,1,0,0,0-.66.18.74.74,0,0,0-.21.57v3.58a.77.77,0,0,0,.16.55.64.64,0,0,0,.49.18h1.39v-2.33a.62.62,0,0,1,.12-.42.54.54,0,0,1,.39-.13h2.22a.54.54,0,0,1,.39.13.62.62,0,0,1,.12.42v4.63a.57.57,0,0,1-.12.41A.5.5,0,0,1,399.37,460.34Z"/><path class="cls-3" d="M401.91,460.34a.5.5,0,0,1-.39-.13.57.57,0,0,1-.12-.41V458a.61.61,0,0,1,.12-.41.54.54,0,0,1,.39-.13h1.41v-5h-1.41a.54.54,0,0,1-.39-.13.61.61,0,0,1-.12-.41v-1.82a.57.57,0,0,1,.12-.41.5.5,0,0,1,.39-.13H408a.54.54,0,0,1,.4.13.57.57,0,0,1,.12.41v1.82a.61.61,0,0,1-.12.41.58.58,0,0,1-.4.13h-1.38v5H408a.58.58,0,0,1,.4.13.61.61,0,0,1,.12.41v1.79a.57.57,0,0,1-.12.41.54.54,0,0,1-.4.13Z"/><path class="cls-3" d="M415.12,460.34h-2.31a.51.51,0,0,1-.4-.13.57.57,0,0,1-.12-.41v-7.36h-2.1a.54.54,0,0,1-.39-.13.61.61,0,0,1-.12-.41v-1.82a.57.57,0,0,1,.12-.41.5.5,0,0,1,.39-.13h7.54a.5.5,0,0,1,.39.13.53.53,0,0,1,.13.41v1.82a.56.56,0,0,1-.13.41.54.54,0,0,1-.39.13h-2.1v7.36a.57.57,0,0,1-.12.41A.5.5,0,0,1,415.12,460.34Z"/><path class="cls-3" d="M422,459.8a.57.57,0,0,1-.12.41.5.5,0,0,1-.39.13h-2.1a.5.5,0,0,1-.39-.13.57.57,0,0,1-.12-.41v-4a4.68,4.68,0,0,1,.13-1,12.37,12.37,0,0,1,.42-1.36l1.24-3.41a.71.71,0,0,1,.27-.37.81.81,0,0,1,.46-.12h3.84a.77.77,0,0,1,.45.12.71.71,0,0,1,.27.37l1.24,3.41a12.37,12.37,0,0,1,.42,1.36,4.75,4.75,0,0,1,.14,1v4a.57.57,0,0,1-.12.41.52.52,0,0,1-.4.13h-2.15a.57.57,0,0,1-.42-.13.53.53,0,0,1-.14-.41v-2.1H422Zm.82-7.11-.67,2.28h2.24l-.67-2.28a.63.63,0,0,0-.13-.2.24.24,0,0,0-.14-.05h-.36a.25.25,0,0,0-.15.05A.62.62,0,0,0,422.79,452.69Z"/><path class="cls-3" d="M437.27,460.34H430a.5.5,0,0,1-.39-.13.53.53,0,0,1-.13-.41v-9.72a.53.53,0,0,1,.13-.41.5.5,0,0,1,.39-.13h2.21a.5.5,0,0,1,.39.13.53.53,0,0,1,.13.41v7.42h1.95v-2.43a.59.59,0,0,1,.12-.41.56.56,0,0,1,.4-.13h2.07a.54.54,0,0,1,.39.13.59.59,0,0,1,.12.41v4.73a.57.57,0,0,1-.12.41A.5.5,0,0,1,437.27,460.34Z"/><path class="cls-3" d="M434.57,619.66h2.21a.5.5,0,0,1,.39.13.57.57,0,0,1,.12.41v9.72a.57.57,0,0,1-.12.41.5.5,0,0,1-.39.13h-6.37a.5.5,0,0,1-.39-.13.57.57,0,0,1-.12-.41v-1.79a.61.61,0,0,1,.12-.41.54.54,0,0,1,.39-.13h3.64V626h-2.48a.54.54,0,0,1-.39-.13.62.62,0,0,1-.13-.42V623.7a.6.6,0,0,1,.13-.42.54.54,0,0,1,.39-.13h2.48V620.2a.57.57,0,0,1,.12-.41A.54.54,0,0,1,434.57,619.66Z"/><path class="cls-3" d="M425.83,619.66H428a.5.5,0,0,1,.39.13.57.57,0,0,1,.12.41v9.72a.57.57,0,0,1-.12.41.5.5,0,0,1-.39.13h-2.3a.63.63,0,0,1-.38-.11A.91.91,0,0,1,425,630l-1.29-2.45a.62.62,0,0,0-.12-.19.16.16,0,0,0-.13-.06h-.13a.18.18,0,0,0-.14.06,1.67,1.67,0,0,0-.12.19L421.8,630a.82.82,0,0,1-.28.34.63.63,0,0,1-.38.11h-2.31a.5.5,0,0,1-.39-.13.57.57,0,0,1-.12-.41V620.2a.57.57,0,0,1,.12-.41.5.5,0,0,1,.39-.13H421a.5.5,0,0,1,.39.13.57.57,0,0,1,.12.41v5.28l.85-1.64a.74.74,0,0,1,.75-.47h.57a.75.75,0,0,1,.45.11.8.8,0,0,1,.31.36l.84,1.64V620.2a.53.53,0,0,1,.13-.41A.5.5,0,0,1,425.83,619.66Z"/><path class="cls-3" d="M407.81,619.66h4.81a.5.5,0,0,1,.39.13.57.57,0,0,1,.12.41v9.72a.57.57,0,0,1-.12.41.5.5,0,0,1-.39.13h-4.81a4,4,0,0,1-2.65-.75,2.89,2.89,0,0,1-.87-2.31v-4.68a2.89,2.89,0,0,1,.87-2.31A4,4,0,0,1,407.81,619.66Zm2.08,7.93v-5.1h-1.7a.62.62,0,0,0-.5.18.81.81,0,0,0-.17.56v3.65a.76.76,0,0,0,.17.54.62.62,0,0,0,.5.17Z"/><path class="cls-3" d="M402.19,619.66a.51.51,0,0,1,.4.13.57.57,0,0,1,.12.41V622a.62.62,0,0,1-.12.42.55.55,0,0,1-.4.13h-1.41v5h1.41a.55.55,0,0,1,.4.13.59.59,0,0,1,.12.41v1.82a.57.57,0,0,1-.12.41.51.51,0,0,1-.4.13h-6.08a.5.5,0,0,1-.39-.13.57.57,0,0,1-.12-.41V628.1a.59.59,0,0,1,.12-.41.54.54,0,0,1,.39-.13h1.39v-5h-1.39a.54.54,0,0,1-.39-.13.62.62,0,0,1-.12-.42V620.2a.57.57,0,0,1,.12-.41.5.5,0,0,1,.39-.13Z"/><path class="cls-3" d="M386,619.66h4.49a4,4,0,0,1,2.65.75,2.89,2.89,0,0,1,.87,2.31v4.68a2.89,2.89,0,0,1-.87,2.31,4,4,0,0,1-2.65.75h-3.57a.5.5,0,0,1-.39-.13.57.57,0,0,1-.12-.41V628.1a.59.59,0,0,1,.12-.41.54.54,0,0,1,.39-.13h3a1,1,0,0,0,.66-.18.74.74,0,0,0,.22-.57v-3.58a.81.81,0,0,0-.17-.56.63.63,0,0,0-.49-.18h-1.39v2.34a.62.62,0,0,1-.12.42.54.54,0,0,1-.39.13H386a.56.56,0,0,1-.4-.13.62.62,0,0,1-.12-.42V620.2a.57.57,0,0,1,.12-.41A.52.52,0,0,1,386,619.66Z"/><path class="cls-3" d="M383.44,619.66a.51.51,0,0,1,.4.13.57.57,0,0,1,.12.41V622a.62.62,0,0,1-.12.42.55.55,0,0,1-.4.13H382v5h1.41a.55.55,0,0,1,.4.13.59.59,0,0,1,.12.41v1.82a.57.57,0,0,1-.12.41.51.51,0,0,1-.4.13h-6.08a.5.5,0,0,1-.39-.13.57.57,0,0,1-.12-.41V628.1a.59.59,0,0,1,.12-.41.54.54,0,0,1,.39-.13h1.39v-5h-1.39a.54.54,0,0,1-.39-.13.62.62,0,0,1-.12-.42V620.2a.57.57,0,0,1,.12-.41.5.5,0,0,1,.39-.13Z"/><path class="cls-3" d="M370.23,619.66h2.32a.5.5,0,0,1,.39.13.57.57,0,0,1,.12.41v7.36h2.1a.54.54,0,0,1,.39.13.55.55,0,0,1,.13.41v1.82a.53.53,0,0,1-.13.41.5.5,0,0,1-.39.13h-7.54a.5.5,0,0,1-.39-.13.57.57,0,0,1-.12-.41V628.1a.59.59,0,0,1,.12-.41.54.54,0,0,1,.39-.13h2.1V620.2a.57.57,0,0,1,.12-.41A.5.5,0,0,1,370.23,619.66Z"/><path class="cls-3" d="M363.38,620.2a.57.57,0,0,1,.12-.41.51.51,0,0,1,.4-.13H366a.52.52,0,0,1,.4.13.57.57,0,0,1,.12.41v4a4.82,4.82,0,0,1-.14,1,12.37,12.37,0,0,1-.42,1.36l-1.24,3.4a.73.73,0,0,1-.27.38.78.78,0,0,1-.46.12h-3.84a.79.79,0,0,1-.45-.12.67.67,0,0,1-.26-.38l-1.25-3.4a12.37,12.37,0,0,1-.42-1.36,4.75,4.75,0,0,1-.13-1v-4a.57.57,0,0,1,.12-.41.5.5,0,0,1,.39-.13h2.16a.57.57,0,0,1,.42.13.53.53,0,0,1,.13.41v2.1h2.53Zm-.81,7.11.67-2.28H361l.67,2.28a.62.62,0,0,0,.12.19.2.2,0,0,0,.15.06h.36a.24.24,0,0,0,.15-.06A.62.62,0,0,0,362.57,627.31Z"/><path class="cls-3" d="M348.09,619.66h7.27a.5.5,0,0,1,.39.13.57.57,0,0,1,.12.41v9.72a.57.57,0,0,1-.12.41.5.5,0,0,1-.39.13h-2.22a.5.5,0,0,1-.39-.13.57.57,0,0,1-.12-.41v-7.43h-2v2.43a.6.6,0,0,1-.12.42.54.54,0,0,1-.39.12h-2.07a.58.58,0,0,1-.4-.12.6.6,0,0,1-.12-.42V620.2a.57.57,0,0,1,.12-.41A.54.54,0,0,1,348.09,619.66Z"/></g><g id="r2"><path class="cls-3" d="M663.84,460.34h-2.21a.5.5,0,0,1-.39-.13.57.57,0,0,1-.12-.41v-9.72a.57.57,0,0,1,.12-.41.5.5,0,0,1,.39-.13H668a.5.5,0,0,1,.39.13.57.57,0,0,1,.12.41v1.78a.62.62,0,0,1-.12.42.54.54,0,0,1-.39.12h-3.64V454h2.48a.56.56,0,0,1,.4.13.59.59,0,0,1,.12.41v1.8a.6.6,0,0,1-.12.42.56.56,0,0,1-.4.12h-2.48v3a.57.57,0,0,1-.12.41A.51.51,0,0,1,663.84,460.34Z"/><path class="cls-3" d="M672.58,460.34h-2.12a.52.52,0,0,1-.4-.13.57.57,0,0,1-.12-.41v-9.72a.57.57,0,0,1,.12-.41.52.52,0,0,1,.4-.13h2.3a.62.62,0,0,1,.37.11.82.82,0,0,1,.28.34l1.29,2.45.12.19a.17.17,0,0,0,.14.06h.12a.17.17,0,0,0,.14-.06l.12-.19,1.27-2.45a.91.91,0,0,1,.28-.34.66.66,0,0,1,.38-.11h2.31a.5.5,0,0,1,.39.13.53.53,0,0,1,.13.41v9.72a.53.53,0,0,1-.13.41.5.5,0,0,1-.39.13h-2.2a.5.5,0,0,1-.39-.13.57.57,0,0,1-.12-.41v-5.28l-.84,1.63a.84.84,0,0,1-.31.37.79.79,0,0,1-.45.11h-.57a.79.79,0,0,1-.45-.11.84.84,0,0,1-.31-.37l-.84-1.63v5.28a.57.57,0,0,1-.12.41A.51.51,0,0,1,672.58,460.34Z"/><path class="cls-3" d="M690.61,460.34h-4.82a.5.5,0,0,1-.39-.13.57.57,0,0,1-.12-.41v-9.72a.57.57,0,0,1,.12-.41.5.5,0,0,1,.39-.13h4.82a3.93,3.93,0,0,1,2.64.75,2.89,2.89,0,0,1,.87,2.31v4.68a2.89,2.89,0,0,1-.87,2.31A3.93,3.93,0,0,1,690.61,460.34Zm-2.09-7.94v5.1h1.7a.66.66,0,0,0,.51-.18.77.77,0,0,0,.16-.55v-3.65a.76.76,0,0,0-.16-.54.66.66,0,0,0-.51-.18Z"/><path class="cls-3" d="M696.22,460.34a.5.5,0,0,1-.39-.13.53.53,0,0,1-.13-.41V458a.56.56,0,0,1,.13-.41.54.54,0,0,1,.39-.13h1.41v-5h-1.41a.54.54,0,0,1-.39-.13.56.56,0,0,1-.13-.41v-1.82a.53.53,0,0,1,.13-.41.5.5,0,0,1,.39-.13h6.08a.5.5,0,0,1,.39.13.57.57,0,0,1,.13.41v1.82a.61.61,0,0,1-.13.41.54.54,0,0,1-.39.13h-1.38v5h1.38a.54.54,0,0,1,.39.13.61.61,0,0,1,.13.41v1.79a.57.57,0,0,1-.13.41.5.5,0,0,1-.39.13Z"/><path class="cls-3" d="M712.43,460.34h-4.5a4,4,0,0,1-2.65-.75,2.88,2.88,0,0,1-.86-2.31V452.6a2.88,2.88,0,0,1,.86-2.31,4,4,0,0,1,2.65-.75h3.57a.5.5,0,0,1,.39.13.57.57,0,0,1,.12.41v1.82a.61.61,0,0,1-.12.41.54.54,0,0,1-.39.13h-3a1,1,0,0,0-.66.18.74.74,0,0,0-.21.57v3.58a.77.77,0,0,0,.16.55.63.63,0,0,0,.49.18h1.39v-2.33a.62.62,0,0,1,.12-.42.54.54,0,0,1,.39-.13h2.22a.54.54,0,0,1,.39.13.62.62,0,0,1,.12.42v4.63a.57.57,0,0,1-.12.41A.5.5,0,0,1,712.43,460.34Z"/><path class="cls-3" d="M715,460.34a.5.5,0,0,1-.39-.13.53.53,0,0,1-.13-.41V458a.56.56,0,0,1,.13-.41.54.54,0,0,1,.39-.13h1.41v-5H715a.54.54,0,0,1-.39-.13.56.56,0,0,1-.13-.41v-1.82a.53.53,0,0,1,.13-.41.5.5,0,0,1,.39-.13h6.08a.5.5,0,0,1,.39.13.57.57,0,0,1,.13.41v1.82a.61.61,0,0,1-.13.41.54.54,0,0,1-.39.13h-1.38v5h1.38a.54.54,0,0,1,.39.13.61.61,0,0,1,.13.41v1.79a.57.57,0,0,1-.13.41.5.5,0,0,1-.39.13Z"/><path class="cls-3" d="M728.18,460.34h-2.32a.5.5,0,0,1-.39-.13.57.57,0,0,1-.12-.41v-7.36h-2.1a.54.54,0,0,1-.39-.13.61.61,0,0,1-.12-.41v-1.82a.57.57,0,0,1,.12-.41.5.5,0,0,1,.39-.13h7.54a.5.5,0,0,1,.39.13.57.57,0,0,1,.12.41v1.82a.61.61,0,0,1-.12.41.54.54,0,0,1-.39.13h-2.1v7.36a.57.57,0,0,1-.12.41A.5.5,0,0,1,728.18,460.34Z"/><path class="cls-3" d="M735,459.8a.57.57,0,0,1-.12.41.5.5,0,0,1-.39.13h-2.1a.5.5,0,0,1-.39-.13.53.53,0,0,1-.13-.41v-4a4.75,4.75,0,0,1,.14-1,12.37,12.37,0,0,1,.42-1.36L733.7,450a.71.71,0,0,1,.27-.37.81.81,0,0,1,.46-.12h3.84a.79.79,0,0,1,.45.12.71.71,0,0,1,.27.37l1.24,3.41a12.37,12.37,0,0,1,.42,1.36,4.75,4.75,0,0,1,.14,1v4a.57.57,0,0,1-.12.41.54.54,0,0,1-.4.13h-2.15a.61.61,0,0,1-.43-.13.53.53,0,0,1-.13-.41v-2.1H735Zm.82-7.11-.68,2.28h2.25l-.67-2.28a.63.63,0,0,0-.13-.2.25.25,0,0,0-.15-.05h-.35a.25.25,0,0,0-.15.05A.48.48,0,0,0,735.85,452.69Z"/><path class="cls-3" d="M750.33,460.34h-7.27a.54.54,0,0,1-.4-.13.57.57,0,0,1-.12-.41v-9.72a.57.57,0,0,1,.12-.41.54.54,0,0,1,.4-.13h2.21a.5.5,0,0,1,.39.13.57.57,0,0,1,.12.41v7.42h2v-2.43a.59.59,0,0,1,.12-.41.54.54,0,0,1,.39-.13h2.08a.54.54,0,0,1,.39.13.59.59,0,0,1,.12.41v4.73a.57.57,0,0,1-.12.41A.5.5,0,0,1,750.33,460.34Z"/><path class="cls-3" d="M747.63,619.66h2.21a.5.5,0,0,1,.39.13.57.57,0,0,1,.12.41v9.72a.57.57,0,0,1-.12.41.5.5,0,0,1-.39.13h-6.37a.5.5,0,0,1-.39-.13.57.57,0,0,1-.12-.41v-1.79a.61.61,0,0,1,.12-.41.54.54,0,0,1,.39-.13h3.64V626h-2.48a.58.58,0,0,1-.4-.13.62.62,0,0,1-.12-.42V623.7a.6.6,0,0,1,.12-.42.58.58,0,0,1,.4-.13h2.48V620.2a.57.57,0,0,1,.12-.41A.52.52,0,0,1,747.63,619.66Z"/><path class="cls-3" d="M738.89,619.66H741a.51.51,0,0,1,.4.13.57.57,0,0,1,.12.41v9.72a.57.57,0,0,1-.12.41.51.51,0,0,1-.4.13h-2.3a.62.62,0,0,1-.37-.11.82.82,0,0,1-.28-.34l-1.29-2.45a.62.62,0,0,0-.12-.19.16.16,0,0,0-.13-.06h-.13a.18.18,0,0,0-.14.06,1.67,1.67,0,0,0-.12.19L734.86,630a.91.91,0,0,1-.28.34.63.63,0,0,1-.38.11h-2.31a.5.5,0,0,1-.39-.13.57.57,0,0,1-.12-.41V620.2a.57.57,0,0,1,.12-.41.5.5,0,0,1,.39-.13h2.2a.5.5,0,0,1,.39.13.57.57,0,0,1,.12.41v5.28l.85-1.64a.74.74,0,0,1,.75-.47h.57a.79.79,0,0,1,.45.11.87.87,0,0,1,.31.36l.84,1.64V620.2a.57.57,0,0,1,.12-.41A.52.52,0,0,1,738.89,619.66Z"/><path class="cls-3" d="M720.87,619.66h4.81a.5.5,0,0,1,.39.13.57.57,0,0,1,.12.41v9.72a.57.57,0,0,1-.12.41.5.5,0,0,1-.39.13h-4.81a3.94,3.94,0,0,1-2.65-.75,2.89,2.89,0,0,1-.87-2.31v-4.68a2.89,2.89,0,0,1,.87-2.31A3.94,3.94,0,0,1,720.87,619.66Zm2.08,7.93v-5.1h-1.7a.66.66,0,0,0-.51.18.81.81,0,0,0-.16.56v3.65a.76.76,0,0,0,.16.54.66.66,0,0,0,.51.17Z"/><path class="cls-3" d="M715.25,619.66a.54.54,0,0,1,.4.13.57.57,0,0,1,.12.41V622a.62.62,0,0,1-.12.42.58.58,0,0,1-.4.13h-1.41v5h1.41a.58.58,0,0,1,.4.13.59.59,0,0,1,.12.41v1.82a.57.57,0,0,1-.12.41.54.54,0,0,1-.4.13h-6.08a.5.5,0,0,1-.39-.13.57.57,0,0,1-.12-.41V628.1a.59.59,0,0,1,.12-.41.54.54,0,0,1,.39-.13h1.38v-5h-1.38a.54.54,0,0,1-.39-.13.62.62,0,0,1-.12-.42V620.2a.57.57,0,0,1,.12-.41.5.5,0,0,1,.39-.13Z"/><path class="cls-3" d="M699,619.66h4.5a4,4,0,0,1,2.65.75,2.89,2.89,0,0,1,.87,2.31v4.68a2.89,2.89,0,0,1-.87,2.31,4,4,0,0,1-2.65.75H700a.5.5,0,0,1-.39-.13.57.57,0,0,1-.12-.41V628.1a.59.59,0,0,1,.12-.41.54.54,0,0,1,.39-.13h3a1,1,0,0,0,.66-.18.74.74,0,0,0,.21-.57v-3.58a.81.81,0,0,0-.16-.56.63.63,0,0,0-.49-.18h-1.39v2.34a.62.62,0,0,1-.12.42.54.54,0,0,1-.39.13H699a.54.54,0,0,1-.39-.13.62.62,0,0,1-.12-.42V620.2a.57.57,0,0,1,.12-.41A.5.5,0,0,1,699,619.66Z"/><path class="cls-3" d="M696.5,619.66a.54.54,0,0,1,.4.13.57.57,0,0,1,.12.41V622a.62.62,0,0,1-.12.42.58.58,0,0,1-.4.13h-1.41v5h1.41a.58.58,0,0,1,.4.13.59.59,0,0,1,.12.41v1.82a.57.57,0,0,1-.12.41.54.54,0,0,1-.4.13h-6.08a.5.5,0,0,1-.39-.13.57.57,0,0,1-.12-.41V628.1a.59.59,0,0,1,.12-.41.54.54,0,0,1,.39-.13h1.38v-5h-1.38a.54.54,0,0,1-.39-.13.62.62,0,0,1-.12-.42V620.2a.57.57,0,0,1,.12-.41.5.5,0,0,1,.39-.13Z"/><path class="cls-3" d="M683.29,619.66h2.32a.5.5,0,0,1,.39.13.57.57,0,0,1,.12.41v7.36h2.1a.54.54,0,0,1,.39.13.59.59,0,0,1,.12.41v1.82a.57.57,0,0,1-.12.41.5.5,0,0,1-.39.13h-7.54a.5.5,0,0,1-.39-.13.57.57,0,0,1-.12-.41V628.1a.59.59,0,0,1,.12-.41.54.54,0,0,1,.39-.13h2.1V620.2a.57.57,0,0,1,.12-.41A.5.5,0,0,1,683.29,619.66Z"/><path class="cls-3" d="M676.44,620.2a.57.57,0,0,1,.12-.41.5.5,0,0,1,.39-.13h2.1a.52.52,0,0,1,.4.13.57.57,0,0,1,.12.41v4a4.82,4.82,0,0,1-.14,1,12.37,12.37,0,0,1-.42,1.36l-1.24,3.4a.73.73,0,0,1-.27.38.81.81,0,0,1-.46.12H673.2a.79.79,0,0,1-.45-.12.73.73,0,0,1-.27-.38l-1.24-3.4a12.37,12.37,0,0,1-.42-1.36,4.82,4.82,0,0,1-.14-1v-4a.53.53,0,0,1,.13-.41.5.5,0,0,1,.39-.13h2.16a.59.59,0,0,1,.42.13.53.53,0,0,1,.13.41v2.1h2.53Zm-.82,7.11.68-2.28h-2.25l.68,2.28a.39.39,0,0,0,.12.19.2.2,0,0,0,.15.06h.35a.2.2,0,0,0,.15-.06A.39.39,0,0,0,675.62,627.31Z"/><path class="cls-3" d="M661.15,619.66h7.26a.51.51,0,0,1,.4.13.57.57,0,0,1,.12.41v9.72a.57.57,0,0,1-.12.41.51.51,0,0,1-.4.13H666.2a.5.5,0,0,1-.39-.13.57.57,0,0,1-.12-.41v-7.43h-2v2.43a.6.6,0,0,1-.12.42.54.54,0,0,1-.39.12h-2.07a.55.55,0,0,1-.4-.12.6.6,0,0,1-.12-.42V620.2a.57.57,0,0,1,.12-.41A.51.51,0,0,1,661.15,619.66Z"/></g><path class="cls-3" d="M504.32,460.34H502.1a.5.5,0,0,1-.39-.13.57.57,0,0,1-.12-.41v-9.72a.57.57,0,0,1,.12-.41.5.5,0,0,1,.39-.13h6.37a.5.5,0,0,1,.39.13.57.57,0,0,1,.13.41v1.78a.62.62,0,0,1-.13.42.54.54,0,0,1-.39.12h-3.64V454h2.48a.55.55,0,0,1,.4.13.59.59,0,0,1,.12.41v1.8a.6.6,0,0,1-.12.42.55.55,0,0,1-.4.12h-2.48v3a.57.57,0,0,1-.12.41A.5.5,0,0,1,504.32,460.34Z"/><path class="cls-3" d="M513.06,460.34h-2.13a.5.5,0,0,1-.39-.13.53.53,0,0,1-.13-.41v-9.72a.53.53,0,0,1,.13-.41.5.5,0,0,1,.39-.13h2.3a.6.6,0,0,1,.37.11.75.75,0,0,1,.28.34l1.29,2.45.12.19a.17.17,0,0,0,.14.06h.12a.17.17,0,0,0,.14-.06l.12-.19,1.27-2.45a.91.91,0,0,1,.28-.34.66.66,0,0,1,.38-.11h2.31a.54.54,0,0,1,.4.13.57.57,0,0,1,.12.41v9.72a.57.57,0,0,1-.12.41.54.54,0,0,1-.4.13h-2.2a.5.5,0,0,1-.39-.13.57.57,0,0,1-.12-.41v-5.28l-.84,1.63a.84.84,0,0,1-.31.37.79.79,0,0,1-.45.11h-.57a.79.79,0,0,1-.45-.11.84.84,0,0,1-.31-.37l-.84-1.63v5.28a.57.57,0,0,1-.12.41A.5.5,0,0,1,513.06,460.34Z"/><path class="cls-3" d="M531.08,460.34h-4.82a.5.5,0,0,1-.39-.13.57.57,0,0,1-.12-.41v-9.72a.57.57,0,0,1,.12-.41.5.5,0,0,1,.39-.13h4.82a4,4,0,0,1,2.65.75,2.92,2.92,0,0,1,.86,2.31v4.68a2.92,2.92,0,0,1-.86,2.31A4,4,0,0,1,531.08,460.34ZM529,452.4v5.1h1.7a.66.66,0,0,0,.51-.18.77.77,0,0,0,.16-.55v-3.65a.76.76,0,0,0-.16-.54.66.66,0,0,0-.51-.18Z"/><path class="cls-3" d="M536.69,460.34a.5.5,0,0,1-.39-.13.57.57,0,0,1-.13-.41V458a.61.61,0,0,1,.13-.41.54.54,0,0,1,.39-.13h1.41v-5h-1.41a.54.54,0,0,1-.39-.13.61.61,0,0,1-.13-.41v-1.82a.57.57,0,0,1,.13-.41.5.5,0,0,1,.39-.13h6.08a.54.54,0,0,1,.4.13.57.57,0,0,1,.12.41v1.82a.61.61,0,0,1-.12.41.58.58,0,0,1-.4.13h-1.38v5h1.38a.58.58,0,0,1,.4.13.61.61,0,0,1,.12.41v1.79a.57.57,0,0,1-.12.41.54.54,0,0,1-.4.13Z"/><path class="cls-3" d="M552.9,460.34h-4.5a4,4,0,0,1-2.65-.75,2.88,2.88,0,0,1-.86-2.31V452.6a2.88,2.88,0,0,1,.86-2.31,4,4,0,0,1,2.65-.75H552a.5.5,0,0,1,.39.13.57.57,0,0,1,.12.41v1.82a.61.61,0,0,1-.12.41.54.54,0,0,1-.39.13h-3a1,1,0,0,0-.66.18.74.74,0,0,0-.21.57v3.58a.77.77,0,0,0,.16.55.64.64,0,0,0,.49.18h1.39v-2.33a.62.62,0,0,1,.12-.42.54.54,0,0,1,.39-.13h2.22a.54.54,0,0,1,.39.13.62.62,0,0,1,.12.42v4.63a.57.57,0,0,1-.12.41A.5.5,0,0,1,552.9,460.34Z"/><path class="cls-3" d="M555.44,460.34a.5.5,0,0,1-.39-.13.53.53,0,0,1-.13-.41V458a.56.56,0,0,1,.13-.41.54.54,0,0,1,.39-.13h1.41v-5h-1.41a.54.54,0,0,1-.39-.13.56.56,0,0,1-.13-.41v-1.82a.53.53,0,0,1,.13-.41.5.5,0,0,1,.39-.13h6.08a.54.54,0,0,1,.4.13.57.57,0,0,1,.12.41v1.82a.61.61,0,0,1-.12.41.58.58,0,0,1-.4.13h-1.38v5h1.38a.58.58,0,0,1,.4.13.61.61,0,0,1,.12.41v1.79a.57.57,0,0,1-.12.41.54.54,0,0,1-.4.13Z"/><path class="cls-3" d="M568.65,460.34h-2.32a.5.5,0,0,1-.39-.13.57.57,0,0,1-.12-.41v-7.36h-2.1a.54.54,0,0,1-.39-.13.61.61,0,0,1-.12-.41v-1.82a.57.57,0,0,1,.12-.41.5.5,0,0,1,.39-.13h7.54a.5.5,0,0,1,.39.13.57.57,0,0,1,.13.41v1.82a.61.61,0,0,1-.13.41.54.54,0,0,1-.39.13h-2.1v7.36a.57.57,0,0,1-.12.41A.5.5,0,0,1,568.65,460.34Z"/><path class="cls-3" d="M575.5,459.8a.57.57,0,0,1-.12.41.5.5,0,0,1-.39.13h-2.1a.5.5,0,0,1-.39-.13.57.57,0,0,1-.12-.41v-4a4.68,4.68,0,0,1,.13-1,12.37,12.37,0,0,1,.42-1.36l1.24-3.41a.71.71,0,0,1,.27-.37.81.81,0,0,1,.46-.12h3.84a.79.79,0,0,1,.45.12.71.71,0,0,1,.27.37l1.24,3.41a12.37,12.37,0,0,1,.42,1.36,4.75,4.75,0,0,1,.14,1v4a.57.57,0,0,1-.12.41.54.54,0,0,1-.4.13h-2.15a.57.57,0,0,1-.42-.13.53.53,0,0,1-.14-.41v-2.1H575.5Zm.82-7.11-.67,2.28h2.24l-.67-2.28a.63.63,0,0,0-.13-.2.25.25,0,0,0-.15-.05h-.35a.25.25,0,0,0-.15.05A.48.48,0,0,0,576.32,452.69Z"/><path class="cls-3" d="M590.8,460.34h-7.27a.54.54,0,0,1-.4-.13.57.57,0,0,1-.12-.41v-9.72a.57.57,0,0,1,.12-.41.54.54,0,0,1,.4-.13h2.21a.5.5,0,0,1,.39.13.57.57,0,0,1,.12.41v7.42h2v-2.43a.59.59,0,0,1,.12-.41.55.55,0,0,1,.4-.13h2.07a.54.54,0,0,1,.39.13.59.59,0,0,1,.12.41v4.73a.57.57,0,0,1-.12.41A.5.5,0,0,1,590.8,460.34Z"/><path class="cls-3" d="M588.1,619.66h2.21a.5.5,0,0,1,.39.13.57.57,0,0,1,.12.41v9.72a.57.57,0,0,1-.12.41.5.5,0,0,1-.39.13h-6.37a.5.5,0,0,1-.39-.13.57.57,0,0,1-.12-.41v-1.79a.61.61,0,0,1,.12-.41.54.54,0,0,1,.39-.13h3.64V626H585.1a.54.54,0,0,1-.39-.13.57.57,0,0,1-.13-.42V623.7a.56.56,0,0,1,.13-.42.54.54,0,0,1,.39-.13h2.48V620.2a.57.57,0,0,1,.12-.41A.54.54,0,0,1,588.1,619.66Z"/><path class="cls-3" d="M579.36,619.66h2.12a.51.51,0,0,1,.4.13.57.57,0,0,1,.12.41v9.72a.57.57,0,0,1-.12.41.51.51,0,0,1-.4.13h-2.29a.63.63,0,0,1-.38-.11.91.91,0,0,1-.28-.34l-1.29-2.45a.62.62,0,0,0-.12-.19.16.16,0,0,0-.13-.06h-.13a.18.18,0,0,0-.14.06,1.67,1.67,0,0,0-.12.19L575.33,630a.91.91,0,0,1-.28.34.63.63,0,0,1-.38.11h-2.31a.5.5,0,0,1-.39-.13.57.57,0,0,1-.12-.41V620.2a.57.57,0,0,1,.12-.41.5.5,0,0,1,.39-.13h2.2a.5.5,0,0,1,.39.13.57.57,0,0,1,.12.41v5.28l.85-1.64a.74.74,0,0,1,.75-.47h.57a.79.79,0,0,1,.45.11.8.8,0,0,1,.31.36l.84,1.64V620.2a.57.57,0,0,1,.12-.41A.52.52,0,0,1,579.36,619.66Z"/><path class="cls-3" d="M561.34,619.66h4.81a.5.5,0,0,1,.39.13.57.57,0,0,1,.12.41v9.72a.57.57,0,0,1-.12.41.5.5,0,0,1-.39.13h-4.81a4,4,0,0,1-2.65-.75,2.89,2.89,0,0,1-.87-2.31v-4.68a2.89,2.89,0,0,1,.87-2.31A4,4,0,0,1,561.34,619.66Zm2.08,7.93v-5.1h-1.7a.66.66,0,0,0-.51.18.87.87,0,0,0-.16.56v3.65a.81.81,0,0,0,.16.54.66.66,0,0,0,.51.17Z"/><path class="cls-3" d="M555.72,619.66a.52.52,0,0,1,.4.13.57.57,0,0,1,.12.41V622a.62.62,0,0,1-.12.42.56.56,0,0,1-.4.13h-1.41v5h1.41a.56.56,0,0,1,.4.13.59.59,0,0,1,.12.41v1.82a.57.57,0,0,1-.12.41.52.52,0,0,1-.4.13h-6.08a.5.5,0,0,1-.39-.13.57.57,0,0,1-.12-.41V628.1a.59.59,0,0,1,.12-.41.54.54,0,0,1,.39-.13H551v-5h-1.39a.54.54,0,0,1-.39-.13.62.62,0,0,1-.12-.42V620.2a.57.57,0,0,1,.12-.41.5.5,0,0,1,.39-.13Z"/><path class="cls-3" d="M539.52,619.66H544a4,4,0,0,1,2.65.75,2.89,2.89,0,0,1,.87,2.31v4.68a2.89,2.89,0,0,1-.87,2.31,4,4,0,0,1-2.65.75h-3.57a.5.5,0,0,1-.39-.13.57.57,0,0,1-.12-.41V628.1a.59.59,0,0,1,.12-.41.54.54,0,0,1,.39-.13h3a1,1,0,0,0,.66-.18.74.74,0,0,0,.22-.57v-3.58a.81.81,0,0,0-.17-.56.63.63,0,0,0-.49-.18h-1.39v2.34a.62.62,0,0,1-.12.42.54.54,0,0,1-.39.13h-2.21a.55.55,0,0,1-.4-.13.62.62,0,0,1-.12-.42V620.2a.57.57,0,0,1,.12-.41A.51.51,0,0,1,539.52,619.66Z"/><path class="cls-3" d="M537,619.66a.52.52,0,0,1,.4.13.57.57,0,0,1,.12.41V622a.62.62,0,0,1-.12.42.56.56,0,0,1-.4.13h-1.41v5H537a.56.56,0,0,1,.4.13.59.59,0,0,1,.12.41v1.82a.57.57,0,0,1-.12.41.52.52,0,0,1-.4.13h-6.08a.5.5,0,0,1-.39-.13.57.57,0,0,1-.12-.41V628.1a.59.59,0,0,1,.12-.41.54.54,0,0,1,.39-.13h1.39v-5h-1.39a.54.54,0,0,1-.39-.13.62.62,0,0,1-.12-.42V620.2a.57.57,0,0,1,.12-.41.5.5,0,0,1,.39-.13Z"/><path class="cls-3" d="M523.76,619.66h2.32a.5.5,0,0,1,.39.13.57.57,0,0,1,.12.41v7.36h2.1a.54.54,0,0,1,.39.13.59.59,0,0,1,.13.41v1.82a.57.57,0,0,1-.13.41.5.5,0,0,1-.39.13h-7.54a.5.5,0,0,1-.39-.13.57.57,0,0,1-.12-.41V628.1a.59.59,0,0,1,.12-.41.54.54,0,0,1,.39-.13h2.1V620.2a.57.57,0,0,1,.12-.41A.5.5,0,0,1,523.76,619.66Z"/><path class="cls-3" d="M516.91,620.2a.57.57,0,0,1,.12-.41.5.5,0,0,1,.39-.13h2.1a.52.52,0,0,1,.4.13.57.57,0,0,1,.12.41v4a4.82,4.82,0,0,1-.14,1,12.37,12.37,0,0,1-.42,1.36l-1.24,3.4a.73.73,0,0,1-.27.38.81.81,0,0,1-.46.12h-3.84a.79.79,0,0,1-.45-.12A.73.73,0,0,1,513,630l-1.24-3.4a12.37,12.37,0,0,1-.42-1.36,4.75,4.75,0,0,1-.13-1v-4a.57.57,0,0,1,.12-.41.5.5,0,0,1,.39-.13h2.16a.57.57,0,0,1,.42.13.53.53,0,0,1,.13.41v2.1h2.53Zm-.81,7.11.67-2.28h-2.24l.67,2.28a.39.39,0,0,0,.12.19.2.2,0,0,0,.15.06h.35a.2.2,0,0,0,.15-.06A.48.48,0,0,0,516.1,627.31Z"/><path class="cls-3" d="M501.62,619.66h7.26a.51.51,0,0,1,.4.13.57.57,0,0,1,.12.41v9.72a.57.57,0,0,1-.12.41.51.51,0,0,1-.4.13h-2.21a.5.5,0,0,1-.39-.13.57.57,0,0,1-.12-.41v-7.43h-2v2.43a.6.6,0,0,1-.12.42.54.54,0,0,1-.39.12h-2.07a.56.56,0,0,1-.4-.12.6.6,0,0,1-.12-.42V620.2a.57.57,0,0,1,.12-.41A.52.52,0,0,1,501.62,619.66Z"/><path class="cls-3" d="M118.46,581.89v2.21a.51.51,0,0,1-.13.4.57.57,0,0,1-.41.12H108.2a.57.57,0,0,1-.41-.12.51.51,0,0,1-.13-.4v-6.36a.51.51,0,0,1,.13-.4.57.57,0,0,1,.41-.12H110a.62.62,0,0,1,.42.12.55.55,0,0,1,.12.4v3.64h1.56v-2.49a.54.54,0,0,1,.13-.39.59.59,0,0,1,.41-.12h1.8a.62.62,0,0,1,.42.12.54.54,0,0,1,.12.39v2.49h3a.57.57,0,0,1,.41.12A.5.5,0,0,1,118.46,581.89Z"/><path class="cls-3" d="M118.46,573.15v2.13a.5.5,0,0,1-.13.39.57.57,0,0,1-.41.12H108.2a.57.57,0,0,1-.41-.12.5.5,0,0,1-.13-.39V573a.65.65,0,0,1,.1-.38,1,1,0,0,1,.35-.28l2.44-1.28.2-.12a.18.18,0,0,0,.06-.14v-.13a.16.16,0,0,0-.06-.13,1,1,0,0,0-.2-.13l-2.44-1.27a.92.92,0,0,1-.35-.27.65.65,0,0,1-.1-.38v-2.32a.5.5,0,0,1,.13-.39.57.57,0,0,1,.41-.12h9.72a.57.57,0,0,1,.41.12.5.5,0,0,1,.13.39v2.2a.52.52,0,0,1-.13.4.57.57,0,0,1-.41.12h-5.28l1.63.84a.83.83,0,0,1,.37.31.79.79,0,0,1,.11.45V571a.79.79,0,0,1-.11.45.82.82,0,0,1-.37.3l-1.63.85h5.28a.57.57,0,0,1,.41.12A.5.5,0,0,1,118.46,573.15Z"/><path class="cls-3" d="M118.46,555.13v4.81a.5.5,0,0,1-.13.39.53.53,0,0,1-.41.13H108.2a.53.53,0,0,1-.41-.13.5.5,0,0,1-.13-.39v-4.81a4,4,0,0,1,.75-2.65,2.88,2.88,0,0,1,2.31-.86h4.68a2.88,2.88,0,0,1,2.31.86A4,4,0,0,1,118.46,555.13Zm-7.94,2.08h5.1v-1.69a.66.66,0,0,0-.18-.51.79.79,0,0,0-.55-.17h-3.65a.74.74,0,0,0-.54.17.66.66,0,0,0-.18.51Z"/><path class="cls-3" d="M118.46,549.52a.5.5,0,0,1-.13.39.57.57,0,0,1-.41.12h-1.79a.59.59,0,0,1-.41-.12.54.54,0,0,1-.13-.39V548.1h-5v1.42a.54.54,0,0,1-.12.39.62.62,0,0,1-.42.12H108.2a.57.57,0,0,1-.41-.12.5.5,0,0,1-.13-.39v-6.09a.5.5,0,0,1,.13-.39.57.57,0,0,1,.41-.12H110a.62.62,0,0,1,.42.12.54.54,0,0,1,.12.39v1.39h5v-1.39a.54.54,0,0,1,.13-.39.59.59,0,0,1,.41-.12h1.79a.57.57,0,0,1,.41.12.5.5,0,0,1,.13.39Z"/><path class="cls-3" d="M118.46,533.31v4.5a4,4,0,0,1-.75,2.65,2.92,2.92,0,0,1-2.31.86h-4.68a2.92,2.92,0,0,1-2.31-.86,4,4,0,0,1-.75-2.65v-3.57a.5.5,0,0,1,.13-.39.53.53,0,0,1,.41-.13H110a.57.57,0,0,1,.42.13.54.54,0,0,1,.12.39v3a1,1,0,0,0,.19.65.69.69,0,0,0,.56.22h3.59a.84.84,0,0,0,.55-.16.65.65,0,0,0,.18-.5V536h-2.34a.59.59,0,0,1-.41-.12.58.58,0,0,1-.13-.4v-2.21a.54.54,0,0,1,.13-.39.59.59,0,0,1,.41-.12h4.64a.57.57,0,0,1,.41.12A.5.5,0,0,1,118.46,533.31Z"/><path class="cls-3" d="M118.46,530.77a.5.5,0,0,1-.13.39.57.57,0,0,1-.41.12h-1.79a.59.59,0,0,1-.41-.12.54.54,0,0,1-.13-.39v-1.42h-5v1.42a.54.54,0,0,1-.12.39.62.62,0,0,1-.42.12H108.2a.57.57,0,0,1-.41-.12.5.5,0,0,1-.13-.39v-6.09a.5.5,0,0,1,.13-.39.57.57,0,0,1,.41-.12H110a.62.62,0,0,1,.42.12.54.54,0,0,1,.12.39v1.39h5v-1.39a.54.54,0,0,1,.13-.39.59.59,0,0,1,.41-.12h1.79a.57.57,0,0,1,.41.12.5.5,0,0,1,.13.39Z"/><path class="cls-3" d="M118.46,517.56v2.31a.5.5,0,0,1-.13.39.53.53,0,0,1-.41.13h-7.37v2.09a.55.55,0,0,1-.12.4.62.62,0,0,1-.42.12H108.2a.57.57,0,0,1-.41-.12.51.51,0,0,1-.13-.4V515a.51.51,0,0,1,.13-.4.57.57,0,0,1,.41-.12H110a.62.62,0,0,1,.42.12.55.55,0,0,1,.12.4V517h7.37a.53.53,0,0,1,.41.13A.5.5,0,0,1,118.46,517.56Z"/><path class="cls-3" d="M117.92,510.7a.53.53,0,0,1,.41.13.5.5,0,0,1,.13.39v2.1a.5.5,0,0,1-.13.39.57.57,0,0,1-.41.12h-4a4.68,4.68,0,0,1-1-.13,12,12,0,0,1-1.36-.43L108.15,512a.64.64,0,0,1-.37-.26.84.84,0,0,1-.12-.47v-3.84a.79.79,0,0,1,.12-.45.69.69,0,0,1,.37-.26l3.41-1.24c.52-.19,1-.33,1.36-.43a4.68,4.68,0,0,1,1-.13h4a.57.57,0,0,1,.41.12.5.5,0,0,1,.13.39v2.16a.57.57,0,0,1-.13.42.53.53,0,0,1-.41.14h-2.1v2.52Zm-7.11-.81,2.28.67v-2.24l-2.28.67a.7.7,0,0,0-.2.12.2.2,0,0,0-.06.15v.36a.2.2,0,0,0,.06.15A.7.7,0,0,0,110.81,509.89Z"/><path class="cls-3" d="M118.46,495.41v7.27a.5.5,0,0,1-.13.39.57.57,0,0,1-.41.12H108.2a.57.57,0,0,1-.41-.12.5.5,0,0,1-.13-.39v-2.21a.51.51,0,0,1,.13-.4.57.57,0,0,1,.41-.12h7.42V498h-2.43a.59.59,0,0,1-.41-.13.54.54,0,0,1-.13-.39v-2.07a.54.54,0,0,1,.13-.39.59.59,0,0,1,.41-.12h4.73a.57.57,0,0,1,.41.12A.5.5,0,0,1,118.46,495.41Z"/><path class="cls-3" d="M961.54,498.11V495.9a.55.55,0,0,1,.13-.4.59.59,0,0,1,.41-.12h9.72a.62.62,0,0,1,.42.12.55.55,0,0,1,.12.4v6.36a.55.55,0,0,1-.12.4.62.62,0,0,1-.42.12H970a.57.57,0,0,1-.41-.12.51.51,0,0,1-.13-.4v-3.64h-1.56v2.49a.5.5,0,0,1-.13.39.57.57,0,0,1-.41.12h-1.8a.57.57,0,0,1-.41-.12.5.5,0,0,1-.13-.39v-2.49h-3a.59.59,0,0,1-.41-.12A.54.54,0,0,1,961.54,498.11Z"/><path class="cls-3" d="M961.54,506.85v-2.13a.54.54,0,0,1,.13-.39.59.59,0,0,1,.41-.12h9.72a.62.62,0,0,1,.42.12.54.54,0,0,1,.12.39V507a.65.65,0,0,1-.1.38,1,1,0,0,1-.35.28L969.45,509l-.2.12a.18.18,0,0,0-.06.14v.13a.16.16,0,0,0,.06.13.7.7,0,0,0,.2.12l2.44,1.28a.92.92,0,0,1,.35.27.65.65,0,0,1,.1.38v2.32a.54.54,0,0,1-.12.39.62.62,0,0,1-.42.12h-9.72a.59.59,0,0,1-.41-.12.54.54,0,0,1-.13-.39v-2.2a.56.56,0,0,1,.13-.4.59.59,0,0,1,.41-.12h5.28l-1.63-.84a1,1,0,0,1-.37-.31.88.88,0,0,1-.11-.45V509a.74.74,0,0,1,.48-.75l1.63-.85h-5.28a.59.59,0,0,1-.41-.12A.54.54,0,0,1,961.54,506.85Z"/><path class="cls-3" d="M961.54,524.87v-4.81a.54.54,0,0,1,.13-.39.55.55,0,0,1,.41-.13h9.72a.57.57,0,0,1,.42.13.54.54,0,0,1,.12.39v4.81a4,4,0,0,1-.75,2.65,2.88,2.88,0,0,1-2.31.86H964.6a2.88,2.88,0,0,1-2.31-.86A4,4,0,0,1,961.54,524.87Zm7.94-2.08h-5.1v1.69a.66.66,0,0,0,.18.51.79.79,0,0,0,.55.17h3.65a.79.79,0,0,0,.55-.17.7.7,0,0,0,.17-.51Z"/><path class="cls-3" d="M961.54,530.48a.54.54,0,0,1,.13-.39.59.59,0,0,1,.41-.12h1.79a.57.57,0,0,1,.41.12.5.5,0,0,1,.13.39v1.42h5v-1.42a.5.5,0,0,1,.13-.39A.57.57,0,0,1,970,530h1.81a.62.62,0,0,1,.42.12.54.54,0,0,1,.12.39v6.09a.54.54,0,0,1-.12.39.62.62,0,0,1-.42.12H970a.57.57,0,0,1-.41-.12.5.5,0,0,1-.13-.39v-1.39h-5v1.39a.5.5,0,0,1-.13.39.57.57,0,0,1-.41.12h-1.79a.59.59,0,0,1-.41-.12.54.54,0,0,1-.13-.39Z"/><path class="cls-3" d="M961.54,546.69v-4.5a4,4,0,0,1,.75-2.65,2.92,2.92,0,0,1,2.31-.86h4.68a2.92,2.92,0,0,1,2.31.86,4,4,0,0,1,.75,2.65v3.57a.54.54,0,0,1-.12.39.57.57,0,0,1-.42.13H970a.53.53,0,0,1-.41-.13.5.5,0,0,1-.13-.39v-3a1,1,0,0,0-.19-.66.7.7,0,0,0-.56-.21h-3.59a.84.84,0,0,0-.55.16.65.65,0,0,0-.18.5V544h2.34a.57.57,0,0,1,.41.12.54.54,0,0,1,.13.4v2.21a.5.5,0,0,1-.13.39.57.57,0,0,1-.41.12h-4.64a.59.59,0,0,1-.41-.12A.54.54,0,0,1,961.54,546.69Z"/><path class="cls-3" d="M961.54,549.23a.54.54,0,0,1,.13-.39.59.59,0,0,1,.41-.12h1.79a.57.57,0,0,1,.41.12.5.5,0,0,1,.13.39v1.42h5v-1.42a.5.5,0,0,1,.13-.39.57.57,0,0,1,.41-.12h1.81a.62.62,0,0,1,.42.12.54.54,0,0,1,.12.39v6.09a.54.54,0,0,1-.12.39.62.62,0,0,1-.42.12H970a.57.57,0,0,1-.41-.12.5.5,0,0,1-.13-.39v-1.39h-5v1.39a.5.5,0,0,1-.13.39.57.57,0,0,1-.41.12h-1.79a.59.59,0,0,1-.41-.12.54.54,0,0,1-.13-.39Z"/><path class="cls-3" d="M961.54,562.44v-2.31a.54.54,0,0,1,.13-.39.55.55,0,0,1,.41-.13h7.37v-2.1a.5.5,0,0,1,.13-.39A.57.57,0,0,1,970,557h1.81a.62.62,0,0,1,.42.12.54.54,0,0,1,.12.39v7.54a.55.55,0,0,1-.12.4.62.62,0,0,1-.42.12H970a.57.57,0,0,1-.41-.12.51.51,0,0,1-.13-.4V563h-7.37a.55.55,0,0,1-.41-.13A.54.54,0,0,1,961.54,562.44Z"/><path class="cls-3" d="M962.08,569.3a.59.59,0,0,1-.41-.13.54.54,0,0,1-.13-.39v-2.1a.54.54,0,0,1,.13-.39.59.59,0,0,1,.41-.12h4a4.68,4.68,0,0,1,1,.13,12,12,0,0,1,1.36.43l3.41,1.24a.64.64,0,0,1,.37.26.84.84,0,0,1,.12.47v3.84a.79.79,0,0,1-.12.45.69.69,0,0,1-.37.26l-3.41,1.24c-.52.19-1,.33-1.36.43a5.35,5.35,0,0,1-1,.13h-4a.59.59,0,0,1-.41-.12.54.54,0,0,1-.13-.39v-2.16a.62.62,0,0,1,.13-.42.55.55,0,0,1,.41-.14h2.1V569.3Zm7.11.81-2.28-.67v2.24l2.28-.67a.7.7,0,0,0,.2-.12.24.24,0,0,0,.06-.15v-.36a.2.2,0,0,0-.06-.15A.7.7,0,0,0,969.19,570.11Z"/><path class="cls-3" d="M961.54,584.59v-7.27a.54.54,0,0,1,.13-.39.59.59,0,0,1,.41-.12h9.72a.62.62,0,0,1,.42.12.54.54,0,0,1,.12.39v2.21a.56.56,0,0,1-.12.4.62.62,0,0,1-.42.12h-7.42v2h2.43a.53.53,0,0,1,.41.13.5.5,0,0,1,.13.39v2.07a.5.5,0,0,1-.13.39.57.57,0,0,1-.41.12h-4.73a.59.59,0,0,1-.41-.12A.54.54,0,0,1,961.54,584.59Z"/></svg>