<svg id="Layer_1" data-name="Layer 1" xmlns="http://www.w3.org/2000/svg" viewBox="0 0 1080 1080"><path d="M601.44,568.35c1.11-3.75,2.23-7.49,3.32-11.24q22.26-76.25,44.51-152.5,5.63-19.23,11.18-38.48c.41-1.45,1-2,2.61-2,6.61.11,13.22,0,19.83,0h1.91v237.2a17.18,17.18,0,0,1,12.74,7,16.84,16.84,0,1,1-30.4,10.06l-.36-203.08a5.25,5.25,0,0,0-.3-2.11q-32.87,123.72-65.74,247.44l-.4.07L541.08,437.46c-.46,1-.76,1.55-1,2.15Q523,483.65,506,527.72a2.45,2.45,0,0,1-2.6,1.93q-24.15.76-48.3,1.67-27.25,1-54.5,2c-11,.39-22.06.75-33.12.89l10.41-1.46,30-4,27.5-3.74,29.78-4c9.22-1.25,18.44-2.56,27.68-3.72,2-.25,3-.84,3.74-3q23-70.65,46.25-141.25a3.58,3.58,0,0,1,.89-1.57Q572.35,469.87,601,568.35Z"/><path d="M486.22,553.71h20.44v2q0,33.29,0,66.57a3.74,3.74,0,0,1-1.34,3c-15.43,14.23-33.49,23.69-53.51,29.59a171.89,171.89,0,0,1-55.23,6.69c-26.85-1-52.19-7.53-75.34-21.42-33.69-20.22-55.3-49.6-65.34-87.49a156.09,156.09,0,0,1-4.57-51.56c2-27.24,10.17-52.42,26-74.85,19.44-27.61,45.75-45.68,78-55.32a170.21,170.21,0,0,1,58.41-6.48c18.69,1,36.77,4.74,54,12.16a122.81,122.81,0,0,1,38.93,26.24c.33.33.66.67,1,1a2.35,2.35,0,0,1,.19.5l-13.07,14c-3.14-2.74-6.12-5.5-9.26-8.06-16-13.05-34.29-20.88-54.58-24.29a150.83,150.83,0,0,0-39.51-1.63c-44.08,4.25-78.88,23.95-102,62.48-8.2,13.69-13.09,28.64-15.54,44.4a138.48,138.48,0,0,0-1,35.63c5.33,52.18,39.52,93.66,89,108.87,17.23,5.3,34.85,6.9,52.79,5.79,17.42-1.08,34.13-4.84,49.88-12.51A115.76,115.76,0,0,0,485,616.18a3,3,0,0,0,1.25-2.68q0-28.77,0-57.55Z"/><path d="M463.43,559.22h14.89v1.69c0,9.68,0,19.36,0,29a3.85,3.85,0,0,1-1,2.41c-8.28,8.46-18.3,14.18-29.39,18.06a145.18,145.18,0,0,1-15.44,4.7,114,114,0,0,1-15,2.2c-5.22.49-10.47.55-15.72.76a72.07,72.07,0,0,1-18.41-1.86,142.58,142.58,0,0,1-17.13-4.44c-13.9-4.93-26.62-11.88-37.54-22.09-16.65-15.57-26-34.87-29.86-57a110.68,110.68,0,0,1-1.71-19,94.32,94.32,0,0,1,2.55-23.65c1.39-5.36,2.62-10.8,4.5-16a93.26,93.26,0,0,1,6.64-14.56A99,99,0,0,1,341,426.21a103.89,103.89,0,0,1,25.35-12.62A101.42,101.42,0,0,1,378.81,410a120,120,0,0,1,33.92-2.36c6.25.53,12.49,1.31,18.69,2.3a57.51,57.51,0,0,1,9.48,2.63,121.93,121.93,0,0,1,11.78,4.47,61.85,61.85,0,0,1,10.23,5.69c5.15,3.67,10,7.75,15,11.68a12,12,0,0,1,1.3,1.43l-9.38,10.24c-3.26-2.72-6.31-5.49-9.59-8-10.25-7.75-21.89-12.38-34.44-14.72a109.13,109.13,0,0,0-47.5,1.64,63.52,63.52,0,0,0-15.54,5.84c-4.45,2.48-9.09,4.71-13.23,7.65a100.27,100.27,0,0,0-11.36,9.88,72.68,72.68,0,0,0-8.25,9.21,86.26,86.26,0,0,0-12.18,23.84c-3.34,10-5.61,20.19-5.49,30.77a102.62,102.62,0,0,0,8.26,39,62.41,62.41,0,0,0,8.87,15.49c2.82,3.45,5.55,7,8.69,10.14a91,91,0,0,0,11.31,9.93,105.83,105.83,0,0,0,13.24,7.64A78.14,78.14,0,0,0,373.38,599c6.22,2.09,12.56,3.89,19.18,4.23,6.11.32,12.24.79,18.35.67a88.23,88.23,0,0,0,17.32-2,78.74,78.74,0,0,0,19.37-6.55c4.76-2.46,9.18-5.58,13.73-8.43a4.34,4.34,0,0,0,2.16-4.23c-.16-7.14-.06-14.28-.06-21.42Z"/><path d="M692.43,369.51H799.81v14H692.43Z"/><path d="M800.62,445.38v13.9H693.13v-13.9Z"/><path d="M692.36,601.31V587.38h107.5v13.93Z"/><path d="M799.86,535.14H692.41v-14H799.86Z"/><path d="M692.36,421.4V407.47h71.73V421.4Z"/><path d="M692.33,567.32V553.43h71v13.89Z"/><path d="M693.07,497.19V483.26h71v13.93Z"/><path d="M416.08,715.4h-2.54V701.78l-.34-.12-3.58,5.94q-1.23,2-2.43,4.11c-1.2,2-1.77,2-3-.05-2-3.28-3.93-6.56-6.18-10.33v14h-2.7V695.82a2.32,2.32,0,0,1,3.13,1.25c2.29,4.1,4.76,8.09,7.33,12.43L409,704c1.31-2.24,2.7-4.43,3.9-6.73.7-1.36,1.56-2,3.2-1.45Z"/><path d="M753,715.39h-2.54V701.77l-.38-.1c-2,3.3-4,6.61-5.93,9.92-1.27,2.13-1.83,2.15-3.1,0-2-3.27-3.92-6.54-6.19-9.76v13.53h-2.61V695.82a2.27,2.27,0,0,1,3.1,1.28c2,3.72,4.29,7.33,6.45,11,.23.38.5.75.89,1.35l5.9-10a17,17,0,0,0,1.22-2.15c.59-1.47,1.59-1.93,3.19-1.41Z"/><path d="M591,715.43H588.3V695.84c1.52-.57,2.46,0,3.41,1.26,3.36,4.3,6.85,8.52,10.57,13.12V695.79h2.77v19.53a2.7,2.7,0,0,1-3.27-1.11c-3.42-4.41-7-8.71-10.77-13.4Z"/><path d="M519.75,701.27V715.4h-2.67V695.81a2.78,2.78,0,0,1,3.37,1.2c3.37,4.33,6.87,8.56,10.61,13.19V695.76h2.76v19.57a2.71,2.71,0,0,1-3.28-1.18c-3.4-4.38-6.94-8.65-10.42-13Z"/><path d="M712.11,700.76v14.59h-2.7V695.84c1.48-.52,2.45,0,3.41,1.21,3.37,4.32,6.86,8.54,10.62,13.19v-14.5h2.73v19.59a2.74,2.74,0,0,1-3.32-1.22C719.46,709.74,715.93,705.48,712.11,700.76Z"/><path d="M791.16,709.7V695.79h2.69v19.53a2.68,2.68,0,0,1-3.26-1.11c-3.43-4.41-7-8.71-10.78-13.4v14.56H777.1V695.84c1.52-.57,2.46,0,3.41,1.26,3.36,4.3,6.85,8.51,10.28,12.76Z"/><path d="M539.38,715.42v-19.5c3.72,0,7.41-.41,11,.09,5.19.74,8.25,5,8,10a9.52,9.52,0,0,1-8.93,9.32C546.14,715.64,542.83,715.42,539.38,715.42Zm2.76-2.42c2.13,0,4.07.1,6,0,4.23-.26,6.93-2.76,7.39-6.71a6.86,6.86,0,0,0-5.14-7.65,65.12,65.12,0,0,0-8.25-.67Z"/><path d="M657.31,708.94l2.21,3.21c.7,1,1.39,2,2.17,3.13-1.94.54-3.34.21-4.18-1.57,0-.1-.16-.18-.2-.29-1.68-4.12-4.94-4.6-8.95-3.73v5.71h-2.7V695.45a108.47,108.47,0,0,1,11.29.82c2.6.44,4.19,2.55,4.47,5.31.28,2.92-.52,5.37-3.29,6.86C657.88,708.58,657.63,708.74,657.31,708.94Zm-8.88-1.79a65,65,0,0,0,7.13-.5c2.14-.37,3.12-1.92,3.1-4.1s-1.06-3.71-3.18-4c-2.29-.37-4.64-.35-7.05-.51Z"/><path d="M320.8,709c1.47,2.14,2.9,4.2,4.36,6.34-1.87.48-3.07.14-4.15-1.47-3.11-4.65-3.19-4.59-8.73-4.33a3.06,3.06,0,0,0-.37.09v5.78h-2.72V695.82a94.89,94.89,0,0,1,10,.08,6.24,6.24,0,0,1,5.7,5.23C325.45,704.53,324.27,706.87,320.8,709Zm-8.88-1.8a64.85,64.85,0,0,0,7.12-.5c2.15-.36,3.12-1.92,3.11-4.09s-1.06-3.72-3.18-4.06c-2.29-.37-4.64-.35-7.05-.51Z"/><path d="M639.73,704.12v2.41h-9.68V713h11.19v2.42h-14V695.77h13.62V698H630.07v6.09Z"/><path d="M372.2,713.06h11.19v2.29h-14v-19.6h13.67v2.32H372.17v6h9.64v2.41H372.2Z"/><path d="M583.91,713v2.39H569.85V695.79h13.66v2.32H572.64v6h9.69v2.41h-9.65V713Z"/><path d="M758.63,715.39V695.76h13.71V698H761.48v6.1h9.66v2.41h-9.68V713h11.21v2.42Z"/><path d="M304.34,698.57,303,699.88a28.86,28.86,0,0,0-4.23-1.84,7.69,7.69,0,0,0-8.64,3.6,7.87,7.87,0,0,0,10.44,10.91,2.24,2.24,0,0,0,1-1.57c.13-1.75.05-3.51.05-5.39h2.7c0,2.45,0,4.85,0,7.25a1.82,1.82,0,0,1-.75,1.1c-3.5,2.7-10.12,2.49-13.58-.4a10.74,10.74,0,0,1-2.38-13C290.67,694.54,300.23,693.36,304.34,698.57Z"/><path d="M346.94,715.29c-2.17.63-3.47,0-3.92-2.1-.48-2.3-1.89-3-4.19-2.72a41.24,41.24,0,0,1-6.19,0,1.44,1.44,0,0,0-1.68,1.12c-.19.61-.58,1.17-.73,1.79-.51,2.06-1.8,2.49-3.78,1.86q3.24-7.28,6.48-14.49c.53-1.18,1.1-2.35,1.59-3.55.4-1,.79-1.65,2.11-1.64a2.09,2.09,0,0,1,2.16,1.57C341.45,703.18,344.18,709.17,346.94,715.29Zm-10.28-16.67-4.11,9.44h8.21Z"/><path d="M514.13,715.26c-2.28.74-3.48-.07-3.92-2.1-.48-2.23-1.82-2.92-4-2.69a45.64,45.64,0,0,1-6.19,0c-.94,0-1.57.16-1.83,1.16-.15.56-.53,1.06-.68,1.62-.52,1.92-1.63,2.75-3.8,2,1-2.23,2-4.51,3-6.78,1.76-3.92,3.49-7.85,5.32-11.74a2.11,2.11,0,0,1,1.51-1c.69,0,1.81.24,2,.71C508.47,702.65,511.27,708.93,514.13,715.26Zm-10.28-16.64c-1.49,3.43-2.76,6.35-4.11,9.43H508Z"/><path d="M698.25,715.3c-1.91.53-3.29.24-3.77-1.88a4.34,4.34,0,0,0-.79-1.76,2.78,2.78,0,0,0-1.64-1.09c-3-.11-6-.05-9.17-.05a18.74,18.74,0,0,0-1.23,2.84c-.55,2-1.81,2.51-3.83,1.95l2.74-6.09c1.82-4.09,3.68-8.16,5.45-12.27a2,2,0,0,1,2.13-1.34,1.85,1.85,0,0,1,2,1.33c2.5,5.65,5,11.27,7.58,16.91C697.89,714.32,698.06,714.81,698.25,715.3Zm-14.31-7.25h8.21c-1.36-3.11-2.64-6-4.11-9.42C686.56,702,685.29,704.94,683.94,708.05Z"/><path d="M424.45,695.76c0,4-.06,8,0,11.92.08,4.37,3.29,6.63,7.46,5.37,2.28-.69,3.5-2.66,3.53-5.9,0-3.76,0-7.53,0-11.39h2.79c0,1.83,0,3.7,0,5.56a64.24,64.24,0,0,1-.31,8.1c-.7,4.55-3.71,6.59-8.83,6.4-4.16-.15-7.11-2.78-7.36-7.09s-.05-8.58-.05-13Z"/><path d="M813.75,713.29c.34-.7.64-1.33.74-1.55,2.54.58,4.89,1.14,7.25,1.63a3.48,3.48,0,0,0,1.39-.12c1.49-.35,2.93-.84,3.06-2.67s-1.26-2.5-2.72-3c-1.85-.59-3.75-1-5.56-1.68-2.69-1-3.87-2.77-3.73-5.15a5.42,5.42,0,0,1,4.25-5A12.23,12.23,0,0,1,828.2,697c-.31.79-.57,1.48-.72,1.87-2.2-.41-4.18-.85-6.18-1.11a5,5,0,0,0-2.23.41c-1.27.46-2.28,1.45-2,2.76a3.81,3.81,0,0,0,1.91,2.43c2.2.93,4.62,1.35,6.85,2.24a4.78,4.78,0,0,1,2.42,7.27,6,6,0,0,1-2,1.87C822.71,716.7,817,716,813.75,713.29Z"/><path d="M456.29,697c-.34.86-.6,1.5-.75,1.87-2.22-.41-4.26-.86-6.32-1.1a3.38,3.38,0,0,0-2.34.57,4.41,4.41,0,0,0-1.72,2.58,3.43,3.43,0,0,0,1.69,2.36,16.73,16.73,0,0,0,3.66,1.21,34.29,34.29,0,0,1,3.51,1.15,4.56,4.56,0,0,1,3.05,4.35,4.78,4.78,0,0,1-2.93,4.81c-4.29,1.85-8.35,1.2-12.31-1.28.18-.5.29-.88.44-1.24a5,5,0,0,1,.29-.57c2.51.58,4.85,1.14,7.21,1.65a2.81,2.81,0,0,0,1.22-.07c1.51-.38,3.11-.77,3.26-2.69s-1.33-2.57-2.85-3c-1.85-.58-3.75-1-5.56-1.69-2.57-1-3.72-2.74-3.6-5.07a5.37,5.37,0,0,1,4.05-5A12.3,12.3,0,0,1,456.29,697Z"/><path d="M485.51,698.51l-1.77,1.42c-5-2.86-8.91-2.67-11.58.64a8.24,8.24,0,0,0,.25,10.27c2.81,3.16,6.77,3.24,11.39.24l1.69,1.47c-3.18,4.14-10.39,4.42-14.55.71a10.77,10.77,0,0,1-.34-15.09C474.58,694.22,481.91,694.3,485.51,698.51Z"/><path d="M365.4,698.51,363.69,700c-3.93-3.28-8.65-2.89-11.61.62a8.14,8.14,0,0,0,.38,10.4c2.9,3.06,7,3.1,11.2,0l1.62,1.69c-3.22,4-10.48,4.22-14.58.39a10.8,10.8,0,0,1,0-15.1C354.75,694.19,362,694.35,365.4,698.51Z"/><path d="M669.32,698.11H662.7v-2.35h16v2.33H672.1v17.3h-2.78Z"/><path d="M796.86,698.15v-2.37H813v2.27h-6.59v17.32h-2.77V698.15Z"/><path d="M624.19,695.75v2.31h-6.56v17.28H614.8V698.2h-6.67v-2.45Z"/><path d="M463.68,715.43h-2.54V695.76h2.54Z"/><path d="M703.47,715.38H700.9v-19.6h2.57Z"/></svg>