<svg id="Layer_1" data-name="Layer 1" xmlns="http://www.w3.org/2000/svg" viewBox="0 0 1080 1080"><defs><style>.cls-1{fill:#2371b9;}</style></defs><g id="g4421"><path id="path4423" class="cls-1" d="M432.15,513.74v84.8h-27V492l55.73.06c23.67,0,31.73,16.69,31.73,31.85v74.68H465.68V524c0-6.35-3.29-10.26-11.22-10.26Zm183.56-1.27c-9.23,0-16.37,4.74-19.35,11.18a27.61,27.61,0,0,0-2.59,11.56H635.3c-.53-11.56-5.77-22.74-19.59-22.74m-21.94,41.11c0,13.81,8.59,24,23.91,24,11.92,0,17.85-3.3,24.74-10.16l16.68,15.92c-10.68,10.54-21.88,16.94-41.62,16.94-25.84,0-50.57-14.09-50.57-55.16,0-35.08,21.6-55,50-55,28.75,0,45.37,23.26,45.37,53.72v9.72H593.77M544.13,598.4c-22,0-31.32-15.3-31.32-30.42V462.91h27v29h20.32v21.79H539.76v52.55c0,6.19,2.92,9.63,9.35,9.63h11V598.4h-16m-163-121.18H354V451.4h27.18Zm.07,122.44c-20.35-2-27.27-14.3-27.27-28.55L354,492h27.24V599.66Zm323.93-2.28c-20.31-2-27.2-14.28-27.2-28.51V447.73h27.2Zm95.1-132.14c-24.65-120.19-258-127.8-408.33-36.25v10.1c150.22-77.2,363.28-76.74,382.69,34,6.49,36.61-14.13,74.77-51,96.7v28.7c44.34-16.22,89.81-68.82,76.61-133.2M526.89,675.51C423.1,685.11,315,670,299.82,589c-7.4-40,10.81-82.36,35-108.69V466.19c-43.5,38.14-67.1,86.42-53.51,143.48,17.34,73.16,110.16,114.62,251.83,100.85C589.17,705.05,662.53,687,713.54,659V619.26c-46.28,27.56-122.87,50.35-186.65,56.25"/><path id="path4425" class="cls-1" d="M736.59,455.77c0-1.32-.77-1.74-2.53-1.74h-1.7v3.74l1.7,0c1.76,0,2.53-.59,2.53-1.82v-.22Zm2.65,9.26h-2a.49.49,0,0,1-.42-.27l-2.74-4.66a.64.64,0,0,0-.38-.2h-1.24v4.62a.49.49,0,0,1-.49.51h-1.82a.54.54,0,0,1-.46-.51V452.83c0-.68.26-1,.84-1.05s2.39-.14,3.33-.14c3.34,0,5.37,1,5.37,4.13V456a3.33,3.33,0,0,1-2.47,3.48l2.85,4.81a2,2,0,0,1,.08.35.39.39,0,0,1-.43.4m-4.78-15.5a9,9,0,1,0,9,9,9,9,0,0,0-9-9m0,19.84a10.82,10.82,0,1,1,10.85-10.82,10.8,10.8,0,0,1-10.85,10.82"/></g></svg>