<svg id="Layer_1" data-name="Layer 1" xmlns="http://www.w3.org/2000/svg" viewBox="0 0 1080 1080"><defs><style>.cls-1{fill:#050606;}</style></defs><path class="cls-1" d="M263.86,577.94H218.73v-128c1.5-.09,3.11-.27,4.71-.28,12.15,0,24.31.09,36.46-.06,3.27,0,4.49,1.05,4.26,4.31s-.05,6.26-.05,10.71c17.48-19.43,38.65-21.54,60.51-14.22,24.41,8.16,30.8,28.32,29.41,52.34,5.18-23.95,16.92-42.71,39.91-52.1,22.74-9.28,44.24-6.48,63.16,10,.38-.57.68-.82.7-1.09.71-9.95.71-9.95,10.62-9.95,10.49,0,21,.07,31.46-.05,3,0,4.13.88,4.13,4q-.11,60.91-.07,121.84a14.54,14.54,0,0,1-.48,2.57H458.11v-12.9c-19.06,19.08-40.68,21.33-63.52,12.29-23.18-9.18-35.3-27.74-40.86-51.76v52.65H328.79c-5.32,0-10.67-.26-16,.08-4.07.26-5.05-1.29-5-5.11q.22-29.22,0-58.43a86,86,0,0,0-1.26-15.38c-1.94-10.15-7.38-14.63-17.85-15.61-9.86-.92-18.82,3.64-22,12a38.74,38.74,0,0,0-2.44,13.1c-.24,21.13-.1,42.28-.12,63.41C264.1,574.12,264,575.9,263.86,577.94Zm166.7-35.4c15.64,0,28.65-13,28.6-28.49a29,29,0,0,0-29.07-28.71c-15.67.19-28.45,12.82-28.5,28.16C401.53,530,414.09,542.58,430.56,542.54Z"/><path class="cls-1" d="M596.44,488.45H572v5.63c0,26.13-.09,52.27.1,78.4,0,4.52-1.15,6-5.82,5.86-13.11-.32-26.23-.11-39.82-.11V488.17c-4,0-7.62-.14-11.18,0-3.05.16-4.1-1.07-4.06-4.07.11-10.15.16-20.31,0-30.46-.06-3.47,1.42-4.28,4.48-4.11,3.29.17,6.59,0,10.52,0V411.76h45.56v37.85c6.26,0,11.86-.05,17.45,0,9.66.11,8.57-1.2,8.62,8.42,0,8.26,0,16.52.46,25,9.53-18.05,23.26-30.78,43.3-35.54s38.23-1,54.21,13.52c.16-1.75.31-2.69.33-3.63.13-8.14-1.43-7.78,7.75-7.8,11.49,0,23,.09,34.46,0,3.18,0,4.38.93,4.37,4.26-.09,40.11,0,80.23-.15,120.34,0,1.34-1.5,3.83-2.33,3.84-14.44.24-28.88.17-43.87.17v-12c-1,.24-1.65.19-1.89.47-19.5,23.07-61.85,19.62-83.43-4.12-18.4-20.24-22.13-44-15.67-69.87C595.63,491.4,596,490.14,596.44,488.45Zm72.36,54.1a28.45,28.45,0,0,0,28.86-28.7c0-15.51-13.1-28.54-28.74-28.51-15.92,0-29,12.88-28.82,28.37C640.26,530.17,652.55,542.52,668.8,542.55Z"/><path class="cls-1" d="M793,510.26l68.71,66.16-.82,1.37a29.26,29.26,0,0,1-3.59.42c-18.47,0-36.94.1-55.4-.11a10,10,0,0,1-6.42-2.72c-14.86-15.23-29.48-30.7-44.28-46A10.6,10.6,0,0,1,748,521c.23-7-.14-14,.18-21a10.5,10.5,0,0,1,2.56-6.52c14.16-14.06,28.52-27.92,42.9-41.76a7,7,0,0,1,4.27-2c19.3-.11,38.6,0,57.9,0,.43,0,.86.36,2,.84Z"/><path class="cls-1" d="M218.3,621.53c3,.75,5.08,1.36,7.19,1.74a5,5,0,0,0,2.6-.4c7.31-3.08,13.35-1.65,17.6,4.23s3.88,15.45-.69,20.94-10.46,6.35-17.45,2.91c-.43-.21-.9-.33-2-.72v17c-6.8,1.83-7.21,1.55-7.22-4.6C218.28,649.41,218.3,636.16,218.3,621.53Zm7,15.29c-.08,5.35,3,9.14,7.54,9.33s8.15-3.63,8.28-8.69-3.14-9.1-7.67-9.3C228.73,628,225.36,631.55,225.27,636.82Z"/><path class="cls-1" d="M751.69,639c2,7.5,7.16,9.14,11.93,4.67,3.74-3.5,3.84-3.49,8.27.46-2.75,6.74-8.71,9.94-16.44,8.65A13.37,13.37,0,0,1,744,642.35c-1.69-6.47-1.08-12.72,4-17.54,4.56-4.29,10.22-4.58,15.85-2.51a13,13,0,0,1,8.26,13.49c-.17,1.22-2.34,3-3.68,3.1C763.05,639.24,757.57,639,751.69,639Zm11.83-6.64.56-1.57c-2.16-.85-4.33-2.33-6.5-2.35-1.67,0-3.35,1.81-5,2.82l.78,1.1Z"/><path class="cls-1" d="M564.43,633.41c0-2.33.07-4.66,0-7-.11-2.68.38-4.36,3.75-4.4,3.53,0,4.17,1.58,4.06,4.58-.15,4.49-.14,9,0,13.47.1,3.33,1.45,6,5.23,6s5.17-2.69,5.29-6c.17-4.65.2-9.32,0-14-.11-3,1-4.14,4-4.1,2.75.05,4,1,3.9,3.77-.17,5.31.1,10.66-.4,16-.69,7.36-5.78,11.48-13.22,11.32-7.08-.15-11.82-4.53-12.39-11.68-.22-2.65,0-5.32,0-8Z"/><path class="cls-1" d="M417.25,642.27c1.78,8.61.1,10.84-8,10.77-6.74,0-12-2.93-14.75-9.19s-2-12.1,2.48-17.24c4.63-5.35,10.7-6.41,17.27-4.73,5.94,1.52,3.31,6,3.39,9.84-8.57-4.23-12.23-4.2-15.25-.09a10,10,0,0,0,.73,12C406.57,647.21,410.23,646.91,417.25,642.27Z"/><path class="cls-1" d="M858.22,626.93c-2.56,5.77-7,1.18-10.32,1.84l-.47,1.58c2.27,1.28,4.53,2.59,6.83,3.83,5.22,2.82,7.16,6.15,6.15,10.67A10.62,10.62,0,0,1,850.33,653c-5.33.25-8.94-2.3-10.81-7.82,2.56-1.58,4.8-3.91,7.92-.29.7.81,3.14.14,4.78.15-.56-1.5-.79-3.27-1.77-4.42s-2.56-1.46-3.92-2.08c-4.24-1.93-6.6-5-5.83-9.84.65-4.13,3.27-6.49,7.17-7.33C852.69,620.37,855.61,622.05,858.22,626.93Z"/><path class="cls-1" d="M494.74,620.84c1.36,1.29,3.39,2.36,3.94,3.95.86,2.51-.25,4.39-3.47,4.6-.61,0-1.49,2.3-1.53,3.56-.18,5-.16,10,0,15,.07,2.84-.75,4.25-3.94,4.27s-3.92-1.55-3.85-4.32a127.5,127.5,0,0,0-.05-13c-.17-2.21-1.52-4.31-2-6.53a13.64,13.64,0,0,1-.24-5.28c.55-2.88,2-5.64,2.23-8.51.22-3.1,1.69-3.45,4.16-3.46s3.81.65,3.66,3.38c-.13,2.29,0,4.59,0,6.89Z"/><path class="cls-1" d="M667.22,651.5c-6.82,1.16-7.06,1-7.06-5.17,0-6.66-.07-13.32.05-20,0-1.34.72-3.8,1.19-3.82,6-.27,11.91-.18,18.29-.18-1,4.17-1.13,7.8-6.7,6.61-3.26-.69-4.84,1.9-5.08,4.84-.33,4.13-.32,8.3-.46,12.45C667.39,648.05,667.29,649.83,667.22,651.5Z"/><path class="cls-1" d="M317.15,622.63c7.29-1,7.46-.88,7.47,5.23,0,6.66-.06,13.31,0,20,0,2.75-.63,4.32-3.87,4.36-3.45,0-3.67-1.81-3.65-4.43C317.2,639.47,317.15,631.18,317.15,622.63Z"/><path class="cls-1" d="M327.68,609.88c-3,2.43-4.59,4.61-6.5,5-3,.6-5.4-1.59-4.82-4.59.35-1.84,2.69-4.33,4.4-4.57S324.42,607.79,327.68,609.88Z"/><path class="cls-1" d="M763.52,632.39H753.33l-.78-1.1c1.68-1,3.36-2.83,5-2.82,2.17,0,4.34,1.5,6.5,2.35Z"/></svg>