<svg id="Layer_1" data-name="Layer 1" xmlns="http://www.w3.org/2000/svg" viewBox="0 0 1080 1080"><defs><style>.cls-1{fill:#35805d;}.cls-2{fill:#100f11;}.cls-3{fill:#d1212b;}</style></defs><path class="cls-1" d="M320,660.48c0,1.17.09,2.36,0,3.53-.63,7.14,3.64,16.93-8.7,18.13-8.43.81-20.11-9.86-20.81-19.07-.69-9-.47-18-.6-27.05s5-10.64,12.37-8.36c11.54,3.59,17.49,12,17.7,24.58,0,2.74,0,5.49,0,8.24Zm-17.62-20.57c.13,10-5.87,21.18,5.34,29.25C307.91,659.05,313,648.09,302.36,639.91Z"/><path class="cls-1" d="M281.12,636.61l-12.56-15.38c0,11.47-.36,20.07.36,28.59.11,1.41,4.89,2.5,7.56,3.63,3,1.27,6.66,1.81,8.92,3.88,1.09,1,.46,6.24-.87,7-3,1.74-8.21,3.76-10.23,2.36-5.53-3.83-12.6-8.65-14.1-14.37-2.83-10.83-2.68-22.57-2.65-33.93,0-2.61,4.16-6.91,7-7.53C275.29,608.56,285.87,623.14,281.12,636.61Z"/><path class="cls-2" d="M527.09,291.49l69,30.9L423.08,397.34c14.57,9.42,26.87,13.2,43.37,5.63,48.29-22.18,97.57-42.21,146.32-63.4,8.38-3.65,15.69-4.59,24.36-.43,17.35,8.33,35.22,15.57,55.22,24.28l-173.14,75c15.12,10.05,27.8,12.94,44.39,5.29,48.25-22.27,97.51-42.37,146.2-63.71,7.87-3.45,14.41-3.63,22.3.06,20.64,9.67,41.71,18.43,65.17,28.68-21,9.17-39.81,17.43-58.65,25.53q-81.45,35-162.93,69.93c-21.78,9.38-43.77,10.27-65.51.89-78.86-34-157.57-68.41-237.92-103.34,6.84-3.11,12.36-5.74,18-8.14q114-48.9,228-97.8c2.35-1,4.36-2.84,6.53-4.29Z"/><path class="cls-3" d="M823.82,512.13c-.52,17.7-2.56,35.51-1.2,53.06C824.54,590.06,812,602.7,791,611.64c-49.64,21.14-98.89,43.22-148.43,64.61-8.07,3.48-11.83,7.51-11.65,17.26.38,20.5-1.11,41-2.21,61.54-.17,3.07-1.59,7-3.83,8.88-12.08,9.84-54.15,23.46-70.14,23.15a67.57,67.57,0,0,1-.64-6.85c.41-71.88,1.16-143.76,1.1-215.64,0-18.39,8.89-30.07,24.09-37.16,23.53-11,47.67-20.68,71.54-30.94q74.88-32.17,149.74-64.39c17.78-7.66,20.4-6,21.08,12.74.22,5.84,1.44,11.65,2.19,17.47Zm-59.51,5.39c-28.37,12.3-55,23.67-81.56,35.44-11.11,4.93-22.54,9.65-32.6,16.31-17.62,11.66-24,36-14.8,53.44,37-16.37,74.21-32.5,111.08-49.34,10.07-4.59,17-13.15,17.75-24.78C764.83,539.2,764.31,529.73,764.31,517.52Z"/><path class="cls-3" d="M524.17,788.51c-26.06-1.77-47.87-10.66-68.58-22.31-3.42-1.92-6.39-7.63-6.61-11.75-1-19.33-1.59-38.74-1-58.08.32-10.84-2.62-16.57-13.3-21.09-49.73-21-98.89-43.37-148.48-64.72-20.44-8.8-30.51-22.57-30-45.61.93-40.7.08-81.44.1-122.16,0-15.34,5-18.88,18.8-12.92q111.27,48,222.38,96.27c20.2,8.81,28.46,24.31,28.2,45.85-.8,67.2-1,134.41-1.5,201.62C524.15,778.29,524.17,783,524.17,788.51Zm-78.93-165.8c5.16-36-2.87-50.36-34.44-64.15-21.66-9.46-43.24-19.08-64.93-28.48-10.25-4.44-20.65-8.53-32.22-13.29,0,7.52.27,13,0,18.53-1.19,20.43,7.95,33.61,27,40.95,12.5,4.82,24.45,11,36.71,16.45C399.58,602.61,421.89,612.41,445.24,622.71Z"/><path class="cls-1" d="M402.52,726.31c-4.89-6.87-8.63-12.11-11.7-16.41L383,714.61c-1.63-3.06-4.43-6-4.69-9.19-1.06-13.21-1.37-26.49-1.95-39.69,9.16-1,9.16-1,15.43,11.85l8.82-4.82c1.6,3.1,4.41,6.15,4.58,9.33.63,12.53.47,25.12.49,37.68C405.67,720.78,404.74,721.79,402.52,726.31Z"/><path class="cls-1" d="M772.33,638.63,781,623.34l4,1.66c0,13.25.39,26.5-.24,39.72-.19,4.09-3.17,8.06-4.87,12.08l-11.17-5.25-6.41,15.37-4.18-1c0-15.55-.55-31.13.24-46.64C758.69,632.14,765.5,632.38,772.33,638.63Z"/><path class="cls-1" d="M672.07,698.66c-.82-27.66,5.13-27,18.86-32.56,2.77-1.12,10.45,2,10.41,2.94-.55,15.36,5.14,31.68-5.88,45.66-.48.61-.7,1.7-1.28,1.91-5.75,2-11.55,4-17.33,5.92-1.6-4.8-3.53-9.53-4.66-14.44C671.5,705.09,672.06,701.81,672.07,698.66Zm15.1-24.82c-6.63,13.38-3.79,25-3.77,37.58C692.12,704.12,693.65,690.07,687.17,673.84Z"/><path class="cls-1" d="M707.49,711.05c0-16.92-.44-32.2.2-47.44.29-7,17.35-15.91,23.45-12.6,2.11,1.15,3.9,4.76,4,7.33.46,9.43,1,19-.06,28.31C733.38,702.22,720.57,706.18,707.49,711.05Zm14.57-48.78c-9,9.93-4.38,21.73-4,33C728.61,685.73,723.19,673.7,722.06,662.27Z"/><path class="cls-1" d="M325.9,641c21.48,4.51,26.88,10.79,27.57,30.15.17,4.73.65,9.44,1,14.16.73,9-4.23,13.56-12.56,10.79-10-3.33-18.31-7.6-16.35-21.32C327.14,664,325.9,652.86,325.9,641ZM342,684.53c1.4-10.24,4.26-20.74-5.24-28.78C336.71,665.69,333.67,676.09,342,684.53Z"/><path class="cls-1" d="M434.15,709.16l-6.64-14.38c-6,7.49-7,22.76-1.68,28.35,1.7,1.79,5.35,1.73,8.11,2.52.45-4.19.9-8.37,1.31-12.28,6.75,2,11,9.65,7.68,17.81-3.1,7.6-10.3,7.94-15.58,3.86-5.73-4.43-11.63-10.52-13.86-17.11-2.67-7.91-1.91-17.11-2-25.75,0-9.68,5.85-13.37,14.62-9.35s16.19,9.33,14.53,20.37Z"/><path class="cls-1" d="M804.65,639.83l15.24-4.67c2.82,19.89-2.41,30-16.68,32.87-7.17,1.45-12.66.38-12.22-9,.34-7.47.12-15,0-22.47C790.93,624.66,796.9,617.1,808,614a17.56,17.56,0,0,1,11.74,1.15c1.41.72,1.28,8.8.18,9.22-3.67,1.43-8.1.91-15,1.29-6.57,6.85-3.07,17.64-2.15,27.83.11,1.26,4.74,3.54,5.18,3.12a29.2,29.2,0,0,0,6.81-8.79c.59-1.3-1.45-4.11-2.8-5.85C811.28,641.16,809.48,641.2,804.65,639.83Z"/><path class="cls-1" d="M651.3,729.32l14.07-15.6c1.09,15.45-9.59,26.92-21.76,25.35-2.55-.33-6.31-4.63-6.52-7.33A181.36,181.36,0,0,1,637,701c1.11-11.61,9.16-17.82,20.14-19.92,2.58-.49,6.77.43,8.09,2.24,1.43,2,1.51,6.57.1,8.51s-6.56,4.06-8.11,3.06c-8.27-5.31-8.91,1.87-9.29,6-.81,8.9-.25,17.92-.25,26.89Z"/><path class="cls-1" d="M752,642c0,14.9.39,29.82-.32,44.68-.15,3-4.49,5.77-6.9,8.65l-3.39-1.94c0-15.61-.31-31.22.33-46.8.09-2.29,4.66-4.4,7.16-6.59Z"/><path class="cls-1" d="M369.23,707.3c-2.53-2-7.08-3.88-7.28-6.12-1.29-14.28-1.62-28.65-2.26-43l3.11-2.35c2.59,2.75,7.1,5.31,7.43,8.31,1.45,13.52,1.71,27.17,2.41,40.77Z"/></svg>