<svg id="FM_Digital_logo_Image" data-name="FM Digital logo Image" xmlns="http://www.w3.org/2000/svg" viewBox="0 0 1080 1080"><defs><style>.cls-1{fill:#0f4c4c;}.cls-2{fill:#fff;}</style></defs><rect class="cls-1" x="54.18" y="315.39" width="971.64" height="449.22" rx="98.15"/><path class="cls-2" d="M916.51,787.75h-753A132.45,132.45,0,0,1,31,655.3V424.7A132.45,132.45,0,0,1,163.49,292.25h753A132.45,132.45,0,0,1,1049,424.7V655.3A132.45,132.45,0,0,1,916.51,787.75ZM167.72,341.3a84,84,0,0,0-84,84V654.67a84,84,0,0,0,84,84H912.28a84,84,0,0,0,84-84V425.33a84,84,0,0,0-84-84Z"/><path class="cls-2" d="M802.51,453c0-4.93,1.07-7,5-9.34s18.8-11.18,28.1-15c10.45-4.33,21.7,1.3,23.12,12.79,1.22,9.84,1.2,20.7-8.13,26.37a243.5,243.5,0,0,1-23.24,11.95c-5.58,2.51-10.22,3.61-16,.65v61.9c-1.91,34.83-47.66,38.64-55.78,7.42-6.29-24.17,17.9-45.06,40.48-33.45l6.42,4.45Z"/><polygon class="cls-2" points="185.1 659.72 232.38 659.72 232.38 560.53 280.67 560.53 280.67 516.27 232.38 516.27 232.38 464.56 284.69 464.56 284.69 420.3 185.1 420.3 185.1 659.72"/><path class="cls-2" d="M402.19,516.07q-.81,4.83-1.41,10c-.4,3.42-.81,6.94-1.21,10.56q-1.2,11.07-2,22.43t-1.21,24.05q-.41,12.06-.7,23.74t-.3,22.73h-4V618.47q0-5.62-.2-11.66-.4-10.06-.6-17t-.5-13.88q-.31-6.95-.91-16.6-.81-12.68-1.91-23.43t-2.52-19.82L369.39,420.3H302.8V659.72h47.28V631.35q0-16.7-.81-34.6-.6-14.49-1.4-26t-1.72-22.93q-.9-11.48-2.11-26-1.8-20.11-3.62-38T337,450.48h4q.81,8.06,1.82,16.7t2.21,17.5q1.6,14.49,4.43,33.5t6.43,40.74q2.22,14.3,4.23,25.65t4.12,22q2.12,10.68,4.53,22.74l6.44,30.38h36.21l6.44-30.38q1.61-8,3.42-16.5,1.6-8.45,3.22-17.3,2-10.86,4.22-23.74t4.33-25.95q2.12-13.08,3.72-24.55,1.81-13.68,3.32-24.95T443,474q1.41-11.07,2.61-23.54h4q-.81,8.06-1.61,16.7-1,8.65-1.81,17.7-2,18.31-3.62,37t-3,37.83q-1.41,17.91-2.21,36.92t-.81,34.7v28.37h47.28V420.3H417.28Z"/><path class="cls-2" d="M627.62,452.69A63.56,63.56,0,0,0,614,434.79q-16.71-14.49-41.45-14.49H508V659.72h64.58a65.05,65.05,0,0,0,22.94-3.83A56,56,0,0,0,614,645.13a61.53,61.53,0,0,0,13.48-17.6A85.82,85.82,0,0,0,636,604a144.88,144.88,0,0,0,2.82-30V506A147.6,147.6,0,0,0,636,476.23,88.84,88.84,0,0,0,627.62,452.69ZM591.51,574q0,41.44-29.58,41.45h-6.64V464.56h6.64q29.58,0,29.58,41.45Z"/><path class="cls-2" d="M893.29,519.28a124.34,124.34,0,0,0-4.63-18.51,128.1,128.1,0,0,0-15.89-30.86c-1.35-2-2.8-4-4.33-5.88a25.37,25.37,0,0,1-9.94,10.84,307.25,307.25,0,0,1-29.31,15.07l-.14.06c1.49,1.69,2.91,3.48,4.28,5.34a73.75,73.75,0,0,1,10.46,20.42A72.15,72.15,0,0,1,847.62,539a74.73,74.73,0,0,1-1,12.48,80.13,80.13,0,0,1-2.82,11.67,73.85,73.85,0,0,1-10.46,21,74.83,74.83,0,0,1-15.89,16.4,70.87,70.87,0,0,1-20.12,11,69.84,69.84,0,0,1-46.48-.1,66.56,66.56,0,0,1-19.91-10.36,78.4,78.4,0,0,1-16.5-17A72.71,72.71,0,0,1,704,563.14,78.56,78.56,0,0,1,700.14,539a72.8,72.8,0,0,1,1-12A84.75,84.75,0,0,1,704,515.46a69.93,69.93,0,0,1,10.56-20.33A79.63,79.63,0,0,1,730.72,479a70.61,70.61,0,0,1,22.54-11.37,79.15,79.15,0,0,1,20.92-3.12,69.12,69.12,0,0,1,17.1,2.12V452.28c0-8,2.3-12.13,8.73-15.91l1.41-.83c3.24-1.91,9.24-5.43,15.8-9-1.65-.67-3.32-1.29-5-1.89A113.06,113.06,0,0,0,774,418.28a117.06,117.06,0,0,0-19.41,1.61,118.92,118.92,0,0,0-18.41,4.63,126.46,126.46,0,0,0-33.1,17.1,118.31,118.31,0,0,0-26.46,26.15,126.48,126.48,0,0,0-17.5,33.1,113.72,113.72,0,0,0-6.24,37.72,123.32,123.32,0,0,0,1.61,19.84,124.6,124.6,0,0,0,4.63,18.79,119.32,119.32,0,0,0,17.4,34.2,127.16,127.16,0,0,0,26.26,26.36,125.1,125.1,0,0,0,33,17.5,116.1,116.1,0,0,0,76.26,0A122.6,122.6,0,0,0,844.9,637.9,119.45,119.45,0,0,0,888.76,577a122.43,122.43,0,0,0,6.14-38.45A114.29,114.29,0,0,0,893.29,519.28Z"/><circle class="cls-1" cx="782.87" cy="541.9" r="13.65"/></svg>