<svg id="FM_Digital_logo_Image" data-name="FM Digital logo Image" xmlns="http://www.w3.org/2000/svg" viewBox="0 0 3000 3000"><defs><style>.cls-1{fill:#0f4c4c;}.cls-2{fill:#fff;}</style></defs><rect class="cls-1" x="145.68" y="873.85" width="2708.65" height="1252.29" rx="320.59"/><path class="cls-2" d="M2549.61,2190.64H450.39c-203.91,0-369.21-165.3-369.21-369.21V1178.57c0-203.91,165.3-369.21,369.21-369.21H2549.61c203.91,0,369.21,165.3,369.21,369.21v642.86C2918.82,2025.34,2753.52,2190.64,2549.61,2190.64ZM462.18,946.08c-129.38,0-234.26,104.88-234.26,234.26v639.32c0,129.38,104.88,234.26,234.26,234.26H2537.82c129.38,0,234.26-104.88,234.26-234.26V1180.34c0-129.38-104.88-234.26-234.26-234.26Z"/><path class="cls-2" d="M2231.79,1257.35c0-13.75,3-19.56,14.06-26s52.4-31.18,78.35-41.93c29.11-12.06,60.48,3.62,64.44,35.66,3.39,27.42,3.35,57.69-22.67,73.51-18,11-45.35,24.56-64.78,33.31-15.55,7-28.5,10.07-44.65,1.83l0,172.55c-5.33,97.09-132.89,107.7-155.52,20.68-17.53-67.38,49.92-125.63,112.85-93.24l17.89,12.39Z"/><polygon class="cls-2" points="510.65 1833.74 642.45 1833.74 642.45 1557.24 777.06 1557.24 777.06 1433.85 642.45 1433.85 642.45 1289.7 788.28 1289.7 788.28 1166.31 510.65 1166.31 510.65 1833.74"/><path class="cls-2" d="M1115.82,1433.28q-2.25,13.47-3.93,27.77t-3.36,29.44q-3.37,30.85-5.61,62.54t-3.37,67q-1.12,33.66-2,66.18t-.84,63.38h-11.22v-30.85q0-15.69-.56-32.53-1.12-28-1.68-47.39t-1.41-38.7q-.84-19.35-2.52-46.27-2.25-35.32-5.33-65.34t-7-55.25l-42.62-267H838.75v667.43h131.8v-79.08q0-46.54-2.24-96.47-1.68-40.38-3.93-72.35t-4.76-63.94q-2.54-32-5.89-72.35-5.06-56.08-10.1-106t-9.53-93.1h11.21q2.24,22.44,5.05,46.55t6.17,48.8q4.49,40.38,12.34,93.39t18,113.57q6.16,39.82,11.78,71.51t11.49,61.41q5.89,29.74,12.62,63.38l18,84.69h101l17.94-84.69q4.49-22.42,9.54-46,4.49-23.55,9-48.24,5.61-30.28,11.78-66.18t12.06-72.35q5.89-36.45,10.38-68.42,5-38.14,9.25-69.55t8.13-62.25q3.91-30.85,7.29-65.63h11.22q-2.25,22.44-4.49,46.55-2.81,24.12-5,49.36-5.61,51-10.09,103.2T1220.14,1555q-3.93,49.93-6.17,102.92t-2.25,96.75v79.08h131.81V1166.31H1157.88Z"/><path class="cls-2" d="M1744.26,1256.61q-16-30.28-37.86-49.91-46.56-40.38-115.54-40.39h-180v667.43h180q35.34,0,63.94-10.66,29.71-10.65,51.6-30T1744,1744q15.69-28.61,23.55-65.62t7.86-83.56V1405.24q0-44.87-7.86-83A246.76,246.76,0,0,0,1744.26,1256.61Zm-100.68,338.21q0,115.54-82.44,115.53h-18.51V1289.7h18.51q82.44,0,82.44,115.54Z"/><path class="cls-2" d="M2484.86,1442.23a345.2,345.2,0,0,0-12.9-51.6q-14.55-42.57-44.31-86c-3.75-5.56-7.79-11-12.05-16.38a71.12,71.12,0,0,1-27.71,30.23c-22.94,14-57.6,31.13-81.72,42-.11,0-.28.11-.39.17,4.15,4.71,8.13,9.7,11.95,14.86a207.08,207.08,0,0,1,29.16,56.93,201.63,201.63,0,0,1,10.66,64.78,206.58,206.58,0,0,1-2.81,34.77,226.08,226.08,0,0,1-7.85,32.53,206.22,206.22,0,0,1-29.16,58.61,208.33,208.33,0,0,1-44.31,45.71,198,198,0,0,1-56.09,30.57,195.08,195.08,0,0,1-129.56-.28,186,186,0,0,1-55.52-28.89,218.45,218.45,0,0,1-46-47.33q-18.51-25.25-29.17-58.39a219.15,219.15,0,0,1-10.66-67.3,201.48,201.48,0,0,1,2.81-33.37,238.5,238.5,0,0,1,7.85-32.25,195.4,195.4,0,0,1,29.45-56.65,220.69,220.69,0,0,1,45.15-44.87q31.45-23,62.81-31.69c21-5.78,40.38-8.69,58.33-8.69a192.84,192.84,0,0,1,47.67,5.89v-40.11c0-22.21,6.4-33.82,24.35-44.36l3.92-2.3c9-5.33,25.75-15.14,44-25.13-4.6-1.85-9.25-3.59-14-5.27q-49.87-17.75-106.56-17.72a327,327,0,0,0-54.12,4.49,332.18,332.18,0,0,0-51.32,12.9,353,353,0,0,0-92.26,47.67,329.68,329.68,0,0,0-73.76,72.91,351.87,351.87,0,0,0-48.79,92.26q-17.34,49.63-17.39,105.17a342,342,0,0,0,4.49,55.3,345.55,345.55,0,0,0,12.9,52.38q17.42,53.34,48.51,95.35a353.73,353.73,0,0,0,73.19,73.47,349.08,349.08,0,0,0,92,48.8q50.48,18,106.56,17.94a316,316,0,0,0,106-17.94,341.43,341.43,0,0,0,91.7-48.46,333,333,0,0,0,122.27-169.66,341.07,341.07,0,0,0,17.11-107.18A317,317,0,0,0,2484.86,1442.23Z"/><circle class="cls-1" cx="2177.06" cy="1505.3" r="38.07"/></svg>