<svg xmlns="http://www.w3.org/2000/svg" viewBox="0 0 439.5 662.5"><defs><style>.cls-1{fill:#0f4c4c;}.cls-2{fill:#fff;}</style></defs><g id="Layer_18" data-name="Layer 18"><rect class="cls-1" x="94.5" y="273.34" width="250.51" height="115.82" rx="32.28"/><path class="cls-2" d="M316.82,395.12H122.68A34.14,34.14,0,0,1,88.53,361V301.52a34.14,34.14,0,0,1,34.15-34.14H316.82A34.14,34.14,0,0,1,351,301.52V361A34.14,34.14,0,0,1,316.82,395.12ZM123.77,280a21.67,21.67,0,0,0-21.67,21.67v59.12a21.67,21.67,0,0,0,21.67,21.67h192a21.67,21.67,0,0,0,21.67-21.67V301.69A21.67,21.67,0,0,0,315.73,280Z"/><path class="cls-2" d="M287.43,308.81a2.27,2.27,0,0,1,1.3-2.41,74.33,74.33,0,0,1,7.25-3.88,4.18,4.18,0,0,1,6,3.3c.31,2.54.31,5.34-2.1,6.8a65,65,0,0,1-6,3.08,4.3,4.3,0,0,1-4.13.17v16c-.49,9-12.29,10-14.38,1.91a7.37,7.37,0,0,1,10.43-8.62l1.66,1.14Z"/><polygon class="cls-2" points="128.25 362.12 140.44 362.12 140.44 336.54 152.89 336.54 152.89 325.13 140.44 325.13 140.44 311.8 153.93 311.8 153.93 300.39 128.25 300.39 128.25 362.12"/><path class="cls-2" d="M184.22,325.08c-.14.83-.26,1.69-.36,2.57s-.21,1.79-.32,2.72c-.2,1.9-.38,3.83-.51,5.78s-.25,4-.32,6.2-.12,4.12-.18,6.12-.07,4-.07,5.87h-1v-2.86c0-1,0-2,0-3-.07-1.73-.13-3.19-.16-4.38s-.08-2.39-.13-3.58-.13-2.62-.23-4.28q-.21-3.27-.5-6c-.19-1.85-.4-3.55-.64-5.11l-4-24.69H158.59v61.73h12.19V354.8q0-4.31-.2-8.92-.17-3.74-.37-6.69t-.44-5.91q-.22-3-.54-6.7-.47-5.18-.94-9.8t-.88-8.61h1c.14,1.38.29,2.82.47,4.31s.36,3,.57,4.51q.4,3.74,1.14,8.63t1.66,10.51c.38,2.45.74,4.66,1.09,6.61s.7,3.85,1.06,5.68.75,3.79,1.17,5.86l1.66,7.84h9.34l1.66-7.84c.27-1.38.57-2.8.88-4.25s.55-2.94.83-4.46c.34-1.87.71-3.91,1.09-6.12s.75-4.44,1.11-6.69.68-4.36,1-6.33c.31-2.35.6-4.5.86-6.43s.51-3.86.75-5.76.47-3.93.67-6.07h1c-.14,1.38-.28,2.82-.41,4.31s-.33,3-.47,4.56q-.53,4.72-.93,9.54t-.78,9.76c-.25,3.07-.44,6.25-.57,9.51s-.21,6.25-.21,8.95v7.32h12.19V300.39H188.11Z"/><path class="cls-2" d="M242.34,308.74a16.44,16.44,0,0,0-3.5-4.62,15.72,15.72,0,0,0-10.69-3.73H211.5v61.73h16.65a16.82,16.82,0,0,0,5.92-1,14.63,14.63,0,0,0,4.77-2.77,15.83,15.83,0,0,0,3.47-4.54,22,22,0,0,0,2.18-6.07,37,37,0,0,0,.73-7.73V322.49a37.66,37.66,0,0,0-.73-7.68A22.68,22.68,0,0,0,242.34,308.74ZM233,340q0,10.68-7.63,10.68h-1.71V311.8h1.71q7.64,0,7.63,10.69Z"/><path class="cls-2" d="M310.83,325.91a30.81,30.81,0,0,0-1.19-4.77,32.8,32.8,0,0,0-4.1-8c-.34-.52-.72-1-1.11-1.52a6.62,6.62,0,0,1-2.56,2.8,79.32,79.32,0,0,1-7.56,3.88l0,0c.39.44.75.9,1.11,1.37a19.12,19.12,0,0,1,2.69,5.27,18.62,18.62,0,0,1,1,6,18.83,18.83,0,0,1-.26,3.22,20,20,0,0,1-.73,3,19.31,19.31,0,0,1-6.79,9.64,18,18,0,0,1-5.19,2.83,17.81,17.81,0,0,1-6,1,17.57,17.57,0,0,1-6-1A17.16,17.16,0,0,1,269,347a20.54,20.54,0,0,1-4.25-4.37,19,19,0,0,1-2.7-5.4,20.43,20.43,0,0,1-1-6.23,18.86,18.86,0,0,1,.26-3.09,21.56,21.56,0,0,1,.72-3,18.19,18.19,0,0,1,2.73-5.24,20.76,20.76,0,0,1,4.17-4.15,18.38,18.38,0,0,1,5.81-2.93,20.6,20.6,0,0,1,5.4-.8,18.05,18.05,0,0,1,4.41.54v-3.71a4.07,4.07,0,0,1,2.25-4.1l.36-.21c.84-.49,2.38-1.4,4.07-2.33q-.63-.25-1.29-.48a29.07,29.07,0,0,0-9.86-1.64,30,30,0,0,0-9.75,1.61,32.47,32.47,0,0,0-8.53,4.41,30.09,30.09,0,0,0-6.82,6.74,32.33,32.33,0,0,0-4.51,8.53,29.25,29.25,0,0,0-1.61,9.73,31.18,31.18,0,0,0,1.61,10,30.61,30.61,0,0,0,4.48,8.81,32.81,32.81,0,0,0,6.77,6.8,32.24,32.24,0,0,0,8.51,4.51,29.93,29.93,0,0,0,19.66,0,31.7,31.7,0,0,0,8.48-4.48,30.83,30.83,0,0,0,11.31-15.69,31.47,31.47,0,0,0,1.58-9.91A29.36,29.36,0,0,0,310.83,325.91Z"/><circle class="cls-1" cx="282.37" cy="331.74" r="3.52"/></g></svg>