<svg id="FM_Digital_logo_Image" data-name="FM Digital logo Image" xmlns="http://www.w3.org/2000/svg" viewBox="0 0 48 48"><defs><style>.cls-1{fill:#0f4c4c;}.cls-2{fill:#fff;}</style></defs><rect class="cls-1" x="3.25" y="3.25" width="41.51" height="41.51" rx="4.28"/><path class="cls-2" d="M40.62,1.79H7.38A5.59,5.59,0,0,0,1.79,7.38V40.62a5.59,5.59,0,0,0,5.59,5.59H40.62a5.59,5.59,0,0,0,5.59-5.59V7.38A5.59,5.59,0,0,0,40.62,1.79ZM42.9,39.48a3.42,3.42,0,0,1-3.42,3.42h-31A3.42,3.42,0,0,1,5.1,39.48v-31A3.42,3.42,0,0,1,8.52,5.1h31A3.42,3.42,0,0,1,42.9,8.52Z"/><path class="cls-2" d="M26.61,16.05a.8.8,0,0,1,.46-.85c.37-.21,1.72-1,2.57-1.38A1.48,1.48,0,0,1,31.75,15c.11.9.11,1.89-.74,2.41a21.2,21.2,0,0,1-2.12,1.09,1.52,1.52,0,0,1-1.46.06V24.2A2.6,2.6,0,1,1,26,21.83l.58.4Z"/><path class="cls-2" d="M34.9,22.11a9.71,9.71,0,0,0-.42-1.69A11.82,11.82,0,0,0,33,17.6q-.18-.27-.39-.54a2.38,2.38,0,0,1-.91,1,28.27,28.27,0,0,1-2.68,1.38h0l.39.49a6.86,6.86,0,0,1,.95,1.87,6.41,6.41,0,0,1,.35,2.12,7.11,7.11,0,0,1-.09,1.14,6.31,6.31,0,0,1-.26,1.06,6.88,6.88,0,0,1-4.24,4.42,6.24,6.24,0,0,1-2.11.36,6.12,6.12,0,0,1-2.13-.37,6,6,0,0,1-1.82-.94A7.42,7.42,0,0,1,18.57,28a6.75,6.75,0,0,1-.95-1.92,6.89,6.89,0,0,1-.35-2.2,6.8,6.8,0,0,1,.09-1.1,6.2,6.2,0,0,1,.26-1,6.57,6.57,0,0,1,1-1.86,7.36,7.36,0,0,1,1.48-1.47,6.67,6.67,0,0,1,2.06-1A7.54,7.54,0,0,1,24,17.11a6.29,6.29,0,0,1,1.56.19V16a1.43,1.43,0,0,1,.8-1.45l.13-.08c.29-.17.84-.5,1.44-.82l-.46-.18A10.52,10.52,0,0,0,24,12.88a10.4,10.4,0,0,0-1.77.15,11.93,11.93,0,0,0-1.69.42,11.59,11.59,0,0,0-3,1.57,10.89,10.89,0,0,0-2.41,2.38,11.44,11.44,0,0,0-1.6,3A10.3,10.3,0,0,0,13,23.87a10.78,10.78,0,0,0,.15,1.81,9.61,9.61,0,0,0,.42,1.72,10.93,10.93,0,0,0,1.59,3.12,11.87,11.87,0,0,0,2.39,2.41,11.64,11.64,0,0,0,3,1.6,10.56,10.56,0,0,0,7,0,11.3,11.3,0,0,0,3-1.59,11.43,11.43,0,0,0,2.43-2.43,11.63,11.63,0,0,0,1.57-3.13,11,11,0,0,0,.56-3.51A10.2,10.2,0,0,0,34.9,22.11Z"/><circle class="cls-1" cx="24.82" cy="24.17" r="1.25"/></svg>