<svg id="Layer_1" data-name="Layer 1" xmlns="http://www.w3.org/2000/svg" xmlns:xlink="http://www.w3.org/1999/xlink" viewBox="0 0 1080 1080"><defs><style>.cls-1{fill:url(#linear-gradient);}.cls-2{fill:#010101;}.cls-3{fill:url(#linear-gradient-2);}.cls-4{fill:url(#linear-gradient-3);}.cls-5{fill:url(#linear-gradient-4);}.cls-6{fill:url(#linear-gradient-5);}</style><linearGradient id="linear-gradient" x1="-687.57" y1="1053.24" x2="-687.57" y2="832.76" gradientTransform="translate(837.65 -403)" gradientUnits="userSpaceOnUse"><stop offset="0.01" stop-color="#db4094"/><stop offset="0.54" stop-color="#844e9f"/><stop offset="1" stop-color="#34a3dc"/></linearGradient><linearGradient id="linear-gradient-2" x1="-723.52" y1="1000.98" x2="-723.52" y2="884.97" xlink:href="#linear-gradient"/><linearGradient id="linear-gradient-3" x1="-690.49" y1="999.16" x2="-690.49" y2="887.68" xlink:href="#linear-gradient"/><linearGradient id="linear-gradient-4" x1="-666.27" y1="976.77" x2="-666.27" y2="909.01" xlink:href="#linear-gradient"/><linearGradient id="linear-gradient-5" x1="-641.91" y1="954.12" x2="-641.91" y2="931.93" xlink:href="#linear-gradient"/></defs><path class="cls-1" d="M260.07,540.12c1.21,59.31-48.39,110.24-109.88,110.12-61-.12-110.12-50-110.12-110.36S89.79,429.64,150.31,429.76c61.61,0,111.33,51.54,109.76,110.36Zm-201.45,0c-1.69,48,39.78,91.69,90.6,91.93,51.06.24,93.38-40.14,93.26-92.29-.12-53.12-43.54-91.93-92.29-92.05-50.82,0-93.39,43.66-91.57,92.41Z"/><path class="cls-2" d="M528.45,600.64h2.43c8.24,1.09,8.24,1.09,11.15,9a19.86,19.86,0,0,0,8.13,10.19c10,6.06,20.13,6.31,30.32.61,9.58-5.22,12-20.26,7-28.87-2.3-4-3.27-4.61-7.76-3.51a60.27,60.27,0,0,1-30.44-.37c-16.37-4.61-29.35-20.13-31.41-37.11-1.21-9.82-.73-19.28,2.43-28.62,5.7-16.37,22.43-29,40.62-29.47,7.64-.12,15.41-.24,22.56,2.91,2.55,1.21,4.25-.24,5.82-1.94,2.19-2.3,4.37-4.61,8-5.09,2.79-.37,5.45-.13,7.4,1.57a124.27,124.27,0,0,1,9.09,8.86c1.46,1.45,1.21,2.91-.12,4.24-2.18,2.18-4.25,4.37-6.43,6.43-1.7,1.7-1.7,3.15-.6,5.33,9.09,18.56,8.85,36.87-1.7,54.82-1.09,1.94-1.7,3.28,0,5.22,8.24,9,9.94,20.13,9,31.65-1.33,15-8.37,26.8-21.1,35a38.45,38.45,0,0,1-14,5.46c-15.4,3.15-30.07,1.57-43.29-7.64-11.4-7.89-17.1-19.17-18.68-32.63-.48-4.48.24-5.33,4.85-4.85h.61c2.06-.12,4.12-.12,6.06-1.21Zm60.16-59.43c0-15-8.74-23.77-23.17-24.37-13.46-.61-24.25,10.3-24.25,24.25,0,12.13,9.7,24.5,24,24.14C579.63,565.1,588.61,556.13,588.61,541.21Zm334-34.68c4.37-4.13,9-7.76,14.44-10.07,22.19-9.34,52.87-4.24,64.88,22.56a41,41,0,0,1,3.88,17v46.69c0,6.43-.49,6.91-6.79,7-3.64,0-7.28.12-10.92,0-4.85-.12-5.58-.85-5.7-5.7-.12-10.55.12-21-.12-31.53-.12-6.06.73-12.13-.85-18.07-2.79-10.79-10.79-17.34-21.83-17.46-15.64-.25-25.34,9.21-25.34,25v40.63c0,6.79-.37,7-7.28,7.15-3.4,0-6.91.12-10.31,0-5-.12-5.7-.85-5.7-5.7-.12-8.12,0-16.13,0-24.25,0-6.43.12-13,0-19.41-.24-10.91-6.55-20-16.13-22.55-18.55-4.85-31.53,6.42-31.9,22.92-.24,13.94,0,27.89-.12,41.84,0,6.79-.36,7-7.27,7.15h-9.46c-5.7-.12-6.31-.72-6.43-6.18-.12-3.4,0-6.91,0-10.31v-77c0-2.43,1.09-3.76,3.64-3.76,5.33-.12,10.67-.24,14.67,4.12,2.06,2.19,4,1.94,6.43.73,11.28-5.82,23.29-5.94,35.41-3.64a41.14,41.14,0,0,1,20.62,10.92,19.82,19.82,0,0,0,2.18,1.94Zm-118-7c1.94-6.91,1.94-6.91,8.73-6.91,3.88,0,7.64-.12,11.52,0,4.13.12,4.73,1,5.1,5.09.12,1.22,0,2.43,0,3.64v80.53c0,1.21-.12,2.43,0,3.64.12,3-1.22,4.24-4.25,4.36-7.64.49-13.82-1.94-18.43-8.61C793.32,590,778.65,592,763,587.78c-9.21-2.42-16.49-7.76-22.92-14.91-13.1-14.68-13.1-47.3-1-62.46,8-10,18.07-16.25,30.56-17.71C781.8,491.37,793.81,492.58,804.6,499.49ZM778,565.35c14.19,0,23.77-10.19,23.89-24.86.12-10.56-9.34-24-24.62-23.65a24.15,24.15,0,0,0-23.53,24.74C754,555.52,764,565.35,778,565.35Zm-400-65.61c1.33-8,1.21-6.92,10.31-7h8.85c5.58.12,5.7.37,5.82,6.31v87.32c0,2.54-1.21,3.64-3.64,3.76-6.91.36-13.34-.73-17.7-6.92-.37-.48-1-.72-1.34-1.09-28.86,16-53.6,5.7-65.25-6.79-16-17.22-14.06-48.63-4.24-62.33,7.64-10.68,17.59-17.71,30.68-19.53,12.62-1.94,24.87-.73,36.51,6.31Zm-27.29,17.34c-12.37-.61-23.89,8.37-23.65,24.25.24,16.62,11.77,24.26,24,24,14.07-.25,23.65-10.07,23.9-24.14C375.28,525.57,363.39,516,350.78,517.08Zm298.59-19.77a61.14,61.14,0,0,1,28.86-4.73c21.71,1.33,38.93,18.19,41.72,38.08,1.33,9.83.73,19.77.85,29.59q.18,11.84,0,23.65c-.12,5.22-.85,5.82-6.07,5.94-4,.13-8.12.13-12.12,0-5.46-.12-6.19-.72-6.19-6.42,0-14.8.12-29.47,0-44.27-.12-10.67-6.18-18.8-16.49-21.22-12.25-3-24.5,1-29.47,13.7a22,22,0,0,0-1.22,8.37v41.84c0,1.58,0,3.28-.12,4.85a3,3,0,0,1-3,3.15c-5.82.13-11.76.13-17.58,0-2.19,0-3.28-1.45-3.4-3.51-.12-1.58-.12-3.28-.12-4.85V460.93c.24-4.13.61-4.49,4.61-4.61,1.21-.12,2.42,0,3.64,0,10.67,0,15.88,5.21,16,16,.13,6.06,0,12.12,0,18.19.13,1.7.13,3.64.13,6.79ZM412.75,540.73v-42c0-6.31.12-6.31,6.55-6.43,4.25-.12,8.13.48,11.28,3.39,2.79,2.55,5.34,1.94,8.61.61,17.1-6.55,34-6.55,49.48,4.37,12.13,8.49,18.92,20.13,18.8,35.41v47.3c0,6.06-.24,6.18-6.06,6.3H490s-5.82-.24-5.95-5.7c-.12-9.7,0-19.4,0-29.1,0-5.1.13-10.07,0-15.16-.24-13.59-9.46-22.44-23-22.8-9.34-.25-16.49,3.39-21.46,11-3.16,4.85-3.4,10.68-3.52,16.38-.12,12.49,0,25.1-.12,37.59v4.25c.12,2.18-.85,3.51-3,4.73h-17c-2.79-1.22-3.16-3.16-3-5.46V540.73Zm602.75-.12V499.37c0-6.79.12-6.91,6.67-6.91,11.28,0,17.71,6.18,17.71,17.58.12,24.26,0,48.52,0,72.77,0,6.31-.61,6.91-6.91,6.91h-10.92c-5.82-.12-6.55-.72-6.55-6.79Zm11.89-62.22c-9.71,0-12-2.42-11.89-12.25.12-8.12,3.28-11.16,11.52-11.28,1.46,0,2.79-.12,4.25,0,5.45.37,8.12,2.91,8.61,8.25a16.42,16.42,0,0,1,0,2.43c.36,9-1.34,13.82-12.49,12.85Z"/><path class="cls-3" d="M114.05,539.76c-1.82-3-4.49-5-6.67-7.28C92.1,517,96.83,491.85,116.59,483.12c7.28-3.27,13.71.73,13.71,8.61q.18,47.85,0,95.69c0,9.22-6.31,12.85-14.68,9.1-11.28-5.1-17.22-14.19-17.7-26-.49-9.94,3.64-18.92,11.64-25.47C111,543.52,113,542.3,114.05,539.76Z"/><path class="cls-4" d="M154.43,540v44.75a27.85,27.85,0,0,1-.36,5.46,7.2,7.2,0,0,1-6.79,5.94,7.36,7.36,0,0,1-7.28-6.06,18.62,18.62,0,0,1-.24-3.64c0-30.32.12-60.52.12-90.84a16.94,16.94,0,0,1,1.09-6.55,7.1,7.1,0,0,1,7.16-4.48,6.92,6.92,0,0,1,6.18,5.7,32.77,32.77,0,0,1,.24,4.85c0,14.91,0,29.83-.12,44.87Z"/><path class="cls-5" d="M164.13,540V515.26c.25-5.82,3-9.22,7.4-9.1s7.16,3.52,7.16,9.46c.12,16.38,0,32.63,0,49a16.28,16.28,0,0,1-.12,2.42c-.73,4.37-4,7.28-7.77,6.92s-6.67-3.28-6.79-7.76c0-8.86,0-17.59.12-26.2Z"/><path class="cls-6" d="M188.39,539.76c0-1.58-.12-3.28,0-4.85a6.41,6.41,0,0,1,5.94-5.95c3.52-.48,6.07.61,7.4,3.88a18.55,18.55,0,0,1,.12,14.19c-1.33,3.4-4.24,4.61-8,3.88-3.28-.6-5.1-2.66-5.46-6.3a32.7,32.7,0,0,1,0-4.85Z"/></svg>