<svg id="Layer_1" data-name="Layer 1" xmlns="http://www.w3.org/2000/svg" viewBox="0 0 1080 1080"><defs><style>.cls-1{fill:#010101;fill-rule:evenodd;}</style></defs><path class="cls-1" d="M467,645.44V499.35h-.95L407.3,645.44H384.87L326,499.35H325V645.44H297.46V447h35l63.09,158.18h1.08L459.57,447H494.7V645.45H467Zm180.08,0h-28V621h-.67C610.6,638.29,596.15,648,574.4,648c-30.93,0-49.86-20.49-49.86-53.63V500.73h29.18v87.9c0,22,10.28,33.83,30.4,33.83,21.09,0,33.79-14.85,33.79-37.41V500.73h29.17V645.44Zm80-147.33c33.09,0,54.58,18.72,55.53,45.4H755.16c-1.62-14-11.76-22.83-28.1-22.83-15.81,0-26.35,7.83-26.35,19.4,0,9.07,6.49,15.25,21.88,18.83l23.1,5.37c29.06,6.88,40.13,18.43,40.13,39.33,0,26.42-24.18,44.58-57.68,44.58-35.53,0-56.89-17.75-59.58-45.26h28.91c2.7,15.13,12.84,22.56,30.67,22.56,17.55,0,28.37-7.43,28.37-19.26,0-9.36-5.27-14.85-20.81-18.43l-23.1-5.5c-27-6.33-40.4-19.54-40.4-40.57,0-25.87,22.16-43.62,54.86-43.62Zm79-35.61A16.83,16.83,0,1,1,823,479.55a17,17,0,0,1-16.87-17.05Zm2.29,38.23h29.18V645.44H808.36Zm152.39,49.8c-3-15.41-14.33-27.66-33.37-27.66-22.56,0-37.42,19.12-37.42,50.2,0,31.79,15,50.22,37.69,50.22,18,0,29.72-10,33.09-26.83h28.12c-3.11,30.81-27.29,51.73-61.47,51.73-40.67,0-67.14-28.35-67.14-75.11,0-45.94,26.47-75,66.87-75,36.61,0,58.9,23.94,61.47,52.42H960.75ZM208.21,466.31c-7.55,9-19.52,16.19-31.5,15.13-1.57-12.2,4.43-25.21,11.2-33.16,7.54-9.3,20.56-15.92,31.24-16.47,1.31,12.75-3.64,25.21-10.93,34.52ZM219,483.83c6.75.53,26.23,2.64,38.7,21.42-1,.8-23.12,13.76-22.86,41,.26,32.57,28.05,43.41,28.31,43.68a118,118,0,0,1-14.54,30.42c-8.83,13.24-17.92,26.2-32.47,26.47-14,.26-18.71-8.47-34.8-8.47s-21.31,8.2-34.55,8.73c-14,.52-24.66-14-33.5-27.26C95.12,593.1,81.36,544.41,100.06,511.6c9.09-16.4,25.71-26.72,43.64-27,13.76-.25,26.5,9.27,34.8,9.27s23.11-11.11,40.52-10.06Z"/></svg>