<svg id="Layer_1" data-name="Layer 1" xmlns="http://www.w3.org/2000/svg" viewBox="0 0 1080 1080"><defs><style>.cls-1{fill:#f9a21e;}</style></defs><path class="cls-1" d="M642,290.36c4.47.87,8.92,2,13.43,2.55,5.14.68,7.94,3.78,9.72,8.23,2.86,7.11,2.7,14.54,2,21.95-1,11.63-2.42,23.24-3.48,34.87-1.12,12.36-2.07,24.75-3,37.13-.55,7.29-1,14.59-1.37,21.88q-.89,15.48-1.69,31a3,3,0,0,0,1.11,2.28c1-1.6,2-3.18,2.92-4.82,2.09-3.73,3.66-7.85,6.28-11.15,4.68-5.91,11.72-7.95,18.78-9.09a47.66,47.66,0,0,1,13.65-.18c5.2.7,6.41,2.4,6.6,7.55.21,5.94.13,11.89,0,17.84a3.32,3.32,0,0,1-2.1,2.28c-7.62,1.8-15.26,3.56-23,5a9.07,9.07,0,0,0-7.13,5.34c-2.92,6-5.7,12.11-9,17.94-5.91,10.59-8.4,11.47-19.09,5.85-8.41-4.42-16.44-9.57-24.6-14.44-2.85-1.69-3.82-3.88-3.38-7.54,1.18-9.94,1.66-20,2.36-30a11.44,11.44,0,0,0-.42-2.62l-1-.28a35.83,35.83,0,0,0-2.54,5c-5,15.17-9.89,30.4-15,45.54-9.15,27.11-18.45,54.17-27.7,81.25a24.25,24.25,0,0,1-1.68,3.71c-2.34,4.29-6,6-10.52,4.23-10-4-17.61-11.09-23.47-20-.72-1.11-.74-2.81-.74-4.23,0-21.45,0-42.9-.08-64.35-.07-13-.28-25.93-.72-38.89-.22-6.34-1.09-12.67-1.75-19a16.82,16.82,0,0,0-1.28-3.42c-1.06,1.44-1.7,2.19-2.2,3q-21.72,36.18-43.43,72.35c-1,1.66-1.48,4.36-4.31,3.77-3.46-.71-7-1.29-8.3-5.56-5.88-19.27-11.88-38.51-17.85-57.76-.4-1.3-.81-2.6-1.33-3.85-1.43-3.37-3.7-4.06-6.3-1.54a121.68,121.68,0,0,0-8.64,9.5c-6,7.14-11.54,14.64-17.82,21.49-3.85,4.18-8.67,7.48-13.17,11a13.85,13.85,0,0,1-4.25,2c-4,1.31-5.93.81-7.12-3.16-2.5-8.37-4.48-16.91-6.6-25.4-.93-3.74-1.55-7.56-2.54-11.29-1-3.57-2.36-4-5.4-1.74-3.61,2.67-7,5.75-10.76,8.13-13.57,8.49-27.21,7.66-40.5-.63-7.61-4.74-7.51-2.91-6.14-12.49a25.07,25.07,0,0,1,.95-4.27c1.86-5.79,5.64-7.77,11.39-5.85,3.36,1.13,6.6,2.64,10,3.77,12.23,4.14,20,1.72,28.44-8.06a68.69,68.69,0,0,1,11-10.11c3.84-2.86,8.17-2.64,12.36,0a9,9,0,0,1,4.45,6.47c.55,3.5.92,7,1.67,10.5,1.11,5.12,3.44,5.89,6.94,2.07,7.34-8,14.43-16.27,21.63-24.42,5.67-6.41,11.13-13,17.13-19.11,2.32-2.35,5.72-3.88,8.9-5.07,5-1.87,8.59,0,10.16,5.26,1.23,4.08,1.7,8.38,2.72,12.52,3.12,12.67,7.77,24.73,15,35.68,4.35,6.63,6,6.69,9.72-.13,10.49-19.05,20.7-38.26,31.11-57.35,5.66-10.37,11.86-20.46,17.14-31,4.24-8.46,20.56-8,25.78-2.15,2.28,2.58,2.8,5.55,2.7,8.74-.28,9.08-.7,18.17-.94,27.26-.67,25.5-1.23,51-1.94,76.5-.15,5.21-.82,10.41-1.1,15.62a24.3,24.3,0,0,0,.56,4.45l.94.16a20.69,20.69,0,0,0,1.54-3.09q25.54-82.27,51-164.58c.65-2.1,1.32-4.18,2-6.28,1.23-4,3.21-5.51,7.44-5.83,1.74-.14,3.45-.56,5.18-.84Z"/><path d="M1011.35,787c-11.41,0-22.82-.06-34.23,0a4.84,4.84,0,0,1-4.72-2.63c-9.33-14.63-18.8-29.17-28.23-43.74-.55-.85-1.12-1.7-2.21-3.36v49.45H911.08V639.22h30.64v93.09l.75.28c.6-.88,1.2-1.76,1.78-2.66,8.76-13.51,17.54-27,26.22-40.55a4.34,4.34,0,0,1,4.26-2.31c11.09.1,22.19,0,34.08,0L972.92,734c8.29,11.42,16.5,22.76,24.78,34.06,4.49,6.13,9.1,12.18,13.65,18.26Z"/><path d="M558.06,686.75c9.75,0,19.26,0,28.77,0,1.78,0,2,.93,2,2.37,0,4.15,0,8.31,0,13.46,8.26-11.38,18.36-17.79,31.75-18.1,13.69-.32,24.14,4.93,30,18.25,2-2.45,3.7-4.64,5.53-6.71,11.2-12.71,31.52-14.09,43.7-8.6,9.93,4.49,14.21,13.16,16.12,23.21A75.15,75.15,0,0,1,717.23,724c.13,20.19.06,40.37.06,60.56,0,.62,0,1.24-.09,2.12h-31V783c-.05-19-.06-38.07-.21-57.11a27.53,27.53,0,0,0-1.23-7c-1.56-5.58-5-9.4-10.92-10.38-6.63-1.11-12.23.67-16.15,6.47a24.44,24.44,0,0,0-4.44,13.8q-.11,27-.11,54c0,1.24,0,2.48,0,4H622v-3.33c0-18.41,0-36.82-.07-55.23a39.44,39.44,0,0,0-1.21-9c-1.39-5.74-4.86-9.73-10.93-10.7-6.82-1.09-12.63.67-16.67,6.72-3.68,5.49-4.19,11.71-4.21,18-.05,16.53,0,33,0,49.58v3.93H558.06Z"/><path d="M380.24,786.77h-30.9V774c-3.62,3.3-6.77,7-10.66,9.59-15.53,10.36-46.46,9.13-57.51-18.2-8.35-20.64-7.59-41.69,4.18-61.18,12.25-20.3,35.71-23.12,51.28-17.13,4.91,1.89,6.77,3.67,12.59,10.88V639h31ZM349.9,735.24c0-2.29.07-4.38,0-6.47-.43-10.09-7.3-18.71-16.11-20.27-10.87-1.91-19.56,3-23.44,13.71a43,43,0,0,0-.57,29.18,24,24,0,0,0,6.81,10.2c9.7,8.18,24.41,4.11,30.21-7.89C349.64,747.79,350.15,741.48,349.9,735.24Z"/><path d="M496.16,684.07c11.54.34,22.56,2.31,32.31,8.77,13.67,9,20,22.3,21.07,38.3.61,9.46-.31,18.82-3.93,27.68-5.77,14.14-16.05,23.64-30.72,27.75-16.94,4.76-33.77,4.42-49.63-4-14.06-7.5-21.31-19.9-23.55-35.36-1.6-11.13-.93-22.16,3.35-32.66,6.48-15.9,18.85-24.87,35.27-28.47C485.51,684.91,490.88,684.71,496.16,684.07Zm22.24,52.45c-.57-4.36-.77-8.25-1.64-12-2.41-10.42-8.82-15.67-19.38-16.26-11.07-.61-19,4.26-22.49,14.19-3.15,8.92-3.05,18-.76,27.13s8.15,14.64,17.62,15.8c11.8,1.45,21.45-2.71,24.62-15.75C517.45,745.21,517.79,740.6,518.4,736.52Z"/><path d="M171,686.76c10.11,0,19.72,0,29.33.09.62,0,1.69,1.36,1.74,2.14.19,3.33.08,6.69.08,10,0,14.75,0,29.5,0,44.25a51.29,51.29,0,0,0,.75,9.35c1.2,6.3,4.45,11,11.15,12.46,7.19,1.56,13.55.19,18.4-5.69a19.68,19.68,0,0,0,4.44-12.78c.09-18.52.08-37,.11-55.55v-4h30.94v99.66H237V772.17c-3.26,3.42-6,6.72-9.13,9.49-11.75,10.27-32.88,10.45-44.77.48-6.61-5.53-9.62-13.07-10.87-21.29A114.35,114.35,0,0,1,171,744.62c-.15-18-.06-36-.06-54Z"/><path d="M732.22,715.51c0-7.1-.05-14.1.07-21.09a3.09,3.09,0,0,1,1.54-2.29c17.86-7.13,36.15-10.61,55.08-5,13.37,3.93,20.65,13.68,23.16,27a82.4,82.4,0,0,1,1.28,14.64c.14,18.2.06,36.41.06,54.61v3.33H784.12V772.33c-1.89,2.41-3.15,4.12-4.52,5.74-10.36,12.17-31.25,15.21-44.67,6.46-7.73-5-11.73-12.44-12.36-21.46a48.07,48.07,0,0,1,.9-13.38c2.19-10.23,8.81-17.21,18.53-20.36,7.68-2.49,15.82-3.63,23.8-5.06,6-1.07,12-1.65,17.89-2.44,1-7.35-2.88-13.47-9.77-15.27-9-2.35-17.91-.82-26.49,2.16C742.35,710.48,737.56,713.09,732.22,715.51Zm52.18,24c-7,.93-13.21,1.55-19.34,2.67a28.25,28.25,0,0,0-9,3.24c-4.77,2.8-5.61,7.61-4.74,12.64.83,4.83,4.13,7.64,8.76,8.76,10.62,2.57,20.86-3.58,23.21-14.22C784.15,748.62,784,744.38,784.4,739.54Z"/><path d="M130.5,721.82c.63-8.91-4.26-14.92-12.77-15.91-12.75-1.48-24.42,1.9-35.39,8.18-1,.55-2,1.08-3.35,1.86,0-7.64-.08-14.83.11-22,0-.81,1.45-1.92,2.46-2.31a96.59,96.59,0,0,1,37.28-7.17c7.29.1,14.41,1.09,21.06,4.18,12.56,5.84,18.89,16.45,19.42,29.62.91,22.55.57,45.15.74,67.73,0,.19-.13.38-.27.75H130.73v-13.1c-4,3.64-7.53,7.83-11.93,10.77-13.46,9-35,5.74-43.92-6.15-12.36-16.52-5.61-41.63,13.74-48.87,7.61-2.85,16-3.68,24.09-5.14C118.56,723.2,124.49,722.63,130.5,721.82Zm.22,18.14a7.61,7.61,0,0,0-1.43-.12c-4.35.54-8.73.95-13,1.72-4,.71-8.08,1.35-11.78,2.85-5.18,2.12-7.22,6.81-6.57,12.94a11.25,11.25,0,0,0,8.46,9.44A19,19,0,0,0,128.93,756C131.27,750.85,130.79,745.47,130.72,740Z"/><path d="M902,759.62c0,7,.07,14.66-.1,22.28,0,.87-1.22,2.06-2.15,2.53-6.38,3.18-13.31,4.2-20.31,4.73-11.74.9-23.29.07-33.86-5.59-14.87-8-23.45-20.45-25.2-37.3s1.27-32.54,13.22-45.43c9.67-10.43,22.1-15.13,36-16.13,8.77-.63,17.57-.58,26.16,1.83,6.25,1.75,6.24,1.76,6.24,8.18v19.61c-5-1.88-9.86-4.19-14.93-5.42A32,32,0,0,0,868.55,710c-11.19,4-17.4,14.25-17.06,27.86.14,5.83,1.07,11.48,4.4,16.4,6.74,10,16.75,12.55,27.82,10.91C889.87,764.3,895.76,761.59,902,759.62Z"/><path d="M394.08,687H424.6v3.61q0,30.58,0,61.18a28.62,28.62,0,0,0,.64,6.2,9.36,9.36,0,0,0,9.39,7.69c3.63,0,7.26-.54,11.09-.86v21.53a102.92,102.92,0,0,1-11,2.08c-6,.54-12.17,1.4-18.1.71-13.16-1.53-22.46-11.76-22.67-25.16-.38-25.3-.16-50.61-.19-75.92A5.29,5.29,0,0,1,394.08,687Z"/><path d="M409.72,671c-11.72.13-19.45-8.18-17.74-19.07a13.82,13.82,0,0,1,7.81-10.38,21,21,0,0,1,17.61-.87c7.5,2.82,10.87,9.05,9.74,17.26-.89,6.54-6.84,12-14,12.83C412,670.89,410.86,670.92,409.72,671Z"/><path class="cls-1" d="M308.22,435.71c-7.17,0-10.54-2.72-10.35-7.66a6.82,6.82,0,0,1,6.81-6.74,23.34,23.34,0,0,1,6.18.5c4.62,1,6.24,3,6.12,7.21-.11,4-1.88,5.77-6.45,6.47C309.51,435.64,308.47,435.68,308.22,435.71Z"/></svg>