<svg id="Layer_1" data-name="Layer 1" xmlns="http://www.w3.org/2000/svg" viewBox="0 0 1080 1080"><defs><style>.cls-1{fill:#fff;}.cls-1,.cls-2{fill-rule:evenodd;}.cls-2{fill:#8058a4;}</style></defs><path class="cls-1" d="M397.49,468.84h55c34,0,58.1,22.64,58.1,54.82s-24.06,54.82-58.1,54.82h-55Zm42.72,80h10c10.68,0,16.37-7.12,16.37-25.21s-5.69-25.2-16.37-25.2h-10Zm167.16,29.61H517.1V468.84h90.27v29.62h-47.7v12.67h44.85v24.21H559.67v13.53h47.7Zm100.53,0H617.62V468.84H707.9v29.62H660.2v12.67h44.85v24.21H660.2v13.53h47.7Zm327.64,0c-6.15-16.76-14.76-34.65-26.33-54.7,13.53-4,21.63-12.5,21.63-25.6,0-19.94-18.37-29.34-47.42-29.34h-59.8V578.48h42.72V533.13q14.24,24,21.07,45.35Zm-69.2-60.65V498.46h14.8c6.27,0,9.83,3.42,9.83,9.68s-3.56,9.69-9.83,9.69Zm-53,60.65H823.09V468.84h90.28v29.62h-47.7v12.67h44.85v24.21H865.67v13.53h47.7Zm-195.22-80h44.08a207.89,207.89,0,0,0-44.93,50.41v29.61h97V548.87H765.8c11.1-16.16,26.62-32.25,48.46-50.41V468.84H718.15Z"/><path class="cls-2" d="M277.34,443.53c2.57-14.89,6.34-24.26,10.52-24.27h0c7.78,0,14.1,32.5,14.1,72.59s-6.33,72.59-14.12,72.59c-3.2,0-6.15-5.52-8.52-14.77-3.75,33.85-11.54,57.12-20.55,57.12-7,0-13.23-14-17.44-36-2.87,41.92-10.09,71.67-18.53,71.67-5.29,0-10.12-11.79-13.7-31-4.3,39.62-14.23,67.37-25.81,67.37s-21.53-27.75-25.81-67.37c-3.55,19.19-8.38,31-13.7,31-8.44,0-15.65-29.75-18.53-71.67-4.21,22-10.45,36-17.44,36-9,0-16.8-23.26-20.55-57.12C84.91,559,82,564.44,78.75,564.44c-7.8,0-14.12-32.5-14.12-72.59S71,419.26,78.75,419.26c4.18,0,7.93,9.39,10.52,24.27,4.16-25.68,10.91-42.36,18.55-42.36,9.07,0,16.92,23.6,20.64,57.87,3.64-25,9.15-40.85,15.33-40.85,8.66,0,16,31.28,18.75,74.9,5.13-22.37,12.56-36.4,20.78-36.4s15.64,14,20.76,36.4c2.74-43.62,10.09-74.9,18.75-74.9,6.17,0,11.68,15.9,15.34,40.85,3.7-34.27,11.56-57.87,20.63-57.87C266.41,401.17,273.19,417.86,277.34,443.53ZM44.46,484.71c0-17.92,3.59-32.46,8-32.46s8,14.54,8,32.46-3.59,32.45-8,32.45S44.46,502.63,44.46,484.71Zm261.66,0c0-17.92,3.58-32.46,8-32.46s8,14.54,8,32.46-3.58,32.45-8,32.45S306.12,502.63,306.12,484.71Z"/></svg>