<svg id="Layer_1" data-name="Layer 1" xmlns="http://www.w3.org/2000/svg" viewBox="0 0 1080 1080"><defs><style>.cls-1{fill:#e72b31;}</style></defs><path class="cls-1" d="M644.55,389.94c-1.25,7.45-2.41,14.93-3.78,22.36q-11.67,63.18-23.43,126.35c-1.89,10.19,3.78,15,12.75,19A33.09,33.09,0,0,0,640.93,560c3.65.29,5.33-1.67,5.9-5.06,2.82-16.87,5.55-33.76,8.6-50.59,6.59-36.43,13.35-72.82,20.05-109.23.21-1.14.5-2.27.83-3.76h86.48a64.23,64.23,0,0,1,39.09,13.14c9.46,7,14.45,16.54,15.12,28.31.72,12.69-1.64,25.06-3.83,37.45q-8,44.88-16,89.74c-1.85,10.31-3.9,20.58-5.87,30.88-.11.57-.29,1.13-.36,1.7-1.05,8.44-1,8.87-8.84,9.61-11.58,1.09-23.24,1.49-35.3,2.21,2-12,3.86-23.08,5.81-34.18q7.62-43.34,15.32-86.66c1.71-9.63,3.42-19.26,5.22-28.87,2-10.85-4.35-19.08-15.4-19.34-8.87-.21-17.76-.23-26.63,0-13.83.37-24.28,10.89-27.06,26.6q-12,67.75-24,135.48c-1,5.65-2,6.61-7.86,6.42-18.78-.62-37.56-1.18-56.33-2.11-15.76-.79-28.68-6.94-36.72-21.36-3.72,3.45-7.32,6.73-10.86,10.08-9.39,8.88-20.34,13.22-33.44,12.14-6.85-.57-13.76-.45-20.64-.71-20.13-.76-35.82-9.22-46.29-26.69-.29-.49-.6-1-1.44-2.32-.58,2.48-1,4.15-1.37,5.84-1.22,5.81-2.36,11.64-3.62,17.44-1.12,5.12-2.66,6.23-7.95,6.42-12.9.49-25.52-.58-36.78-7.6-4.13-2.56-7.82-5.85-11.61-8.93-2.34-1.89-4.5-4-7-6.21-1.92,2.1-3.75,3.89-5.33,5.88-8.61,10.82-20,16.3-33.62,16.75s-27.62.49-40.87-4.16c-17.26-6.05-29.66-17.1-32.63-35.75-1.18-7.39-.18-15.35,1-22.86,4.09-25.63,8.55-51.21,13.2-76.75,2.57-14.12,6.14-28,14.22-40.23,12.21-18.52,29.95-28.11,51.27-32,1-.18,2-.5,3-.76h95.31c-.1,1-.13,2.1-.32,3.12-2.59,14-5.32,27.9-7.79,41.88q-9,50.7-17.74,101.46a15.54,15.54,0,0,0,.22,5.88c2.34,10.72,15.07,18.28,27.08,16.1.18-.73.45-1.49.57-2.29,2.87-19.45,5.37-39,8.68-58.36,3-17.42,6-34.91,10.54-52,7.22-27.36,24.16-46,52.38-53.19,3.93-1,7.91-1.76,11.87-2.63ZM412.76,435.61a13.93,13.93,0,0,0-2-.32c-14.48,0-29-.17-43.42.09-11.82.22-21.76,8.89-24.18,20.62-1.17,5.7-2.09,11.45-3.15,17.17-4.23,22.64-8.52,45.28-12.68,67.93-2.23,12.13,3.3,20.55,15.48,21.82a139.21,139.21,0,0,0,28.28.08c13.76-1.39,21-8.81,23.4-22.45,4.93-27.6,9.72-55.23,14.55-82.85C410.32,450.39,411.51,443.07,412.76,435.61Zm181.82-.1c-1-.09-1.77-.23-2.56-.23-13.89,0-27.78-.09-41.67.05-13,.13-22.58,7.82-25,20.55q-8.2,42.5-15.92,85.08c-2.3,12.67,3.42,20.15,16.31,21.12,8,.6,16.06.26,24.09.09,14.47-.32,24.38-8.84,26.85-23.14,4.78-27.6,12-54.77,14.52-82.78C591.78,449.35,593.39,442.53,594.58,435.51Z"/><path class="cls-1" d="M988.64,393.44c-1.42,7.53-2.88,15.05-4.24,22.59q-9,49.82-18,99.64c-1.56,8.71-3.33,17.38-4.56,26.14-1.36,9.66,2.5,15.72,11.64,19.4,6,2.43,5.89,2.4,4.71,9-2,11.08-3.83,22.2-5.78,33.55a74.78,74.78,0,0,1-26.17-6A56.18,56.18,0,0,1,925.08,581c-2.37,2.6-4.59,4.81-6.56,7.23-9.79,12-22.57,17.31-37.86,16.56-9.89-.48-19.9-.65-29.61-2.37-17.39-3.08-37.52-15.27-40.51-40.54-.93-8-.16-16.32,1.12-24.29,4-24.93,8.58-49.77,13.1-74.61,2-10.78,4.77-21.35,9.78-31.21,11.49-22.6,30.3-34.74,55.06-38.19a123.05,123.05,0,0,1,16.4-1c25.91-.11,51.83-.05,77.75,0,1.63,0,3.26.14,4.89.22Zm-50.26,42.07c-1.19-.09-2.1-.23-3-.23-13.78,0-27.55-.08-41.33,0s-24,8.15-26.52,21.68c-5.44,29.53-10.58,59.11-15.75,88.68-1.32,7.58,1.62,13.43,8.66,16.5a36.1,36.1,0,0,0,11.75,3c8,.53,16.14,1,24.11.26,13.24-1.26,21.74-10.53,24.38-25.46q7.68-43.48,15.15-87C936.8,447.21,937.51,441.45,938.38,435.51Z"/><path class="cls-1" d="M298.68,392.51c-1.46,9.41-2.64,18.17-4.2,26.85q-9.21,51.39-18.65,102.73c-6.7,36.28-13.16,72.62-20.51,108.77-6.32,31-26.63,49.06-56.88,56.19a118.05,118.05,0,0,1-25.31,2.81c-26.16.35-52.32.13-78.47.13-.92,0-1.83-.1-3.3-.19a33.63,33.63,0,0,1,1.61-4c5.92-10.3,12.15-20.44,17.74-30.92,2.67-5,6.45-6.56,11.61-6.54q30.66.06,61.31,0a75.9,75.9,0,0,0,10.11-.6c10-1.37,16.86-7.11,19.62-16.63,2.52-8.67,3.83-17.69,5.81-27.21-2.08,0-3.42,0-4.76,0-16.57-.41-33.16-.52-49.71-1.31-28.33-1.36-48.61-24.87-45-53,2.56-19.83,6.53-39.49,10.17-59.18,2.67-14.41,5.35-28.85,8.84-43.08,7.16-29.21,31.56-50.58,61.56-53,19.17-1.56,38.48-1.38,57.74-1.75,12-.24,24.05-.05,36.08-.05Zm-83.39,41.28v.2h-8.4c-16,0-26.2,8.32-29.29,23.93q-2.72,13.69-5.13,27.45c-3.46,19.59-7.05,39.16-10.15,58.81-1.53,9.7,4.43,17.06,14.15,18,6.36.58,12.8.24,19.21.41,7.09.19,14.21.21,21.27.83,6.5.58,8.93-.7,10.08-7.06q9.09-50.16,18-100.33,3.26-18.45-15.45-21.48C224.91,433.74,220.06,434,215.29,433.79Z"/></svg>