<svg id="Layer_1" data-name="Layer 1" xmlns="http://www.w3.org/2000/svg" viewBox="0 0 1080 1080"><defs><style>.cls-1{fill:#43beaa;}.cls-2{fill:#fff;}.cls-3{fill:#161616;}</style></defs><path class="cls-1" d="M64.88,540c0,75.61,61.86,137.47,137.47,137.47S339.82,615.61,339.82,540,278,402.53,202.35,402.53,64.88,464.39,64.88,540Z"/><path class="cls-2" d="M183.45,618.18c-5.16-8.59-12-16.32-20.62-21.48s-17.19-9.45-27.5-12h0a3,3,0,0,0-3.43,3.43c0,.86,0,1.72.86,1.72A84.89,84.89,0,0,0,180,623.34h2.58a.84.84,0,0,0,.86-.86l.86-.86V619.9c0-.86,0-1.72-.86-1.72Z"/><path class="cls-2" d="M284.83,516.8v-.86a80.1,80.1,0,0,0-24.92-39.52c-12-10.31-25.77-18-41.24-20.62h-.86a3,3,0,0,0-3.43,3.44v.86a268.58,268.58,0,0,1-14.61,140c0,.86-.86.86-.86,1.72s-.86.86-1.72.86h-1.71a.84.84,0,0,1-.86-.86l-.86-.86v-1.72s-.86-6-.86-8.59c-5.16-41.24-17.19-80.76-37-117.7a.84.84,0,0,0-.86-.86l-.85-.86H150.8a88.19,88.19,0,0,0-27.49,36.08v2.58a1.85,1.85,0,0,0,1.71,1.72c18.91,12,34.37,27.49,45.54,47.25,11.17,18.9,17.18,41.24,18,62.72a3.16,3.16,0,0,0,.86,2.58,2.66,2.66,0,0,0,1.72.86c1.72,0,4.3.86,6,.86a3.16,3.16,0,0,0,2.58-.86c.86-.86.86-.86.86-1.72A140.45,140.45,0,0,1,229,561.48a142.44,142.44,0,0,1,54.13-41.24c.86,0,.86-.86,1.72-.86Z"/><path class="cls-2" d="M277.1,582.1a3,3,0,0,0-3.44-3.44h-.86a124.19,124.19,0,0,0-67.87,41.24,3.45,3.45,0,0,0,2.57,6h0a92.22,92.22,0,0,0,39.53-12,79.61,79.61,0,0,0,29.21-29.21,3.16,3.16,0,0,0,.86-2.58Z"/><path class="cls-3" d="M411.13,591.55c-6.88,0-13.75-.86-19.77-4.3a34.37,34.37,0,0,1-12.88-12c-2.58-6-4.3-12-4.3-18.05v-2.57h24.06a23.72,23.72,0,0,0,2.58,11.16,12.76,12.76,0,0,0,7.73,3.44c2.58,0,6,0,8.59-1.72,1.72-.86,2.58-3.43,3.44-5.15a23.78,23.78,0,0,0,.86-7.73v-73h26.63v72.17a38.06,38.06,0,0,1-9.45,28.35c-3.44,3.44-8.59,6-12.89,7.73-5.15.86-9.45,1.72-14.6,1.72Z"/><path class="cls-3" d="M474.7,497.9a16.19,16.19,0,0,1-6.87-1.72,22.49,22.49,0,0,1-5.15-4.29,14.6,14.6,0,0,1,0-13.75,8.75,8.75,0,0,1,5.15-4.3c2.58-.85,4.3-1.71,6.87-1.71a16.35,16.35,0,0,1,6.88,1.71,22.77,22.77,0,0,1,5.15,4.3,16.19,16.19,0,0,1,1.72,6.87c0,2.58-.86,4.3-1.72,6.88a8.8,8.8,0,0,1-5.15,4.29,16.2,16.2,0,0,1-6.88,1.72Zm-12,91.07v-79.9h24.05V589Z"/><path class="cls-3" d="M540,591.55c-7.73,0-15.46-1.72-21.48-5.16a39.63,39.63,0,0,1-14.6-14.6,50.94,50.94,0,0,1,0-44.68c3.43-6,7.73-11.17,14.6-14.6A49.23,49.23,0,0,1,540,507.35a46.54,46.54,0,0,1,21.48,5.16c6,3.43,11.17,8.59,13.75,14.6a51,51,0,0,1,0,44.68,39.73,39.73,0,0,1-14.61,14.6A43.14,43.14,0,0,1,540,591.55Zm0-18a17.3,17.3,0,0,0,9.45-2.58c2.58-2.58,5.16-5.16,6-8.59,1.72-4.3,1.72-8.59,1.72-12.89a50.67,50.67,0,0,0-1.72-12,17.77,17.77,0,0,0-5.15-8.59c-2.58-2.58-6-3.44-9.45-3.44a14.5,14.5,0,0,0-8.59,2.58c-2.58,1.72-4.3,5.16-6,7.73-1.71,4.3-1.71,8.6-1.71,12.89a66.26,66.26,0,0,0,1.71,12.89c.86,3.44,2.58,6,6,8.59.86,1.72,4.29,2.58,7.73,3.44Z"/><path class="cls-3" d="M634.51,591.55c-7.73,0-15.47-.86-22.34-3.44s-12.89-6-17.18-11.17a29.5,29.5,0,0,1-6.88-18v-1.72h26.64c0,2.58.86,6,2.57,7.74,1.72,2.57,4.3,3.43,7.74,4.29a43,43,0,0,0,10.31,1.72c4.29,0,9.45-.86,12.88-2.58a15.22,15.22,0,0,0,4.3-3.43c.86-1.72,1.72-3.44.86-5.16a9.16,9.16,0,0,0-1.72-5.15,23,23,0,0,0-5.15-4.3,48.59,48.59,0,0,0-10.31-3.44l-19.76-5.15c-5.16-.86-9.46-3.44-13.75-6.87-3.44-2.58-6.87-6-8.59-9.46a34.41,34.41,0,0,1-2.58-12.88c0-6.88,1.72-12.89,6-18.05A39.72,39.72,0,0,1,613,483.3c6-3.44,13.75-4.3,20.62-3.44,7.73,0,14.6.86,21.48,3.44,6,1.71,11.17,6,14.6,10.31,3.44,5.15,6,11.16,6,17.18H650a12.22,12.22,0,0,0-1.72-5.16,6.68,6.68,0,0,0-3.43-3.43c-4.3-1.72-8.59-3.44-12.89-2.58a26.44,26.44,0,0,0-11.17,2.58,12,12,0,0,0-3.44,2.57c-.85.86-.85,2.58-.85,4.3a11,11,0,0,0,.85,5.16c.86,1.71,2.58,2.57,4.3,3.43,2.58.86,6,2.58,8.59,2.58l12.89,3.44a121.45,121.45,0,0,1,18.9,6.87A32.75,32.75,0,0,1,674,540a20.5,20.5,0,0,1,4.3,15.46,36.79,36.79,0,0,1-5.16,18.91,42,42,0,0,1-15.46,12,53.82,53.82,0,0,1-23.2,5.16Z"/><path class="cls-3" d="M714.41,591.55A40.16,40.16,0,0,1,699.8,589a18.64,18.64,0,0,1-9.45-8.59c-2.57-4.3-3.43-8.59-3.43-13.75a23.91,23.91,0,0,1,2.57-11.17c1.72-3.43,4.3-6,7.74-8.59a51.42,51.42,0,0,1,29.21-6h12v-2.58c0-2.58,0-6-.86-8.59a22.55,22.55,0,0,0-4.3-5.15c-2.58-.86-5.15-1.72-6.87-1.72a17.38,17.38,0,0,0-9.45,2.57L714.41,528c-.86.86-.86,2.58-.86,3.44h-23.2a17.48,17.48,0,0,1,5.16-12.89,26.44,26.44,0,0,1,12.89-8.59,73.1,73.1,0,0,1,19.76-2.58c6.87,0,13.74.86,19.76,3.44,5.15,1.72,8.59,6,11.17,10.31,2.57,6,4.29,12,3.43,18V589H741l-.85-9.45c-2.58,3.44-5.16,6.87-9.46,8.59-5.15,1.72-11.16,3.44-16.32,3.44ZM723,574.37a30.42,30.42,0,0,0,8.59-1.72c2.58-.86,4.3-3.44,5.16-5.16,1.72-2.57,1.72-6,1.72-8.59v-5.15h-8.6a41.71,41.71,0,0,0-10.3.86,13.75,13.75,0,0,0-6,3.43c-.86.86-1.72,1.72-1.72,2.58s-.86,2.58-.86,3.44a7.74,7.74,0,0,0,.86,4.29,11.87,11.87,0,0,0,2.58,3.44,14.52,14.52,0,0,0,8.59,2.58Z"/><path class="cls-3" d="M799.47,591.55A40.12,40.12,0,0,1,784.86,589a18.64,18.64,0,0,1-9.45-8.59c-2.58-4.3-3.44-8.59-3.44-13.75a23.79,23.79,0,0,1,2.58-11.17c1.72-3.43,4.3-6,7.73-8.59,9.45-5.15,19.76-6.87,30.07-6.87h12v-2.58c0-2.57,0-6-.86-8.59a10.26,10.26,0,0,0-4.29-4.29c-2.58-.86-5.16-1.72-6.88-1.72a17.41,17.41,0,0,0-9.45,2.57L800.33,528c-.86.86-.86,2.58-.86,3.44h-23.2a17.51,17.51,0,0,1,5.15-12.89,26.49,26.49,0,0,1,12.89-8.59,73.21,73.21,0,0,1,19.76-2.58c6.88,0,13.75.86,19.76,3.44,5.16,1.72,8.6,6,11.17,10.31,2.58,6,4.3,12,3.44,18V589H826.1l-.86-9.45c-2.58,3.44-5.15,6.87-9.45,8.59-5.15,1.72-11.17,3.44-16.32,3.44Zm8.59-17.18a30.49,30.49,0,0,0,8.59-1.72c2.58-.86,4.3-3.44,5.16-5.16,1.71-2.57,1.71-6,1.71-8.59v-5.15h-8.59a41.83,41.83,0,0,0-10.31.86,13.71,13.71,0,0,0-6,3.43c-.86.86-1.72,1.72-1.72,2.58s-.86,2.58-.86,3.44a7.74,7.74,0,0,0,.86,4.29,11.87,11.87,0,0,0,2.58,3.44,14.48,14.48,0,0,0,8.59,2.58Z"/><path class="cls-3" d="M878.51,589l-25.77-79.9h25.77l14.61,53.27,14.6-53.27h23.2L905.14,589Z"/><path class="cls-3" d="M939.51,589v-79.9h23.2v11.17c2.58-4.3,6-7.73,10.31-9.45,4.29-2.58,8.59-3.44,13.74-3.44a33.69,33.69,0,0,1,15.47,3.44c4.3,2.58,7.73,6,9.45,10.31,2.58,5.15,3.44,11.17,3.44,17.18v51.55H991.06V545.15c0-5.15-.86-10.3-3.44-14.6-.86-1.72-2.57-2.58-4.29-3.44a10.91,10.91,0,0,0-5.16-.86c-1.72,0-4.29,0-6,.86a18,18,0,0,0-5.16,3.44c-2.57,4.3-4.29,9.45-3.43,14.6V589Z"/></svg>