<svg id="Layer_1" data-name="Layer 1" xmlns="http://www.w3.org/2000/svg" viewBox="0 0 1080 1080"><defs><style>.cls-1{fill:#212121;}.cls-2{fill:#00acd8;}</style></defs><rect class="cls-1" x="49.05" y="338.71" width="981.9" height="402.58"/><path class="cls-2" d="M690.47,469.63a67.14,67.14,0,1,0,67.14,67.14A67.12,67.12,0,0,0,690.47,469.63Zm0,99.25a32.12,32.12,0,1,1,32.11-32.11A32.11,32.11,0,0,1,690.47,568.88Z"/><path class="cls-2" d="M316.34,471.26H292c-10.41,0-15.34,2.63-21.34,7.39L222.3,525.94V474.19a3,3,0,0,0-3-3H188.45a3,3,0,0,0-3,3V601.32a3,3,0,0,0,3,3h30.87a3,3,0,0,0,3-3V548.54l49.87,49.36c5.08,4,11.14,6.08,19.17,6.08H315c7.69,0,4.85-4.43,4.85-4.43L258,537.69l62.06-62.08S324,471.26,316.34,471.26Z"/><path class="cls-2" d="M459.58,471.26h-24.3c-10.43,0-15.35,2.63-21.36,7.39L366.49,525V474.19a3,3,0,0,0-3-3H332.65a3,3,0,0,0-3,3V601.32a3,3,0,0,0,3,3h30.86a3,3,0,0,0,3-3V549.49L415.4,597.9c5.09,4,11.15,6.08,19.18,6.08h23.69c7.69,0,4.86-4.43,4.86-4.43l-61.86-61.86,62.07-62.08S467.27,471.26,459.58,471.26Z"/><path class="cls-2" d="M892.79,599.15l-49-61.74,47.61-61.8s3.94-4.35-3.75-4.35H867.69c-9.72,0-15.48.92-20.27,6.78l-23.86,33.81-25.75-34.21c-4.77-5.87-10.32-6.38-20.15-6.38H757.92c-7.69,0-3.95,4.35-3.95,4.35l48.95,61.8-48.34,62.14s-2.84,4.43,4.86,4.43h17.93c6.07,0,15.49.44,21.24-5.34.1-.09,12.95-19,24.95-34.56,12.1,15.37,25.09,33.86,25.19,33.95,5.77,5.78,15.89,6,22,6h16.6C895,604,892.79,599.15,892.79,599.15Z"/><path class="cls-2" d="M543.15,471.35c-12.33,1-23,6.81-31.78,15.17V426.24a1.84,1.84,0,0,0-2.66-1.84l-31.49,11.79a4.41,4.41,0,0,0-2.66,3.84V600.89a2.85,2.85,0,0,0,2.84,2.85h31.13a2.8,2.8,0,0,0,2.74-2.4V544.46h0c0-.3,0,3.54,0,3.22a46,46,0,0,1,32.89-43.84c18.09-5.35,33.54,7.81,33.54,26s-15.45,37.64-33.54,39.85c-7,.85-12.89.34-17.66-1.34v35.17h17.13c40,0,67.77-29,68.63-66.37C613.21,496.59,584.53,468.05,543.15,471.35Z"/></svg>