<svg id="Layer_1" data-name="Layer 1" xmlns="http://www.w3.org/2000/svg" viewBox="0 0 1080 1080"><defs><style>.cls-1{fill:#59bc6a;}</style></defs><path class="cls-1" d="M900.1,473.87H880.52a5.4,5.4,0,0,0-5.41,5.4h0V600.73a5.41,5.41,0,0,0,5.41,5.41H900.1a5.41,5.41,0,0,0,5.41-5.41h0V479.28a5.41,5.41,0,0,0-5.4-5.41h0M822,527.68l-15.85-3.27c-13-2.73-18.4-6.92-18.4-14.11,0-8.73,7.24-14.28,18.24-14.28,9.41,0,16.83,4.75,19.19,12a5.24,5.24,0,0,0,4.91,3.79h18.81a5.36,5.36,0,0,0,5.33-6.15c-3.47-20.9-22.38-34.79-48.67-34.79-29.65,0-48.9,16.83-48.9,42.48,0,20.65,11.59,33.75,34.07,38.3l16.19,3.46c14.06,3,19.42,6.91,19.42,14.19,0,8.64-8,14.64-19.67,14.64-11.1,0-19.26-4.48-21.85-11.77a5.85,5.85,0,0,0-5.11-3.88H760a5.36,5.36,0,0,0-5.33,6.11c3.33,21.68,22.17,34.83,50.68,34.83,32.2,0,51.79-16.56,51.79-43.94,0-20.83-10.9-32.56-35.18-37.57m-397.38-53.8H346.48a5.4,5.4,0,0,0-3.77,1.53l-.06.06-.09.09a5.39,5.39,0,0,0-1.5,3.74V600.72a5.42,5.42,0,0,0,1.51,3.75.27.27,0,0,1,.07.08l.09.08a5.4,5.4,0,0,0,3.75,1.51h78.1a5.42,5.42,0,0,0,5.42-5.42V581.16a5.43,5.43,0,0,0-5.43-5.43H371.46V555.21h53.11a5.44,5.44,0,0,0,5.43-5.43V530.22a5.42,5.42,0,0,0-5.42-5.42H371.46V504.28h53.11a5.43,5.43,0,0,0,5.43-5.43h0V479.3a5.43,5.43,0,0,0-5.43-5.43M134.93,575.73H81.83V479.3a5.43,5.43,0,0,0-5.43-5.43H56.85a5.43,5.43,0,0,0-5.43,5.42V600.72a5.4,5.4,0,0,0,1.52,3.75l.07.08.08.07a5.39,5.39,0,0,0,3.75,1.52h78.09a5.44,5.44,0,0,0,5.43-5.43h0V581.16a5.43,5.43,0,0,0-5.42-5.43h0M316.61,473.87H297.07a5.43,5.43,0,0,0-5.43,5.43h0v72.13L236,476.28a5.79,5.79,0,0,0-.43-.55l0,0a3.26,3.26,0,0,0-.31-.33l-.1-.09-.29-.25-.15-.1c-.14-.11-.29-.2-.44-.3l-.3-.16-.17-.08-.31-.13-.17-.07-.32-.1-.19-.05a4.64,4.64,0,0,0-.83-.14h-20a5.44,5.44,0,0,0-5.44,5.43V600.71a5.44,5.44,0,0,0,5.44,5.43h19.54a5.43,5.43,0,0,0,5.43-5.43h0V528.6l55.72,75.25a5.37,5.37,0,0,0,1.77,1.58l.15.09.26.12.26.11.17.06a2.29,2.29,0,0,0,.37.12l.07,0a5.36,5.36,0,0,0,1.39.19h19.55a5.43,5.43,0,0,0,5.43-5.43h0V479.29a5.43,5.43,0,0,0-5.43-5.42h0m-134.53,0H162.49a5.41,5.41,0,0,0-5.41,5.41h0V600.72a5.42,5.42,0,0,0,5.41,5.42h19.59a5.42,5.42,0,0,0,5.41-5.42V479.28a5.41,5.41,0,0,0-5.41-5.41h0m841.15,90.46h-21.68a5.37,5.37,0,0,0-4.75,2.83,22,22,0,0,1-41.47-10.44V523.28a22,22,0,0,1,41.47-10.44,5.37,5.37,0,0,0,4.75,2.83h21.68a5.3,5.3,0,0,0,5.2-6.46,50.19,50.19,0,0,0-48.78-38.39h-4.56A50.18,50.18,0,0,0,924.92,521v38a50.18,50.18,0,0,0,50.18,50.17h4.55a50.19,50.19,0,0,0,48.78-38.39,5.3,5.3,0,0,0-5.2-6.46M613.86,473.87H590.37a5.32,5.32,0,0,0-4.57,2.59l-32.66,54.67-32.66-54.67a5.31,5.31,0,0,0-4.57-2.59H492.42a5.41,5.41,0,0,0-5.41,5.41V600.73a5.41,5.41,0,0,0,5.41,5.41H512a5.41,5.41,0,0,0,5.41-5.41v-76l28.9,48.37a5.31,5.31,0,0,0,4.57,2.59h4.52a5.31,5.31,0,0,0,4.57-2.59l28.89-48.37v76a5.42,5.42,0,0,0,5.42,5.41h19.58a5.41,5.41,0,0,0,5.41-5.41h0V479.28a5.41,5.41,0,0,0-5.41-5.41m121.63,0H715.91a5.41,5.41,0,0,0-5.42,5.41h0v78.21a21.28,21.28,0,1,1-42.56,0V479.28a5.42,5.42,0,0,0-5.42-5.41H642.93a5.4,5.4,0,0,0-5.41,5.4h0v81.25a48.65,48.65,0,0,0,48.65,48.65h6.08a48.65,48.65,0,0,0,48.65-48.65V479.28a5.42,5.42,0,0,0-5.41-5.42h0"/></svg>