<svg id="Layer_1" data-name="Layer 1" xmlns="http://www.w3.org/2000/svg" xmlns:xlink="http://www.w3.org/1999/xlink" viewBox="0 0 1080 1080"><defs><style>.cls-1{fill:url(#linear-gradient);}.cls-2{fill:#4279bd;}.cls-3{fill:url(#linear-gradient-2);}.cls-4{fill:#1a2831;}</style><linearGradient id="linear-gradient" x1="107.42" y1="498.5" x2="107.42" y2="571.5" gradientTransform="matrix(1, 0, 0, -1, 0, 1082)" gradientUnits="userSpaceOnUse"><stop offset="0" stop-color="#437abe"/><stop offset="1" stop-color="#3867b1"/></linearGradient><linearGradient id="linear-gradient-2" x1="128.34" y1="546.95" x2="326.34" y2="536.95" gradientTransform="matrix(1, 0, 0, -1, 0, 1082)" gradientUnits="userSpaceOnUse"><stop offset="0" stop-color="#3a67b1"/><stop offset="0.4" stop-color="#3a67b1"/><stop offset="0.83" stop-color="#3f70b7"/><stop offset="1" stop-color="#437abe"/></linearGradient></defs><path id="Logo2" class="cls-1" d="M148.35,475.73c-12.27,0-22.69,8.61-31.41,21.78-12.33,18.61-19.88,46.33-19.88,73,0,11,2.41,19.41,5.56,24.51L76.14,612.41C69.34,601.1,66,586.26,66,569.35c0-30.75,8.44-62.8,24.49-87.55,14.24-21.95,34.79-37.3,58.36-37.3Z"/><path id="Logo0" class="cls-2" d="M97.06,570.46c0,11,2.41,19.41,5.56,24.51a19,19,0,0,0,16.57,9.51c8.1,0,15.51-2,29.79-21.76,11.44-15.83,24.92-38.05,34-52l15.36-23.6c10.67-16.39,23-34.61,37.18-47,11.56-10.08,24-15.68,36.58-15.68,21.07,0,41.14,12.21,56.5,35.11,16.81,25.08,25,56.67,25,89.27,0,19.38-3.82,33.62-10.32,44.87-6.28,10.88-18.52,21.75-39.11,21.75v-31c17.63,0,22-16.2,22-34.74,0-26.42-6.16-55.74-19.73-76.69-9.63-14.86-22.11-23.94-35.84-23.94-14.85,0-26.8,11.2-40.23,31.17-7.14,10.61-14.47,23.54-22.7,38.13l-9.06,16.05c-18.2,32.27-22.81,39.62-31.91,51.75-15.95,21.24-29.57,29.29-47.5,29.29-21.27,0-34.72-9.21-43-23.09C69.34,601.1,66,586.26,66,569.35Z"/><path id="Logo1" class="cls-3" d="M90.49,481.8c14.24-21.95,34.79-37.3,58.36-37.3,13.65,0,27.22,4,41.39,15.61,15.5,12.65,32,33.48,52.63,67.81l7.39,12.32c17.84,29.72,28,45,33.93,52.22,7.64,9.26,13,12,19.94,12,17.63,0,22-16.2,22-34.74l27.4-.86c0,19.38-3.82,33.62-10.32,44.87-6.28,10.88-18.52,21.75-39.11,21.75-12.8,0-24.14-2.78-36.68-14.61-9.64-9.08-20.91-25.21-29.58-39.71L212.08,538.1c-12.94-21.62-24.81-37.74-31.68-45-7.39-7.85-16.89-17.33-32.05-17.33-12.27,0-22.69,8.61-31.41,21.78Z"/><path id="Text" class="cls-4" d="M413.94,450.54h35.93L511,561.06l61.1-110.52h35.15v181.6H577.9V493l-53.58,96.38h-27.5L443.25,493V632.14H413.94Zm285.11,67.71c-21,0-33.68,15.82-36.71,35.41h71.34c-1.47-20.18-13.11-35.41-34.63-35.41Zm-65.77,46.57c0-41.22,26.64-71.22,66.28-71.22,39,0,62.27,29.62,62.27,73.42v8.05H662.34c3.53,21.31,17.67,35.67,40.47,35.67,18.19,0,29.56-5.55,40.34-15.7l15.57,19.07c-14.67,13.49-33.33,21.27-57,21.27C658.86,635.38,633.28,604.09,633.28,564.82Zm164.09-44h-27v-24h27V457.16h28.28v39.69h41v24h-41v60.83c0,20.77,6.64,28.15,23,28.15a95,95,0,0,0,18-1.69v23.74a84.22,84.22,0,0,1-23.48,3.24q-45.79,0-45.79-50.07Zm188.35,23.34c-5.68-14.34-18.35-24.9-37-24.9-24.2,0-39.69,17.17-39.69,45.14,0,27.27,14.26,45.27,38.53,45.27,19.08,0,32.7-11.1,38.13-24.91ZM1014,632.14H986.24V613.2c-7.76,11.15-21.88,22.18-44.75,22.18-36.78,0-61.36-30.79-61.36-71,0-40.54,25.17-70.83,62.92-70.83,18.66,0,33.3,7.46,43.19,20.63V496.85H1014Z"/></svg>