<svg id="Layer_1" data-name="Layer 1" xmlns="http://www.w3.org/2000/svg" viewBox="0 0 1080 1080"><defs><style>.cls-1{fill:#379cd7;}</style></defs><path class="cls-1" d="M705,501.68A38.32,38.32,0,1,1,666.71,540,38.45,38.45,0,0,1,705,501.68m0-25.55A63.87,63.87,0,1,0,768.91,540,63.95,63.95,0,0,0,705,476.13"/><path class="cls-1" d="M308.67,479.92v10.36a63.88,63.88,0,1,0,0,98.75v10.36h23.48V479.92Zm-39,99.79A39.71,39.71,0,1,1,309.36,540a39.72,39.72,0,0,1-39.7,39.71"/><path class="cls-1" d="M959.5,479.92v10.36a63.88,63.88,0,1,0,0,98.75v10.36H983V479.92Zm-38.67,99.79A39.71,39.71,0,1,1,960.54,540a39.72,39.72,0,0,1-39.71,39.71"/><path class="cls-1" d="M811,487.52c-13.81,8.63-25.54,24.17-25.54,51.79v60.42H811V539.31c0-39.71,41.09-37.63,41.09-37.63V476.13h0c-.34,0-22.44-.69-41.09,11.39"/><path class="cls-1" d="M453.68,488.9A63.88,63.88,0,0,0,351.48,540v60.08H377V540a38.33,38.33,0,0,1,76.65,0v60.08h25.55V540a63.09,63.09,0,0,0-25.55-51.1"/><path class="cls-1" d="M612.16,441.6a11.64,11.64,0,0,0-11.74,11.74v36.94a63.88,63.88,0,1,0,0,98.75v10.36H623.9V441.6ZM561.41,579.71A39.71,39.71,0,1,1,601.11,540c.35,21.75-17.61,39.71-39.7,39.71"/><path class="cls-1" d="M125.33,476.13a64.15,64.15,0,0,0-40.39,14.5V480.27H61.46V638.4H73.2a11.64,11.64,0,0,0,11.74-11.74V589.37A63.78,63.78,0,0,0,189.21,540a63.51,63.51,0,0,0-63.88-63.87M124,579.71A39.71,39.71,0,1,1,163.66,540,39.72,39.72,0,0,1,124,579.71"/><path class="cls-1" d="M1006.8,479.92a11.74,11.74,0,1,1,11.74-11.74,11.64,11.64,0,0,1-11.74,11.74m0-22.09a10.17,10.17,0,0,0-10.36,10.35,10.36,10.36,0,1,0,10.36-10.35m3.11,17.26-3.45-5.18H1004v5.18h-1.73V461.62h5.53a4,4,0,0,1,4.14,4.15,4.11,4.11,0,0,1-3.45,4.14l3.45,5.53h-2.07ZM1007.84,463H1004v5.17h3.8a2.59,2.59,0,0,0,2.41-2.41,2.67,2.67,0,0,0-2.41-2.76"/></svg>