<svg id="Layer_1" data-name="Layer 1" xmlns="http://www.w3.org/2000/svg" xmlns:xlink="http://www.w3.org/1999/xlink" viewBox="0 0 1080 1080"><defs><style>.cls-1{fill:#0c6db6;}.cls-2{fill:#010101;}.cls-3{fill:#fff;}.cls-4{fill:url(#linear-gradient);}.cls-5{fill:url(#linear-gradient-2);}.cls-6{fill:url(#linear-gradient-3);}.cls-7{fill:url(#linear-gradient-4);}.cls-8{fill:none;}</style><linearGradient id="linear-gradient" x1="58.74" y1="2731.95" x2="235.73" y2="2731.95" gradientTransform="translate(0 -2238)" gradientUnits="userSpaceOnUse"><stop offset="0" stop-color="#010101"/><stop offset="0.51" stop-color="#e0e0df"/><stop offset="0.88" stop-color="#010101"/></linearGradient><linearGradient id="linear-gradient-2" x1="144.48" y1="2695.67" x2="213.88" y2="2756.15" gradientTransform="translate(0 -2238)" gradientUnits="userSpaceOnUse"><stop offset="0" stop-color="#b5b6b6" stop-opacity="0"/><stop offset="0.12" stop-color="#969696" stop-opacity="0.16"/><stop offset="0.56" stop-color="#2b2c2b" stop-opacity="0.74"/><stop offset="0.75" stop-color="#010101"/></linearGradient><linearGradient id="linear-gradient-3" x1="-5305.65" y1="2695.68" x2="-5236.26" y2="2756.15" gradientTransform="matrix(-1, 0, 0, 1, -5155.64, -2238)" xlink:href="#linear-gradient-2"/><linearGradient id="linear-gradient-4" x1="158.32" y1="2889.41" x2="223.26" y2="2845.18" gradientTransform="translate(0 -2238)" gradientUnits="userSpaceOnUse"><stop offset="0" stop-color="#b5b6b6" stop-opacity="0"/><stop offset="0.05" stop-color="#a9a8a8" stop-opacity="0.05"/><stop offset="0.27" stop-color="#6c6d6d" stop-opacity="0.3"/><stop offset="0.43" stop-color="#3f3f3f" stop-opacity="0.53"/><stop offset="0.56" stop-color="#1c1c1c" stop-opacity="0.73"/><stop offset="0.72" stop-color="#090909" stop-opacity="0.89"/><stop offset="0.87" stop-color="#010101"/></linearGradient></defs><path class="cls-1" d="M998.2,1065.58l-4.33,16.9H1034l-14.74,59-10.84,43.49h26.3l10.84-43.49,14.74-59h40l4.19-16.9Zm802.84,1.3c-2.14,8.78-4.11,15.64-6.07,21.53h-9.83l3.18-2c5.48-3.56,8.18-5.39,8.24-5.64-2.93-6.61-5.4-11.17-7.66-13.44-.06-.41-4.24,2.14-12.28,7.37l-2.75,1.73a15,15,0,0,0,1,1.45,81.76,81.76,0,0,1,7.08,10.55h-8.09l-2.6,12.14h18.21l-1.3,2.45-1.3,2.46h-19.66l-2.45,12.14h13.58a68.65,68.65,0,0,1-20.66,17.05L1770.4,1074h-35.11l-13.15,62.71c-.35,1.64-.75,3.21-1.16,4.77a110.88,110.88,0,0,1-13.72,32.66,54,54,0,0,1,9.24,10.55c7.36-10.5,13.14-23.94,17.49-40.46h7.66l-4.34,20.52c-.34,2.81-3.2,4.07-8.38,3.61a53.59,53.59,0,0,1,1.16,15.31c12.51-.08,18.83-2.9,19.07-8.66l7.08-33.53.43-2.31c.75.74,1.48,1.51,2.17,2.31a25.51,25.51,0,0,1,3.9,5.93,33.19,33.19,0,0,0,6.79-4.63l-4.62,15h42l-.72,3.9c-1.67,8.12-4,12.06-6.94,11.56l2.31-11.56h-45.08l-2.6,12h36.7a27.49,27.49,0,0,1,2.6,14c11.71-.38,18.88-2.18,21.68-5.49a15.78,15.78,0,0,0,2.74-5.49c1.91-5.73,4.16-14.11,6.94-25.15l1.59-6.35h-15.61l.87-3.76,1.15-5.78a80.18,80.18,0,0,0,7.37,5.78,28.46,28.46,0,0,0,4.19,2.46c.67-.84,1.36-1.67,2-2.46a128.72,128.72,0,0,1,11.41-12.28q-14.13-4-20.66-11.56h20.66l2.46-12.14h-37.14a21.33,21.33,0,0,0,2.6-4.91h30.64l2.45-12.14h-11a165.13,165.13,0,0,1,12.86-11.56l-12.86-7.95a177.09,177.09,0,0,1-13.44,15.32L1822,1089h-11.13l1.59-5.06,2-5.06c1.69-4.26,3.08-7.49,4-9.54.09-.83-.46-1.26-2.17-1.44A129.75,129.75,0,0,0,1801,1066.88Zm77.74,1c-3.92,1.3-10,3.68-18.5,7.22a143.18,143.18,0,0,1,5.92,22.83c3-1.13,9.51-3.37,19.37-6.93C1881.46,1076.21,1879.11,1068.47,1878.78,1067.89Zm14.3,6.5-3,14h11.56l-5.49,26.15h-14.45l-3,14h14.59l-2.74,12.86-8.81,41.76h16.18l8.67-41.76,2.75-12.86h11.55l-2.31,10.55c-.17.78-.29,1.54-.43,2.31-3,15.49-1.44,27.61,4.48,36.27,3.6,5.12,8,7.29,13.15,6.5,5.37.28,10.75-8.4,16-26q-6.54-3-13.15-5.78c-2.63,8.07-4.26,10.69-4.91,7.8-1-4.11-.82-10.37.57-18.78.45-2.72,1-5.64,1.74-8.82l12.28-58.23Zm-240,1.45-5.49,22.25h-21.1l-4,16.47h77.16l-46.53-38.72Zm93.06,10.55h7.65l-3.61,17.19h-7.51Zm171.52,2h12.13l-5.49,26.15h-12.13Zm-782.9,4.77q-24,0-41.76,12.57a57.37,57.37,0,0,0-22.83,33.38c-.2.8-.41,1.52-.57,2.31-2.65,12.76-.3,23.16,7.08,31.07,7.86,8.32,20,12.42,36.41,12.42,28,0,49.41-17.06,51.59-18.93l-12.14-2.74c-2.86.66-18.41,5.16-34,3.76-19.62-1.77-24.07-16.13-23-23.27h78.75l.72-2.31.58-2.46c3.57-14.32,1.68-25.58-5.64-33.66s-19.06-12.14-35.26-12.14Zm233.37,0a82.76,82.76,0,0,0-45.95,13.29c-13.85,8.93-22.34,20-25.58,33-.18.71-.44,1.32-.58,2-2.42,12,.79,22.21,9.54,30.49q13.92,13,39.45,13,15.48,0,32.51-6.35l6.65-26.45c-7.56,5.82-13.9,9.69-18.93,11.71a45,45,0,0,1-16.91,3.18c-9.56,0-16.8-2.57-21.67-7.81-4.31-4.71-5.86-10.7-4.63-17.77.14-.78.38-1.51.58-2.31,2-8,6.79-14.66,14.45-19.94a44.52,44.52,0,0,1,25.87-8c6.09,0,11,1,15,3.18s8.34,6,12.72,11.56l6.65-26.73c-8.62-4.1-18.34-6.07-29.19-6.07Zm95.22,0q-24.06,0-41.76,12.57a57.32,57.32,0,0,0-22.83,33.38c-.2.8-.41,1.52-.58,2.31-2.64,12.76-.31,23.16,7.08,31.07,7.86,8.32,20,12.42,36.42,12.42,28,0,49.41-17.06,51.58-18.93l-12.13-2.74c-2.86.66-18.41,5.16-34,3.76-19.62-1.77-24.09-16.13-23-23.27h78.76l.72-2.31.58-2.46c3.58-14.32,1.81-25.58-5.49-33.66s-19.21-12.14-35.41-12.14Zm-204.9,2.45q-16.71,0-32.65,10.41l-23.56-8-10.83,43.35-10.84,43.49h25.58l10.4-41.9c.13-.54.3-1.1.43-1.59,2.66-10,6.23-17.11,10.55-21.24,4.64-4.39,11.07-6.5,19.51-6.5,7.75,0,12.78,1.57,14.88,4.91s2.15,9.21,0,17.77l-1.16,5.06-11,43.49h25.58l10.84-43.49,2.45-9.83c3.07-12.24,2.23-21-2.6-26.44-5.56-6.36-14.79-9.54-27.6-9.54Zm326.43,0q-16.72,0-32.66,10.41l-23.55-8-10.84,43.35L1507,1184.93h25.58L1543,1143c.14-.54.3-1.1.44-1.59,2.66-10,6.21-17.11,10.54-21.24,4.64-4.39,11.07-6.5,19.51-6.5,7.75,0,12.77,1.57,14.88,4.91s2.15,9.21,0,17.77l-1.3,5.06-10.84,43.49h25.58l10.84-43.49,2.46-9.83c3.07-12.24,2.22-21-2.61-26.44-5.55-6.36-14.8-9.54-27.59-9.54Zm259.66,9.11-3,14.16h14.3l-4.77,22.54-3,15c-.66,3.14-3.17,6.42-7.52,10a10.55,10.55,0,0,0-2.16,2,40.28,40.28,0,0,0,8.38,14.31c.3.08,2-1.41,4.91-4.34,4.35-4.61,15.37-14.76,33.24-30.49-.06-.2-1-2.31-2.89-6.21l-.15-.29-2.6-5.78-2.89,2.46c-1.39,1.22-2.73,2.34-3.9,3.32-3.12,2.71-5.49,4.69-7.08,5.93l1.3-5.93,7.66-36.7Zm-713.82,6.5c13.56,0,20.81,5.33,21.67,16h-51a29.07,29.07,0,0,1,5.21-6.65,32.8,32.8,0,0,1,6.93-5.06,37.21,37.21,0,0,1,17.2-4.33Zm328.59,0c13.56,0,20.82,5.33,21.67,16h-51a29.63,29.63,0,0,1,5.21-6.65,33.85,33.85,0,0,1,6.93-5.06,37.21,37.21,0,0,1,17.2-4.33Zm280.76,4.33h7.51l-3.32,16h-7.52Zm55.34,2h4.48a24.33,24.33,0,0,0,2.46,5.05h-11l2-2.6,2-2.45Zm-152.88.72-5.78,23.12-11,43.49h25.43l11-43.49,5.78-23.12Zm137.27,15.75h18.07l-1.45,7.37-1,4.19H1783c.47-1.55.88-2.94,1.31-4.19.48-1.45.86-2.68,1.3-3.76a3.24,3.24,0,0,0-1.3-.58h-7.52l3-3Z"/><path class="cls-2" d="M250.42,616a129.09,129.09,0,1,0-26.6,26.54l-.38.45L249.7,670.1,277.81,643Z"/><circle class="cls-3" cx="147.24" cy="539.19" r="118.98"/><path class="cls-2" d="M147.24,443.38a95.82,95.82,0,1,0,95.82,95.82A95.82,95.82,0,0,0,147.24,443.38Zm0,133.5a37.69,37.69,0,1,1,37.69-37.69A37.68,37.68,0,0,1,147.24,576.88Z"/><circle class="cls-2" cx="147.24" cy="539.19" r="8.18"/><path class="cls-4" d="M101.42,537.25a45.86,45.86,0,0,1,91.63,0h42.68a88.52,88.52,0,0,0-177,0Z"/><path class="cls-5" d="M147.24,450.65v42.69c24.69.31,45.25,20.11,45.84,44.72h42.68C235.16,489.88,195.5,451,147.24,450.65Z"/><path class="cls-6" d="M147.24,450.65v42.69c-24.68.31-45.22,20.11-45.81,44.72H58.74C59.34,489.88,99,451,147.24,450.65Z"/><path class="cls-7" d="M210.34,611.27A95.45,95.45,0,0,1,147.23,635H147v23.16h.28a118.49,118.49,0,0,0,78.28-29.42C220.51,622.88,215.28,617.18,210.34,611.27Z"/><path class="cls-3" d="M264.85,643.24l-64.18-64.32a10.35,10.35,0,1,0-15.73,13.41h0l.38.37,65.4,63.94Z"/><path class="cls-2" d="M578.49,468.24A71.76,71.76,0,1,0,650.24,540,71.76,71.76,0,0,0,578.49,468.24Zm0,118.94A47.18,47.18,0,1,1,625.67,540,47.18,47.18,0,0,1,578.49,587.18Z"/><path class="cls-2" d="M419.9,468.24a71.76,71.76,0,1,0,37.21,133.13V569a47.17,47.17,0,1,1,10-29V669.54a12.29,12.29,0,1,0,24.57,0V540A71.74,71.74,0,0,0,419.9,468.24Z"/><path class="cls-2" d="M736.73,611.76a71.76,71.76,0,1,0-37.21-133.13V511a47.16,47.16,0,1,1-10,29V410.46a12.28,12.28,0,1,0-24.56,0V540A71.74,71.74,0,0,0,736.73,611.76Z"/><path class="cls-2" d="M884,611.76c-40.16,0-59.3-35.94-59.3-54.37V480.53a12.29,12.29,0,0,1,24.58,0v74.08c0,8.35,2.2,32.58,35.59,32.58,27.82,0,33.84-18.32,33.84-27.71V480.54a12.29,12.29,0,1,1,24.58,0v78.25C943.3,573.74,929.39,611.76,884,611.76Z"/><path class="cls-2" d="M1049.32,611.76a12.23,12.23,0,0,0,0-24.45H991.65l49.72-67.12c19.48-26.08,20.17-27.12,20.17-34.42,0-8.35-8.34-16.47-16.7-16.47H972.22a12.23,12.23,0,0,0,0,24.45h59.41s-63.3,83.47-68.86,91.12-2.44,26.89,12.51,26.89Z"/><rect class="cls-8" x="18.46" y="373.11" width="1043.08" height="333.79"/></svg>