<svg id="Layer_1" data-name="Layer 1" xmlns="http://www.w3.org/2000/svg" xmlns:xlink="http://www.w3.org/1999/xlink" viewBox="0 0 1080 1080"><defs><style>.cls-1{fill:#010101;}.cls-2{fill:url(#linear-gradient);}</style><linearGradient id="linear-gradient" x1="-1817.94" y1="967.98" x2="-1800.56" y2="991.29" gradientTransform="matrix(6.34, 0, 0, -6.34, 11680.07, 6774.76)" gradientUnits="userSpaceOnUse"><stop offset="0.45" stop-color="#ed1c66"/><stop offset="1" stop-color="#f05565"/></linearGradient></defs><path id="path42" class="cls-1" d="M367.6,483.51v124.9h27.09V567.3c0-21,11.57-62.64,58.43-56.43V483.52h-12c-13.74,0-34.25,4.43-46.48,23.27V483.52H367.6Z"/><path id="path44" class="cls-1" d="M521.18,610.79c25.68,0,49.38-12.93,59.14-35.27l-23.27-7.92c-6,12.12-17.33,20.24-35.08,20.24-18,0-36.53-12.91-36.53-33h98.13c-.17-3-.38-5.88-.38-8.17,0-35.42-27.76-64.12-62-64.12s-62,28.7-62,64.12,27.76,64.12,62,64.12Zm.8-105.67c17.4,0,33.95,12.91,36.1,31.08H485.9c0-15.53,18.69-31.08,36.08-31.08Z"/><path id="path46" class="cls-1" d="M646.3,504.65c12.43,0,21.06,6.14,28.69,16.26l21-6.7s-10.53-31.56-50.21-31.56c-28.69,0-47.33,15.77-47.33,37.77,0,36.54,72.16,30,75.07,51.64,1.09,8.18-6.22,16.26-24.39,16.26s-29.65-13.87-33.47-23.42L592.27,573s12.43,36.82,56.91,36.82c40.16,0,50.68-23.91,50.68-39.68,0-42.09-76.5-28.22-76.5-51.64,0-8.15,10.51-13.88,22.94-13.88Z"/><path id="path48" class="cls-1" d="M715.64,520.42c0,36.54,72.16,30,75.07,51.64,1.09,8.18-6.22,16.26-24.39,16.26s-29.65-13.87-33.47-23.42L709.42,573s12.43,36.82,56.91,36.82c40.16,0,50.68-23.91,50.68-39.68,0-42.09-76.5-28.22-76.5-51.64,0-8.14,10.52-13.87,23-13.87s21.06,6.14,28.69,16.26l21-6.7S802.66,482.66,763,482.66c-28.7,0-47.34,15.77-47.34,37.76Z"/><path id="path50" class="cls-1" d="M825.94,546.25A64.07,64.07,0,1,0,890,482.18,64.07,64.07,0,0,0,825.94,546.25Zm103.6,0A39.53,39.53,0,1,1,890,506.72,39.53,39.53,0,0,1,929.54,546.25Z"/><path id="path59" class="cls-2" d="M290.56,596.14c-2.15-1.41-9-5.63-18-11.2l14.65-9c26.73-16.38,26.77-55.2.06-71.63L190,444.46c-28-17.23-64.06,2.92-64.06,35.8v48.45a56.51,56.51,0,0,1,35.54-18.81V483A8.88,8.88,0,0,1,175,475.42l92.34,57.2a8.88,8.88,0,0,1,0,15.11L239.6,564.79c-16.83-10.26-32.87-20-39.4-24-15.31-9.24-18.18-12.75-32.52-12.75-27.41,0-41.75,24.87-41.75,37v34.68c0,32.85,36,53,64,35.83l48.84-29.93c16.86,10.36,30.32,18.6,32.21,19.67,5.49,3.1,16.25,8.6,25.34-2.39s1.9-21.77-5.75-26.78ZM175,604.55A8.88,8.88,0,0,1,161.45,597V573.56a8.65,8.65,0,0,1,13.2-7.37L206,585.48Z"/></svg>