<svg id="Layer_1" data-name="Layer 1" xmlns="http://www.w3.org/2000/svg" viewBox="0 0 1080 1080"><defs><style>.cls-1{fill:#f7ec21;}.cls-2{fill:#fff;}.cls-3{fill:#030303;}.cls-4{fill:none;}</style></defs><path class="cls-1" d="M140.31,736.52v0c.48,17.76.63,35.62,3.62,53.27,3.18,18.67,7.71,36.88,16.37,53.82a172.33,172.33,0,0,0,48.07,58.14c14.57,11.36,30.48,20.38,48.1,26.07,25.68,8.28,52.18,11.46,79.07,11.61,16.77.11,33.54.53,50.32.46,121.86-.51,243.73.88,365.6-.75a286.87,286.87,0,0,0,47.95-5.1A162.27,162.27,0,0,0,879.72,895c26.81-23.91,44.89-53.17,53.06-88.48,5.34-23.09,6.68-46.51,6.91-70v-4.69c0-1.82-.69-399.34-.76-404.6a244.68,244.68,0,0,0-3.95-43c-3.29-17.3-7.94-34.17-16.22-49.82A173.09,173.09,0,0,0,885.49,190c-20.77-19.91-44.73-34-72.63-41.44-25.2-6.73-50.91-8.22-76.8-8.19a.85.85,0,0,1-.15-.4H344c0,.13,0,.27,0,.4-14.7.27-29.41.16-44,2-16,2-31.88,5-47,10.59a165.59,165.59,0,0,0-62.35,40.95c-20.08,20.81-34.23,44.88-41.74,72.9-6.7,25-8.16,50.5-8.2,76.18"/><path class="cls-2" d="M543.63,815c-1.66,0-3.25-.06-4.45-.12-1,.09-1.95.12-2.93.12-34.88,0-58.2-16.49-78.78-31.05-14.76-10.42-28.67-20.25-45-23a145,145,0,0,0-23.66-2A162.29,162.29,0,0,0,356,762.67c-4.92,1-9.16,1.78-12.44,1.78-3.44,0-7.61-.76-9.35-6.7-1.38-4.68-2.37-9.22-3.32-13.59-2.39-10.93-4.12-17.59-8.21-18.23C279,719.18,253.11,709.24,248,697.2a11,11,0,0,1-.91-3.8,7,7,0,0,1,5.87-7.32c34.74-5.72,65.63-24.08,91.81-54.59a205.76,205.76,0,0,0,31.32-48.69,3.36,3.36,0,0,1,.16-.33c5-10.24,6-19.09,3-26.3-5.64-13.29-24.3-19.21-36.65-23.13-3.08-1-6-1.9-8.3-2.81-10.94-4.33-28.95-13.47-26.55-26.08,1.75-9.19,13.91-15.6,23.74-15.6a16.81,16.81,0,0,1,7.19,1.44c11.1,5.2,21.1,7.84,29.69,7.84,10.69,0,15.85-4.07,17.1-5.23-.31-5.7-.68-11.73-1.05-17.43v-.07c-2.51-39.92-5.64-89.59,7.06-118.07,38-85.26,118.67-91.89,142.48-91.89l10.37-.1h1.41c23.87,0,104.68,6.64,142.73,92,12.71,28.5,9.57,78.21,7.06,118.17l-.12,1.91c-.35,5.42-.66,10.56-.93,15.54,1.17,1.08,5.9,4.81,15.51,5.19,8.19-.32,17.61-2.94,28-7.8a22.16,22.16,0,0,1,9.16-1.82,27.73,27.73,0,0,1,10.44,2l.16.07c8.8,3.12,14.56,9.36,14.69,15.92.11,6.11-4.43,15.25-26.78,24.07-2.28.91-5.2,1.83-8.29,2.81-12.36,3.92-31,9.84-36.65,23.13-3.06,7.2-2,16.05,3,26.29l.15.34C705.37,586.44,743,672.24,827,686.07a7,7,0,0,1,5.87,7.32,11.54,11.54,0,0,1-.93,3.84c-5.11,12-31,21.9-74.72,28.66-4.1.63-5.83,7.27-8.2,18.14-1,4.48-2,8.88-3.34,13.51-1.27,4.34-4.1,6.47-8.65,6.47h-.69a70.39,70.39,0,0,1-12.44-1.57A163.87,163.87,0,0,0,691,759a145,145,0,0,0-23.66,2c-16.29,2.71-30.2,12.53-44.92,22.94-20.62,14.58-44,31.07-78.82,31.07"/><path class="cls-3" d="M545.7,272.05c22.47,0,99.85,6,136.31,87.79,12,26.92,8.93,75.68,6.46,114.86-.38,6.21-.76,12.24-1.08,18l-.13,2.47,1.66,1.85c.66.74,6.9,7.26,20.79,7.8h.45c9.18-.35,19.52-3.2,30.74-8.46a15.13,15.13,0,0,1,6.19-1.15,20.74,20.74,0,0,1,7.8,1.48l.35.14c5.89,2.06,10,5.95,10.11,9.47,0,2-1.45,9.16-22.32,17.4-2,.81-4.72,1.66-7.84,2.65-13.58,4.31-34.09,10.81-41,27.09-3.89,9.16-2.82,20,3.16,32.14,2.47,5.75,41.23,93.06,128.45,107.43a3.73,3.73,0,0,1-.35,1.4c-1.48,3.48-10.88,15.52-69.35,24.54-9.15,1.4-11.39,11.66-14,23.58-.94,4.27-1.9,8.58-3.21,13-.4,1.34-.47,1.42-1.91,1.42h-.69a64.93,64.93,0,0,1-11.09-1.43A171.41,171.41,0,0,0,691,751.93a152,152,0,0,0-24.82,2.1c-17.89,3-32.44,13.27-47.85,24.17C597.67,792.82,576.28,808,543.64,808c-1.43,0-2.82,0-4.21-.11l-.37,0-.37,0c-.8.07-1.61.1-2.43.1-32.63,0-54-15.12-74.72-29.75-15.42-10.9-30-21.19-47.87-24.17a151.81,151.81,0,0,0-24.8-2.1,168.54,168.54,0,0,0-34.17,3.84,68.89,68.89,0,0,1-11.1,1.66c-2.11,0-2.16-.12-2.6-1.65-1.32-4.46-2.27-8.87-3.21-13.13-2.6-11.94-4.85-22.25-14-23.65-58.47-9-67.87-21.08-69.35-24.56a4,4,0,0,1-.36-1.42c87.22-14.36,126-101.68,128.45-107.45,6-12.15,7.06-23,3.16-32.14-6.91-16.27-27.42-22.78-41-27.09-3.12-1-5.81-1.84-7.85-2.65-17.62-7-23-14-22.24-18.22.94-4.91,9.43-9.89,16.85-9.89a10.28,10.28,0,0,1,4.21.77c12,5.65,23,8.51,32.67,8.51,15.16,0,21.91-7.05,22.63-7.86l1.65-1.83-.14-2.47c-.3-5.75-.68-11.77-1.08-18-2.46-39.18-5.54-87.92,6.47-114.84,36.33-81.45,113.33-87.73,136.06-87.73l10.44-.1h1.32m0-14.05h-1.49l-10.31.1a173.65,173.65,0,0,0-68.58,14.52,152.77,152.77,0,0,0-43.75,29c-15.09,14.34-27.39,32-36.54,52.54-13.41,30.06-10.23,80.69-7.67,121.37v.07c.27,4.35.56,8.9.82,13.34a23.5,23.5,0,0,1-9.85,1.85c-7.56,0-16.55-2.41-26.72-7.18a23.92,23.92,0,0,0-10.17-2.09,36.13,36.13,0,0,0-18,5c-7,4.09-11.46,9.87-12.68,16.27-.8,4.24-.77,12.62,8.54,21.11,5.12,4.68,12.63,9,22.34,12.82,2.54,1,5.56,2,8.76,3,11.11,3.53,27.92,8.86,32.31,19.18,2.22,5.23,1.26,12.12-2.84,20.43-.1.23-.21.45-.31.69a197.79,197.79,0,0,1-30.19,46.87A170.21,170.21,0,0,1,303,659.17a134.15,134.15,0,0,1-51.18,20A14,14,0,0,0,240,693.8a18.45,18.45,0,0,0,1.44,6.12l0,0c2.87,6.7,9.51,12.39,20.31,17.42,13.2,6.12,32.93,11.28,58.65,15.32,1.3,2.47,2.65,8.68,3.59,12.93,1,4.52,2,9.17,3.45,14.11,1.57,5.35,5.64,11.74,16.09,11.74,4,0,8.51-.89,13.79-1.92A155.79,155.79,0,0,1,388.85,766a137.57,137.57,0,0,1,22.51,1.91c14.7,2.45,27.37,11.4,42,21.76C474.84,804.82,499.13,822,536.25,822c1,0,2,0,3-.1,1.23.06,2.75.1,4.36.1,37.12,0,61.4-17.17,82.84-32.33l0,0c14.66-10.35,27.32-19.29,42-21.74A138.68,138.68,0,0,1,691,766a157.47,157.47,0,0,1,31.47,3.34,74.19,74.19,0,0,0,13.79,1.7H737c7.65,0,13.26-4.19,15.41-11.53,1.42-4.84,2.44-9.38,3.44-14,.88-4,2.27-10.38,3.57-12.88,25.74-4,45.47-9.18,58.67-15.31,10.77-5,17.41-10.69,20.29-17.36a18,18,0,0,0,1.48-6.18,14,14,0,0,0-11.75-14.65C747.89,665.92,711.76,583.52,710.27,580c-.1-.23-.21-.46-.32-.68-4.1-8.32-5-15.2-2.82-20.44,4.37-10.3,21.17-15.64,32.29-19.17,3.21-1,6.25-2,8.77-3,10.95-4.32,18.77-9,23.93-14.34,6.16-6.34,7.36-12.42,7.28-16.4-.18-9.63-7.55-18.19-19.25-22.38a34.59,34.59,0,0,0-13.06-2.5A29.16,29.16,0,0,0,735,483.62c-9.38,4.39-17.78,6.79-25,7.13a22.69,22.69,0,0,1-8.27-1.82c.22-3.76.46-7.61.71-11.64l.11-1.72c2.57-40.71,5.76-91.38-7.65-121.46-9.19-20.6-21.53-38.32-36.69-52.68a153.19,153.19,0,0,0-43.9-29A174.66,174.66,0,0,0,545.7,258"/><rect class="cls-4" x="140.31" y="140.24" width="799.38" height="799.38"/></svg>