<svg id="Layer_1" data-name="Layer 1" xmlns="http://www.w3.org/2000/svg" viewBox="0 0 1080 1080"><defs><style>.cls-1{fill:#f36d26;}</style></defs><path class="cls-1" d="M28,563.31l2.3-9.47,1.3,0v24.37l-1.27.09L28,568.39Z"/><path class="cls-1" d="M249.7,532.85c6,0,11.5-.52,16.87.1,16.5,1.89,28.89,16.14,28.39,32.09-.53,17-13.75,30.89-30.81,31.14-29.84.43-59.68.12-89.52.25-4.82,0-6.42-2.32-6.4-6.61q.18-49.08.28-98.16c0-3.94,2-5.5,5.48-6.54,34.43-10.31,68.58,10.19,75.17,45.19C249.38,531.52,249.67,532.71,249.7,532.85Z"/><path class="cls-1" d="M613.75,581.51c-10.1,2.46-11.59,2-16.65-5.67Q585,557.58,572.88,539.32a6.88,6.88,0,0,0-3.86-3v19.85c0,7.18-.19,14.37.07,21.54.17,4.79-2.69,5.11-6.17,4.83-3.29-.26-7.84,1.45-7.82-4.53,0-21.32,0-42.65.25-64,0-1.51,1.95-4.22,3.12-4.28,4.2-.25,8.82-1.9,12,3.08,8.18,12.6,16.71,25,25.1,37.46a12.83,12.83,0,0,0,4.45,4.43V510h13.68Z"/><path class="cls-1" d="M992.55,509.82c12.57.65,24.31.41,35.76,2.08,14.14,2.05,23.39,13.89,23.55,28.16.07,5.67.47,11.52-.73,17-3.07,13.93-15.24,23.88-30.12,25-7.84.61-15.75.36-23.62.5-2.85.05-4.91-.42-4.89-4.08C992.6,556.14,992.55,533.81,992.55,509.82Zm13.81,36.49h0c0,6.32-.2,12.66.14,19,.09,1.56,1.69,4,3,4.38,9.27,2.34,20.81-2.36,25.16-9.81,5-8.62,4.16-24-2-30.49-1.69-1.79-4-3.72-6.23-4.14a100.85,100.85,0,0,0-17-1.55c-1,0-2.92,2.74-3,4.3C1006.15,534.06,1006.36,540.19,1006.36,546.31Z"/><path class="cls-1" d="M635,511.35c11.73,0,22.44-1,32.88.21,21.47,2.48,28.52,20.41,26.5,39.87-1.88,18.17-14.62,29.6-33.11,30.78a204,204,0,0,1-21.7.16c-1.57-.07-4.36-2.3-4.37-3.56C635,556.29,635,533.77,635,511.35Zm13.66,12.58c0,14.32.06,28-.05,41.69,0,3.42,1.55,4.14,4.64,4.32,20.53,1.19,31.73-13.64,25.44-33.78-2.09-6.69-6.66-11-13.42-12.06C660.17,523.28,654.8,523.93,648.69,523.93Z"/><path class="cls-1" d="M460.47,547.07c-1.82,6.83-2.81,13.81-5.54,20-5.19,11.86-15.36,17.33-28.1,17.22s-22.42-6.19-27.44-18.14a49,49,0,0,1-.21-38.77c4.87-11.8,13.93-18.2,27.14-18.45,13.57-.26,23.65,5.4,28.9,17.74C457.88,533,458.71,540,460.47,547.07Zm-51.08-1c1.28,5.21,2,10.67,4,15.67,2.38,6.1,7.82,8.82,14.24,8.88s11.74-2.52,14.56-8.48a34.91,34.91,0,0,0,0-31.12c-2.78-5.86-7.87-8.6-14.46-8.58s-11.77,2.84-14.34,8.72C411.45,535.67,410.77,540.75,409.39,546.05Z"/><path class="cls-1" d="M897.48,547.15c-.69,4.44-1,9.09-2.17,13.56-3.72,14.72-14.65,23.46-29.22,23.74-14.32.28-25.64-8.31-30-22.88a50.93,50.93,0,0,1-.17-29.3c4.67-16,15.4-23.81,32-23.24,13.65.47,24.69,10.47,27.76,25.38C896.53,538.52,896.87,542.73,897.48,547.15Zm-13,.19c-.83-4.76-1.15-9-2.37-13-2.35-7.72-7.91-11.78-15.38-11.92-7.91-.15-13.5,3.79-16.23,11.69a36.69,36.69,0,0,0,.69,26.57c2.66,6.52,7.95,9.89,15,9.92s12.53-3,15-9.7C882.87,556.44,883.52,551.61,884.52,547.34Z"/><path class="cls-1" d="M381.63,520.41l-7.92,8.14c-7.7-2-13.82-4-20.12-4.95-4.2-.61-8.95.3-9.77,5.82-.89,6,3.84,7.36,8.18,8.64,4.68,1.39,9.51,2.25,14.16,3.71,12.46,3.91,17,10.12,16.45,22.16-.46,10.64-6.75,18-18.5,20.15-10.44,1.93-20.88,1.58-30.11-4.65-2.89-2-5.33-4.56-8.48-7.3l9.8-9.06c7.31,6,15.36,8.93,24.82,7.06,4.46-.89,7.61-2.81,8-7.57s-2.82-6.83-6.69-8c-6.07-1.9-12.32-3.27-18.31-5.37-11.15-3.92-15.07-10.3-14-21.78.84-8.86,8.22-15.69,18.5-17.16C360.31,508.39,371.67,510.75,381.63,520.41Z"/><path class="cls-1" d="M521.74,509.32h12c.38.54.82.88.82,1.22-.28,17,.75,34.24-1.3,51.08-1.82,15-13.36,22.1-29.62,21.75-14-.29-25.69-8.93-26.93-23-1.44-16.49-.34-33.2-.34-50.48,1.93-.12,4.64-.25,7.33-.47,3.8-.32,5.26,1.23,5.19,5.11-.19,11.18-.21,22.38.06,33.56a44.42,44.42,0,0,0,2,12.39c2.16,6.73,7.73,10.26,14.57,10.12,6.6-.13,11.95-3.65,14.07-10A35.66,35.66,0,0,0,521.19,550c.21-12.87.13-25.75.17-38.62A16.5,16.5,0,0,1,521.74,509.32Z"/><path class="cls-1" d="M913.36,510h13.22c0,13.15-.15,25.79.09,38.42a43.23,43.23,0,0,0,2,12.38c2.07,6.37,7.56,9.84,14.14,9.87s12.12-3.4,14.22-9.76a42.39,42.39,0,0,0,2-12.37c.24-12.84.09-25.68.09-39h13.09c0,16.45,1.3,32.75-.35,48.76C970,575.37,959,583.51,942.28,583.39c-15.67-.12-27-9.18-28.6-25.75C912.21,542,913.36,526.14,913.36,510Z"/><path class="cls-1" d="M767.34,524.36l-12.24,5.79c-1.4-1.32-2.58-2.5-3.85-3.6-8-6.95-19.34-5.26-24.52,4.06-5.62,10.11-5.67,20.79-.45,31,6,11.76,19.33,11.71,30.31-.2l10.93,6.34c-5.13,10.35-13.26,15.73-24.27,16.51-11.6.82-21.43-3-28.28-12.71-9.25-13.15-9.17-36,0-49.23,12.29-17.6,39.57-18.27,50.69-1.24A36.38,36.38,0,0,1,767.34,524.36Z"/><path class="cls-1" d="M783,510.14a28.09,28.09,0,0,1,3.66-.68c10.22-.63,10.22-.61,10.22,9.66v49.62h28.32c.72,1.26,1.09,1.61,1.11,2,.64,14.74.74,11.58-10.81,11.82-9.38.19-18.77,0-28.15.05-3.25,0-5.16-.7-5.13-4.55.17-22,.15-43.94.22-65.91A8.2,8.2,0,0,1,783,510.14Z"/><path class="cls-1" d="M158.7,539.22c0-14.34-.09-28.68.1-43,0-2,1.39-3.91,2.14-5.87,1,1.81,2.88,3.61,2.9,5.43.36,31,.5,62,.67,92.94a6.75,6.75,0,0,1-.46,3.1,26.19,26.19,0,0,1-2.85,3.6c-.86-1.24-2.38-2.44-2.47-3.73-.71-9.88-1.28-19.78-1.59-29.67-.25-7.59,0-15.19,0-22.78Z"/><path class="cls-1" d="M147.17,543.07c0-13.71-.1-27.41.12-41.12,0-1.85,1.65-3.67,2.54-5.51.88,1.65,2.51,3.3,2.53,5,.32,29.29.44,58.59.6,87.88a3.77,3.77,0,0,1-.26,1.86c-.9,1.47-2,2.85-3,4.26-.89-1.43-2.47-2.82-2.57-4.31q-1-14.49-1.53-29c-.22-6.32,0-12.65,0-19Z"/><path class="cls-1" d="M130.39,546.84c0,14.55.1,29.1-.13,43.65,0,1.85-1.74,3.67-2.68,5.5-1-1.79-3-3.57-3-5.36q-.23-40.18.13-80.36c0-1.66,1.81-3.3,2.77-4.95.92,1.61,2.61,3.2,2.64,4.82.23,12.23.13,24.47.13,36.7Z"/><path class="cls-1" d="M141.91,546.11c0,14.55.1,29.1-.12,43.65,0,1.89-1.7,3.75-2.61,5.62-1.09-2-3.08-4-3.11-6-.33-17.28-.35-34.57-.35-51.86,0-8.45.06-16.9.52-25.33.1-1.84,2-3.58,3.11-5.37.8,1.72,2.26,3.42,2.29,5.15.21,11.39.11,22.78.11,34.17Z"/><path class="cls-1" d="M95.66,597.55c-5.61-8-5.47-80.46-.18-86.84C97.59,539.07,101.17,567.43,95.66,597.55Z"/><path class="cls-1" d="M116.12,595.34c-5.47-30.31-2.39-60.61-1.67-90.93h3.18C118.57,534.71,121.17,565,116.12,595.34Z"/><path class="cls-1" d="M106.73,504.24c1.38,31.51,3.56,61.25,0,91.91C100.74,590,100.51,513.65,106.73,504.24Z"/><path class="cls-1" d="M84,522c2.38,24.38,5.38,48.79,0,74.45C77.88,584.16,79.87,535.58,84,522Z"/><path class="cls-1" d="M73.44,537.19c4.26,20.29,3.4,38.93-.37,58C69.11,587.75,69.06,547.05,73.44,537.19Z"/><path class="cls-1" d="M61.67,593.87a141.84,141.84,0,0,1,.06-57.06C65.5,555.86,66.05,574.92,61.67,593.87Z"/><path class="cls-1" d="M53.12,592.15c-5.39-9.38-5.37-44.32,0-53.63Z"/><path class="cls-1" d="M40.56,544.46c3.67,14.41,3.81,28.82-1.6,43.24V544.57Z"/></svg>