<svg id="Layer_1" data-name="Layer 1" xmlns="http://www.w3.org/2000/svg" viewBox="0 0 1080 1080"><defs><style>.cls-1{fill:#55ba5d;}</style></defs><g id="g10"><g id="g12"><path id="path14" class="cls-1" d="M305.4,524.72C262,499,190.43,496.58,149,509.16a12.59,12.59,0,0,1-7.31-24.1c47.56-14.44,126.61-11.65,176.56,18a12.59,12.59,0,0,1-12.85,21.65ZM304,562.89a10.51,10.51,0,0,1-14.44,3.46c-36.17-22.24-91.34-28.68-134.14-15.69a10.49,10.49,0,1,1-6.1-20.08c48.89-14.84,109.67-7.65,151.23,17.88A10.5,10.5,0,0,1,304,562.89Zm-16.47,36.66A8.38,8.38,0,0,1,276,602.34c-31.61-19.32-71.4-23.68-118.26-13A8.39,8.39,0,1,1,154,573c51.28-11.73,95.27-6.68,130.76,15A8.4,8.4,0,0,1,287.51,599.55ZM225.77,405.38A134.62,134.62,0,1,0,360.39,540,134.63,134.63,0,0,0,225.77,405.38"/><path id="path16" class="cls-1" d="M457.41,529.66c-23.24-5.55-27.38-9.44-27.38-17.61,0-7.72,7.27-12.92,18.08-12.92,10.48,0,20.87,3.95,31.77,12.07a1.54,1.54,0,0,0,2.16-.34l11.34-16a1.53,1.53,0,0,0-.28-2.07c-13-10.4-27.58-15.46-44.65-15.46-25.09,0-42.62,15.06-42.62,36.61,0,23.11,15.12,31.29,41.25,37.61,22.24,5.12,26,9.41,26,17.08,0,8.51-7.59,13.79-19.81,13.79-13.57,0-24.63-4.57-37-15.29a1.64,1.64,0,0,0-1.12-.36,1.49,1.49,0,0,0-1,.53l-12.73,15.15a1.51,1.51,0,0,0,.15,2.11,75.88,75.88,0,0,0,51.24,19.65c27,0,44.52-14.78,44.52-37.65,0-19.33-11.55-30-39.87-36.9"/><path id="path18" class="cls-1" d="M578.09,555.56c0,16.32-10.05,27.71-24.45,27.71-14.23,0-25-11.9-25-27.71s10.73-27.71,25-27.71S578.09,539.5,578.09,555.56Zm-19.63-48.83c-11.72,0-21.33,4.62-29.26,14.08V510.16a1.52,1.52,0,0,0-1.53-1.52H506.86a1.52,1.52,0,0,0-1.52,1.52V628.48a1.53,1.53,0,0,0,1.52,1.53h20.81a1.53,1.53,0,0,0,1.53-1.53V591.14c7.93,8.89,17.54,13.24,29.26,13.24,21.78,0,43.83-16.77,43.83-48.82s-22-48.83-43.83-48.83"/><path id="path20" class="cls-1" d="M658.81,583.44c-14.92,0-26.17-12-26.17-27.88S643.5,528,658.47,528s26.34,12,26.34,27.89S673.88,583.44,658.81,583.44Zm0-76.71c-28,0-50,21.6-50,49.18,0,27.28,21.82,48.65,49.68,48.65,28.15,0,50.19-21.52,50.19-49s-21.89-48.83-49.85-48.83"/><path id="path22" class="cls-1" d="M768.56,508.64h-22.9V485.22a1.52,1.52,0,0,0-1.52-1.52H723.33a1.53,1.53,0,0,0-1.53,1.52v23.42h-10a1.52,1.52,0,0,0-1.52,1.52v17.89a1.52,1.52,0,0,0,1.52,1.52h10v46.29c0,18.7,9.31,28.19,27.67,28.19a38,38,0,0,0,19.5-4.86,1.51,1.51,0,0,0,.77-1.32v-17a1.53,1.53,0,0,0-2.21-1.37,26.18,26.18,0,0,1-12.21,2.95c-6.68,0-9.66-3-9.66-9.82v-43h22.9a1.52,1.52,0,0,0,1.52-1.52V510.16a1.52,1.52,0,0,0-1.52-1.52"/><path id="path24" class="cls-1" d="M848.36,508.73v-2.88c0-8.46,3.24-12.23,10.52-12.23a35.21,35.21,0,0,1,11.73,2.16,1.52,1.52,0,0,0,2-1.45V476.79a1.52,1.52,0,0,0-1.08-1.46,57.35,57.35,0,0,0-17.3-2.48c-19.22,0-29.38,10.82-29.38,31.29v4.41h-10a1.53,1.53,0,0,0-1.53,1.52v18a1.53,1.53,0,0,0,1.53,1.52h10V601a1.52,1.52,0,0,0,1.51,1.52h20.82A1.52,1.52,0,0,0,848.7,601v-71.4h19.43L897.9,601c-3.38,7.5-6.7,9-11.24,9a24,24,0,0,1-11.47-3.26,1.57,1.57,0,0,0-1.22-.11,1.55,1.55,0,0,0-.9.82L866,622.87a1.51,1.51,0,0,0,.65,2,44,44,0,0,0,22.23,5.69c15.37,0,23.87-7.16,31.36-26.42l36.1-93.31a1.52,1.52,0,0,0-1.41-2.07H933.28a1.53,1.53,0,0,0-1.44,1l-22.19,63.4-24.32-63.44a1.52,1.52,0,0,0-1.42-1H848.36"/><path id="path26" class="cls-1" d="M802.1,508.64H781.29a1.52,1.52,0,0,0-1.53,1.52V601a1.52,1.52,0,0,0,1.53,1.52H802.1a1.52,1.52,0,0,0,1.52-1.52V510.16a1.52,1.52,0,0,0-1.52-1.52"/><path id="path28" class="cls-1" d="M791.8,467.29a14.93,14.93,0,1,0,14.92,14.92,14.93,14.93,0,0,0-14.92-14.92"/><path id="path30" class="cls-1" d="M975,517.67h-3.81v4.86H975c1.91,0,3-.93,3-2.43S976.89,517.67,975,517.67Zm2.48,6.94,4.14,5.8h-3.49l-3.73-5.32h-3.21v5.32h-2.92V515h6.85c3.57,0,5.92,1.83,5.92,4.91A4.58,4.58,0,0,1,977.46,524.61Zm-3.25-14.69a13.23,13.23,0,1,0,13.11,13.18,13.1,13.1,0,0,0-13.11-13.18Zm-.08,27.91a14.69,14.69,0,1,1,14.73-14.73,14.59,14.59,0,0,1-14.73,14.73"/></g></g></svg>