<svg id="Layer_1" data-name="Layer 1" xmlns="http://www.w3.org/2000/svg" viewBox="0 0 1080 1080"><defs><style>.cls-1{fill:#0c6db6;}</style></defs><path class="cls-1" d="M65.4,479l-4.34,16.91h40.17L86.49,554.81l-10.84,43.5H102l10.84-43.5,14.74-58.95h40L171.75,479Zm802.83,1.3c-2.14,8.79-4.11,15.64-6.07,21.53h-9.83l3.18-2c5.48-3.56,8.18-5.38,8.24-5.64-2.93-6.6-5.4-11.16-7.66-13.44-.06-.41-4.24,2.14-12.28,7.37l-2.75,1.74a17.31,17.31,0,0,0,1,1.44,80.75,80.75,0,0,1,7.08,10.55h-8.09l-2.6,12.14h18.21l-1.3,2.46-1.3,2.45H834.42L832,531h13.58a68.51,68.51,0,0,1-20.66,17l12.71-60.69H802.48L789.33,550c-.35,1.65-.75,3.21-1.16,4.77a110.77,110.77,0,0,1-13.72,32.66A54.38,54.38,0,0,1,783.7,598c7.35-10.5,13.13-23.94,17.48-40.46h7.66l-4.34,20.52c-.34,2.81-3.19,4.07-8.38,3.61A53.27,53.27,0,0,1,797.28,597c12.51-.08,18.83-2.9,19.07-8.67l7.08-33.53.44-2.31q1.13,1.13,2.16,2.31a26.11,26.11,0,0,1,3.91,5.93,33.74,33.74,0,0,0,6.79-4.63l-4.63,15h42l-.72,3.9c-1.67,8.12-4,12.06-6.94,11.56L868.8,575H823.72l-2.6,12h36.7a27.35,27.35,0,0,1,2.6,14c11.71-.38,18.89-2.18,21.68-5.49a15.68,15.68,0,0,0,2.74-5.49c1.92-5.73,4.16-14.1,6.94-25.14l1.59-6.36H877.76l.87-3.76,1.16-5.78a77.56,77.56,0,0,0,7.37,5.78,28,28,0,0,0,4.19,2.46c.67-.84,1.35-1.67,2-2.46a127.44,127.44,0,0,1,11.42-12.28q-14.14-4-20.67-11.56h20.67l2.45-12.14H870.11a21.91,21.91,0,0,0,2.6-4.91h30.63l2.46-12.14h-11a163.37,163.37,0,0,1,12.85-11.56l-12.85-8a180.56,180.56,0,0,1-13.44,15.32l7.8,4.77H878.05l1.59-5.06,2-5.06c1.68-4.26,3.07-7.49,4-9.53.1-.84-.45-1.26-2.17-1.45A129.75,129.75,0,0,0,868.23,480.25Zm77.74,1c-3.92,1.3-10,3.68-18.5,7.23a142.67,142.67,0,0,1,5.93,22.83c3-1.14,9.5-3.38,19.36-6.94C948.65,489.58,946.3,481.85,946,481.26Zm14.3,6.5-3,14H968.8l-5.49,26.15H948.86l-3,14h14.6l-2.75,12.86-8.81,41.76H965l8.67-41.76L976.46,542H988L985.7,552.5c-.16.78-.28,1.54-.43,2.31-3,15.5-1.44,27.62,4.48,36.27,3.61,5.13,8,7.3,13.15,6.5,5.37.28,10.76-8.4,16-26q-6.54-3-13.15-5.78c-2.62,8.07-4.25,10.69-4.91,7.81-1-4.12-.82-10.38.58-18.79.45-2.72,1-5.63,1.73-8.81l12.28-58.24Zm-240,1.45-5.49,22.25h-21.1l-4,16.48h77.16l-46.53-38.73Zm93.06,10.55H821L817.36,517h-7.51Zm171.52,2H997l-5.49,26.15H979.35ZM202,506.55q-24.06,0-41.76,12.57a57.28,57.28,0,0,0-22.83,33.38c-.21.8-.42,1.52-.58,2.31-2.64,12.76-.3,23.16,7.08,31.07,7.86,8.32,20,12.43,36.41,12.43,28,0,49.41-17.07,51.59-18.93l-12.14-2.75c-2.86.66-18.4,5.16-34,3.76-19.62-1.76-24.07-16.13-23-23.27h78.75l.72-2.31.58-2.45c3.57-14.33,1.68-25.59-5.64-33.67S218.14,506.55,202,506.55Zm233.36,0a82.76,82.76,0,0,0-45.95,13.29c-13.84,8.93-22.33,20-25.58,32.95-.17.71-.44,1.32-.57,2q-3.63,18.06,9.53,30.49,13.93,13,39.45,13,15.48,0,32.51-6.36l6.65-26.44c-7.56,5.82-13.9,9.68-18.93,11.7a45,45,0,0,1-16.91,3.18c-9.56,0-16.8-2.57-21.67-7.8-4.31-4.72-5.86-10.71-4.62-17.78.13-.78.37-1.5.57-2.31,2-8,6.79-14.66,14.45-19.94a44.54,44.54,0,0,1,25.87-7.95c6.1,0,11,1,15,3.18s8.33,6,12.71,11.56l6.65-26.73c-8.62-4.1-18.34-6.07-29.19-6.07Zm95.23,0q-24.06,0-41.76,12.57a57.29,57.29,0,0,0-22.84,33.38c-.2.8-.41,1.52-.57,2.31-2.65,12.76-.32,23.16,7.08,31.07,7.85,8.32,20,12.43,36.41,12.43,28,0,49.41-17.07,51.59-18.93l-12.14-2.75c-2.86.66-18.4,5.16-34,3.76-19.62-1.76-24.08-16.13-23-23.27h78.75l.72-2.31.58-2.45c3.58-14.33,1.81-25.59-5.49-33.67s-19.2-12.14-35.4-12.14ZM325.64,509c-11.15,0-22,3.44-32.66,10.4l-23.55-7.95-10.84,43.35-10.84,43.5h25.58l10.4-41.91c.13-.54.3-1.1.43-1.59,2.66-10,6.23-17.11,10.55-21.24,4.64-4.39,11.08-6.5,19.51-6.5,7.76,0,12.78,1.58,14.88,4.91s2.15,9.21,0,17.77L328,554.81l-11,43.5h25.57l10.84-43.5,2.46-9.82c3.06-12.25,2.22-21-2.61-26.45-5.56-6.36-14.79-9.53-27.59-9.53Zm326.42,0c-11.15,0-22,3.44-32.66,10.4l-23.55-7.95L585,554.81l-10.84,43.5h25.58l10.4-41.91c.14-.54.3-1.1.44-1.59,2.67-10,6.21-17.11,10.55-21.24,4.64-4.39,11.06-6.5,19.5-6.5,7.75,0,12.78,1.58,14.89,4.91s2.14,9.21,0,17.77l-1.3,5.06-10.84,43.5H669l10.84-43.5,2.46-9.82c3.07-12.25,2.22-21-2.6-26.45-5.56-6.36-14.8-9.53-27.6-9.53Zm259.66,9.1-3,14.16H923l-4.77,22.54-3,15c-.66,3.14-3.17,6.42-7.51,10a10.44,10.44,0,0,0-2.17,2,40.28,40.28,0,0,0,8.38,14.31c.31.08,2-1.41,4.91-4.34,4.35-4.6,15.38-14.76,33.24-30.48-.06-.21-1-2.32-2.89-6.22l-.15-.29L946.4,549l-2.89,2.46c-1.39,1.22-2.73,2.34-3.9,3.32-3.12,2.71-5.49,4.69-7.08,5.93l1.3-5.93,7.66-36.7Zm-713.82,6.5c13.56,0,20.81,5.33,21.67,16h-51a28.75,28.75,0,0,1,5.2-6.65,32.23,32.23,0,0,1,6.94-5,33.33,33.33,0,0,1,8.23-3.18A34.32,34.32,0,0,1,197.9,524.61Zm328.59,0c13.56,0,20.82,5.33,21.67,16h-51a29.3,29.3,0,0,1,5.2-6.65,33.44,33.44,0,0,1,6.93-5,33.87,33.87,0,0,1,8.24-3.18,34.32,34.32,0,0,1,9-1.16ZM807.25,529h7.51l-3.32,16h-7.51Zm55.34,2h4.48a24.65,24.65,0,0,0,2.46,5.06h-11l2-2.6,2-2.46Zm-152.88.72-5.78,23.12-11,43.5h25.43l11-43.5,5.78-23.12ZM847,547.44h18.06l-1.45,7.37-1,4.19H850.17c.46-1.55.88-2.93,1.3-4.19.48-1.44.86-2.67,1.3-3.76a3.33,3.33,0,0,0-1.3-.57H844l3-3Z"/></svg>