<svg id="Layer_1" data-name="Layer 1" xmlns="http://www.w3.org/2000/svg" viewBox="0 0 1080 1080"><defs><style>.cls-1{fill:#121210;}</style></defs><path class="cls-1" d="M411.13,600.09h-24.3V513.91H355.41V493.08h87.15v20.83H411.13Z"/><path class="cls-1" d="M539.71,600.09H515.26v-107h24.45Z"/><path class="cls-1" d="M971,579h42.27v21.12H946.58v-107H971Z"/><path class="cls-1" d="M621.08,493.06h39.6c29.21,0,58.28,15.47,58.28,53.21,0,35.58-28.5,53.8-56.84,53.8h-41Zm23.71,86H660c20.39,0,34-12.72,34-33,0-19.24-13.73-32.24-33.4-32.24H644.79Z"/><path class="cls-1" d="M854.59,600.09h26.87l-44.09-107H812.14l-44.51,107h26.13L801.65,579h45.12ZM808.2,560l16.12-41.85,16,41.85Z"/><path class="cls-1" d="M192,508.67,160.67,540l-31.32-31.33,31.32-31.31Z"/><path class="cls-1" d="M192,571.32l-31.32,31.32-31.32-31.32L160.67,540Z"/><path class="cls-1" d="M129.35,508.67,98,540,66.71,508.67,98,477.36Z"/><path class="cls-1" d="M254.63,508.67,223.31,540,192,508.67l31.32-31.31Z"/></svg>