<svg id="Layer_1" data-name="Layer 1" xmlns="http://www.w3.org/2000/svg" viewBox="0 0 1080 1080"><defs><style>.cls-1{fill:#ee1d53;}.cls-2{fill:#010101;}.cls-3{fill:#67c9d0;}</style></defs><path class="cls-1" d="M261.34,503.46a103.27,103.27,0,0,0,60.22,19.26V479.53a60.46,60.46,0,0,1-12.65-1.33v34a103.24,103.24,0,0,1-60.22-19.26v88.14a79.9,79.9,0,0,1-124.34,66.33,79.89,79.89,0,0,0,137-55.82V503.46Zm15.6-43.58a60.19,60.19,0,0,1-15.6-35.24v-5.56h-12a60.47,60.47,0,0,0,27.59,40.8ZM152.25,613.58A36.52,36.52,0,0,1,181.34,555a36.83,36.83,0,0,1,11.08,1.71V512.51a79.81,79.81,0,0,0-12.64-.73v34.37a36.53,36.53,0,0,0-27.53,67.43Z"/><path class="cls-2" d="M248.69,492.94a103.24,103.24,0,0,0,60.22,19.26v-34a60.37,60.37,0,0,1-32-18.32,60.47,60.47,0,0,1-27.59-40.8H217.87V591.59a36.54,36.54,0,0,1-65.62,22,36.53,36.53,0,0,1,27.53-67.43V511.78a79.83,79.83,0,0,0-55.43,135.63,79.89,79.89,0,0,0,124.34-66.33V492.94Z"/><path class="cls-3" d="M308.91,478.2V469a60.23,60.23,0,0,1-32-9.13A60.36,60.36,0,0,0,308.91,478.2Zm-59.56-59.12c-.28-1.64-.51-3.29-.66-4.95v-5.56H205.23V581.08a36.57,36.57,0,0,1-53,32.5,36.54,36.54,0,0,0,65.62-22V419.08Zm-69.57,92.7V502a81.92,81.92,0,0,0-11-.74,79.83,79.83,0,0,0-44.47,146.16,79.83,79.83,0,0,1,55.43-135.63Z"/><path class="cls-1" d="M812.55,624.77c31.57,0,57.16-25.38,57.16-56.69s-25.59-56.69-57.16-56.69h-8.61c31.57,0,57.16,25.38,57.16,56.69s-25.59,56.69-57.16,56.69Z"/><path class="cls-3" d="M803.16,511.39h-8.61c-31.56,0-57.15,25.38-57.15,56.69s25.59,56.69,57.15,56.69h8.61c-31.57,0-57.15-25.38-57.15-56.69S771.59,511.39,803.16,511.39Z"/><path class="cls-2" d="M368.65,485.77V514.5h33.66V624H436V515.28h27.4l9.4-29.51Zm275.58,0V514.5h33.66V624h33.68V515.28H739l9.4-29.51Zm-165.18,16.3a16.44,16.44,0,1,1,16.43,16.31A16.36,16.36,0,0,1,479.05,502.07Zm0,28h32.87v94H479.05Zm47-44.26V624H558.9V588.28L569.08,579l32.09,45.82H636.4L590.2,558l41.5-40.39H591.77L558.9,550.21V485.77Zm354.65,0V624h32.89V588.28L923.72,579l32.11,45.82h35.23L944.86,558l41.5-40.39H946.43l-32.88,32.61V485.77Z"/><path class="cls-2" d="M803.94,624.77c31.56,0,57.16-25.38,57.16-56.69s-25.6-56.69-57.16-56.69h-.78c-31.57,0-57.15,25.38-57.15,56.69s25.58,56.69,57.15,56.69Zm-28.18-56.69a27.8,27.8,0,1,1,27.8,27.57A27.68,27.68,0,0,1,775.76,568.08Z"/></svg>