<svg id="Layer_1" data-name="Layer 1" xmlns="http://www.w3.org/2000/svg" viewBox="0 0 1080 1080"><path d="M414,785.38l-5.83-3.64L439.34,728c-.8-.6-1.54-1.18-2.31-1.74-14.52-10.5-28.26-21.87-40.15-35.36-15.75-17.87-27.13-38.25-35.07-60.61a2.6,2.6,0,0,1,.1-2q13.59-23.64,27.28-47.23a6.84,6.84,0,0,1,.54-.59c0,.93.1,1.58.1,2.23V627c0,.65,0,1.3,0,1.94.19,2.64,1.14,3.56,3.81,3.57,5,0,10,0,15,0,4.28,0,8.56,0,12.83,0,3,0,4.22-1.26,4.32-4.24,0-.59,0-1.17,0-1.75q0-53.34.05-106.67a8.34,8.34,0,0,1,1.08-4q38.73-67.17,77.56-134.29c.38-.67.76-1.35,1.2-2.11l-6-3.74L426.25,503.16l-.37-.08c0-.67-.09-1.35-.09-2q0-13.69,0-27.39c0-4.46-.91-5.37-5.33-5.37H395.38c-4.33,0-5.54,1.19-5.54,5.52q0,45.18,0,90.35a8.42,8.42,0,0,1-1.05,4c-5.55,9.8-11.2,19.53-16.82,29.28-.33.56-.67,1.11-1.24,2.06-1.13-3.16-2.24-6-3.15-8.83-6-18.95-8.07-38.46-7.61-58.25a202.48,202.48,0,0,1,13.87-70.08q21.75-55.11,72-86.5c20.94-13.08,43.68-21.8,67.61-27.55a5.39,5.39,0,0,0,3.82-2.79Q531.2,321,545.31,296.7c.39-.66.8-1.32,1.26-2.08,1.93,1.19,3.78,2.34,5.69,3.54l-46.59,81.36c43.42-7.88,84.35-1.71,123.42,18.24L524.88,578.82l-.48-.06V474.61c0-.91,0-1.82-.07-2.72-.22-2.29-1.47-3.58-3.79-3.59-9.39-.06-18.78-.05-28.17,0a3.27,3.27,0,0,0-3.52,3,17.46,17.46,0,0,0-.29,2.88q0,58.49,0,117c0,8.17,1.42,16.13,5.55,23.35a37.61,37.61,0,0,0,4.59,6.23,2.2,2.2,0,0,1,.32,3.12Q481,655.05,463,686.36l-7.78,13.52,6.08,3.82,44.48-77.31c9.76,5.43,20.26,6.32,31,6.25,13.41-.08,26.82,0,40.23,0,3.94,0,5.2-1.27,5.21-5.25q0-10.7,0-21.37c0-4.06-1.28-5.3-5.39-5.3-12,0-24.1.06-36.15-.06a37.51,37.51,0,0,1-8.23-1.07,9.39,9.39,0,0,1-6.28-5.12,3.47,3.47,0,0,1,.11-3.75q17.12-29.57,34.1-59.2l89.23-155.12c.48-.84,1-1.67,1.6-2.74,36.9,24.08,62.63,56.79,77.51,98.5l32-55.27,5.84,3.64L719.76,501.8l-5.83-3.59q-29.1,50.42-58.21,100.88a9.82,9.82,0,0,1-5.1-7.57,56.23,56.23,0,0,1-.6-8.5q-.06-53.92,0-107.84c0-.77,0-1.55,0-2.33-.19-2.8-1.51-4.13-4.32-4.14q-13.71,0-27.4,0c-2.31,0-3.46,1-3.86,3.28a16.35,16.35,0,0,0-.26,2.89q0,58.18,0,116.38a50.11,50.11,0,0,0,4.32,21.33,32.23,32.23,0,0,0,17.66,16.61c.53.22,1,.46,1.7.76-.37.7-.66,1.33-1,1.92Q611.4,675.94,586,720a3.38,3.38,0,0,1-2.6,2c-32.08,5.1-63.78,4-94.71-6.63-9.07-3.13-17.74-7.45-26.6-11.22l-.81-.38Z"/><path d="M214.51,566.79c0-18.45,0-36.91,0-55.36,0-8.15,1-16.15,4.52-23.64,4.94-10.43,13.6-16.14,24.38-19.09,10-2.74,20.2-2.94,30.46-2.49a82.71,82.71,0,0,1,22,3.57c13.63,4.39,22.4,13.39,25.6,27.39a94.57,94.57,0,0,1,.16,42c-2.55,11.51-9.22,20.22-19.25,26.39-2.61,1.61-2.65,1.9-1.13,4.59Q317.59,599,334,627.87c.29.51.61,1,.85,1.53.75,1.61.27,2.64-1.44,3a8.26,8.26,0,0,1-1.93.17c-9.26,0-18.52,0-27.78,0a7.32,7.32,0,0,1-6.83-4c-9.64-16.54-19.38-33-29-49.6-1.37-2.36-2.92-3.51-5.71-3.27s-5.44.05-8.16.06c-3.47,0-4.23.73-4.23,4.2q0,23.51,0,47c0,5.29-.3,5.59-5.58,5.59H218.7c-3.67,0-4.17-.49-4.18-4.1V566.79Zm36-40.31h-.32c0,4.79,0,9.58,0,14.37,0,1.66.34,3.28,2.45,3.25,6.6-.09,13.23.13,19.77-.54,8.93-.93,13.91-5.7,15.7-14.22a40.86,40.86,0,0,0-.27-18.47c-1.71-6.82-6.05-10.92-13-12.3a33.44,33.44,0,0,0-14.43.45c-5.88,1.38-9.38,5-9.85,11C250.22,515.47,250.55,521,250.55,526.48Z"/><path d="M890.36,568V511.12a61.54,61.54,0,0,1,2.49-18.4c4.16-13.38,13.69-20.89,26.84-24.39,11.11-2.95,22.45-3,33.76-2a91.7,91.7,0,0,1,17.7,3.2c14.23,4.07,23.13,13.6,26.28,28.08a95.63,95.63,0,0,1,.08,41c-2.55,11.66-9.23,20.5-19.39,26.74-2.53,1.55-2.59,1.85-1.14,4.42q16.46,29,32.9,58.08c1.9,3.36,1.23,4.48-2.7,4.48-9,0-18-.09-27,0a8.11,8.11,0,0,1-7.89-4.48c-9.51-16.4-19.17-32.71-28.67-49.11-1.37-2.37-3-3.46-5.74-3.25-3,.22-6,0-8.93.06-2.25,0-3.16.89-3.39,3.13a22.59,22.59,0,0,0-.06,2.33q0,23.4,0,46.81c0,4-.52,4.53-4.43,4.54h-27c-3.21,0-3.69-.49-3.69-3.74Zm36.08-41.88h-.35c0,4.92,0,9.83,0,14.75,0,2.12.75,3.06,2.7,3,6.78-.13,13.61,0,20.33-.76,7.57-.85,12.7-5.23,14.54-12.83a40.82,40.82,0,0,0,0-20C962,504,958,500,951.58,498.54a32.66,32.66,0,0,0-15.75.37c-5.39,1.38-8.85,4.87-9.29,10.39S926.44,520.54,926.44,526.16Z"/><path d="M719.79,501.75c1.48,5.11,2.9,9.65,4.09,14.26a207.32,207.32,0,0,1,6.78,59.57c-.94,25.44-6.68,49.75-18.12,72.47-23.7,47.07-60.4,80-109.52,99a127.05,127.05,0,0,1-27.37,7.07c-.38.05-.76.06-1.34.11.37-.71.65-1.27,1-1.82Q609.54,693,643.76,633.57c.82-1.43,1.6-1.71,3.2-1.51a98.23,98.23,0,0,0,12,1c14.57.11,29.14,0,43.71,0,3.82,0,5.1-1.27,5.11-5.15,0-7.18,0-14.37,0-21.56,0-3.93-1.32-5.2-5.29-5.2h-40Z"/><path d="M764.77,547.69q0-19.43,0-38.86a58.72,58.72,0,0,1,3.2-20c4.41-12.18,13.51-18.83,25.87-21.19a93,93,0,0,1,15.8-1.6c13.41-.22,26.82-.07,40.22-.07,4,0,5.06,1.06,5.07,5.07q0,11.07,0,22.14c0,4.1-.91,5-5.07,5-10.88,0-21.76,0-32.64,0a37.59,37.59,0,0,0-6,.42c-7.38,1.18-11.14,5.41-11.36,12.94-.16,5.83-.06,11.66,0,17.49,0,2.09.68,2.66,2.9,2.66h35.36c3.13,0,3.9.73,3.91,3.9q0,11.76,0,23.51c0,3.43-1,4.38-4.42,4.38H803.76c-3.54,0-4.27.68-4.24,4.14,0,6.35-.15,12.71.26,19,.49,7.45,4.62,11.25,12.11,11.85,2.26.18,4.53.28,6.79.28,10.5,0,21,0,31.48,0,3.57,0,4.79,1.19,4.8,4.76q0,11.26,0,22.53c0,3.09-1.27,4.3-4.4,4.3-12.24,0-24.48,0-36.72,0a86.06,86.06,0,0,1-22.31-2.6c-13.89-3.77-22.09-13-25.06-26.79a79.53,79.53,0,0,1-1.63-15C764.62,573.2,764.77,560.44,764.77,547.69Z"/><path d="M106.35,565.84v-62c0-3-.25-3.23-3.19-3.23H73.82c-3.63,0-4.71-1.1-4.71-4.78q0-11.37,0-22.73c0-3.63,1.17-4.8,4.75-4.81H174.52c3.65,0,4.9,1.23,4.91,4.91q0,11.07,0,22.15c0,3.67-1.38,5.06-5.06,5.07-9.52,0-19.05,0-28.57,0-3.33,0-3.68.34-3.68,3.68V626.36a22.41,22.41,0,0,1-.08,2.72c-.33,2.63-1.72,4-4.38,4q-13.4.08-26.81,0c-3.12,0-4.48-1.59-4.49-5q0-16.9,0-33.81Z"/></svg>