<svg id="Layer_1" data-name="Layer 1" xmlns="http://www.w3.org/2000/svg" viewBox="0 0 1080 1080"><defs><style>.cls-1{fill:#010101;}</style></defs><path class="cls-1" d="M541.43,553.52H423.77c1.56,13.36,8.16,22.32,18.85,28,12.55,6.67,26,6.68,36.92-2.29,6.68-5.5,12.89-6.83,20.65-6.68,12.34.25,24.69.07,37.12.07-3.87,35.71-48.69,61.27-95,54.92-44.23-6.07-78.08-55.29-69.88-101.62,9.14-51.62,55.63-84,104.52-72.7C520.57,463.26,552.21,511.85,541.43,553.52ZM490.32,522c-3.38-18.31-16.74-29.32-33.76-28.76s-29.71,12.1-31.34,28.76Z"/><path class="cls-1" d="M714.77,539.56a88,88,0,0,1,89-88.35c50.41.23,88.64,39.62,88.42,91.1C892,590,852.38,628.81,803.77,629,753.85,629.23,714.62,589.8,714.77,539.56Zm50.62-.17c-.27,23.62,16.15,41.8,37.91,42,21.05.16,38.1-17.8,38.49-40.52.39-23.1-16.66-41.87-38.12-42S765.64,516.45,765.39,539.39Z"/><path class="cls-1" d="M530.72,456.76c19,0,36.08-.44,53.07.37,3.4.16,7.75,4.47,9.64,8,11.88,22,23.18,44.21,35.56,68.06,12.25-23.41,24.07-45,34.84-67.12,3.62-7.45,7.88-9.79,15.83-9.46,15.16.62,30.36.18,47.72.18L629.05,628.1Z"/><path class="cls-1" d="M286.12,628.09,187.8,456.78c19.48,0,37.13-.32,54.74.35,2.72.11,6.11,4.37,7.77,7.47,11.77,22.09,23.18,44.38,35.7,68.52,9.31-17.7,19.67-33.29,25.94-50.37,7.87-21.41,20.48-30.23,43.07-26.26,8.76,1.55,18,.26,29.41.26C351.26,514.56,319.06,570.67,286.12,628.09Z"/></svg>