<svg id="Layer_1" data-name="Layer 1" xmlns="http://www.w3.org/2000/svg" viewBox="0 0 1080 1080"><defs><style>.cls-1{fill:#ec2227;}.cls-2{fill:#fff;}.cls-3{fill:#252423;}</style></defs><g id="g10"><g id="g12"><path id="path14" class="cls-1" d="M360.31,466.53a38.22,38.22,0,0,0-27-27c-23.81-6.38-119.25-6.38-119.25-6.38s-95.45,0-119.26,6.38a38.22,38.22,0,0,0-27,27C61.46,490.34,61.46,540,61.46,540s0,49.66,6.38,73.47a38.22,38.22,0,0,0,27,27c23.81,6.38,119.26,6.38,119.26,6.38s95.44,0,119.25-6.38a38.22,38.22,0,0,0,27-27c6.38-23.81,6.38-73.47,6.38-73.47s0-49.66-6.38-73.47"/><path id="path16" class="cls-2" d="M183.55,585.78,262.85,540l-79.3-45.79Z"/><path id="path18" class="cls-3" d="M538.34,606.59q2.5-6.54,2.51-21.39V543.51q0-14.41-2.51-21.07t-8.84-6.65q-6.12,0-8.62,6.65t-2.51,21.07V585.2q0,14.85,2.4,21.39t8.73,6.55q6.33,0,8.84-6.55Zm-33.83,21q-9.08-6.1-12.88-19t-3.82-34.26V554.86q0-21.61,4.36-34.71t13.65-19.1q9.27-6,24.33-6,14.85,0,23.8,6.11T567,520.26q4.14,13,4.15,34.6v19.43q0,21.39-4,34.38t-13.1,19q-9.06,6-24.55,6-15.94,0-25-6.11"/><path id="path20" class="cls-3" d="M971.94,518.29q-2.3,2.84-3.06,9.27a181.75,181.75,0,0,0-.76,19.54v9.6h22v-9.6a163,163,0,0,0-.87-19.54q-.87-6.64-3.16-9.38t-7.1-2.73C975.83,515.45,973.46,516.4,971.94,518.29Zm-3.82,56.31v6.77a178.71,178.71,0,0,0,.76,19.32q.76,6.43,3.17,9.39t7.42,2.94q6.76,0,9.27-5.24t2.73-17.46l26,1.53a42.21,42.21,0,0,1,.22,4.8q0,18.55-10.15,27.72t-28.71,9.17q-22.26,0-31.21-14t-9-43.22V553q0-30.12,9.28-44t31.76-13.86q15.49,0,23.79,5.67t11.68,17.69q3.38,12,3.38,33.17V574.6H968.12"/><path id="path22" class="cls-3" d="M431.16,572.1,396.89,448.33h29.9l12,56.1q4.59,20.74,6.77,35.36h.88q1.51-10.47,6.76-35.14l12.44-56.32h29.91L460.84,572.1v59.37H431.16V572.1"/><path id="path24" class="cls-3" d="M668.45,497.67v133.8H644.87l-2.62-16.37h-.65q-9.6,18.55-28.81,18.56-13.32,0-19.65-8.73t-6.33-27.29v-100h30.12v98.22q0,9,2,12.77a6.79,6.79,0,0,0,6.55,3.82,13.3,13.3,0,0,0,7.53-2.4,14.89,14.89,0,0,0,5.35-6.11V497.67h30.12"/><path id="path26" class="cls-3" d="M823,497.67v133.8H799.38l-2.62-16.37h-.65q-9.61,18.55-28.81,18.56-13.32,0-19.65-8.73t-6.33-27.29v-100h30.12v98.22q0,9,2,12.77a6.79,6.79,0,0,0,6.55,3.82,13.3,13.3,0,0,0,7.53-2.4,14.89,14.89,0,0,0,5.35-6.11V497.67H823"/><path id="path28" class="cls-3" d="M750.3,472.57H720.4v158.9H690.93V472.57H661V448.34H750.3v24.23"/><path id="path30" class="cls-3" d="M895,573.64a169.22,169.22,0,0,1-1.2,22.92q-1.2,8.3-4,11.78a9.33,9.33,0,0,1-7.64,3.5,13.9,13.9,0,0,1-6.87-1.75,13.08,13.08,0,0,1-5.13-5.24v-76a19,19,0,0,1,5.23-8.95,11.64,11.64,0,0,1,8.08-3.49,8.16,8.16,0,0,1,7.1,3.6q2.5,3.6,3.49,12.12a227.29,227.29,0,0,1,1,24.22Zm27.61-54.58q-2.73-12.66-8.84-18.34T897,495.05a27.82,27.82,0,0,0-15.49,4.69,32,32,0,0,0-11.14,12.33h-.22v-70.5h-29v189.9H866l3.06-12.66h.65a25.59,25.59,0,0,0,10.48,10.7,31,31,0,0,0,15.5,3.93q15.27,0,22.48-14.08t7.2-44V554.2q0-22.49-2.73-35.14"/></g></g></svg>