<svg id="Layer_1" data-name="Layer 1" xmlns="http://www.w3.org/2000/svg" viewBox="0 0 1080 1080"><defs><style>.cls-1{fill:#ec2326;}.cls-2{fill:#fff;}</style></defs><path class="cls-1" d="M553.05,855.11H526.91c-1.63-.25-3.26-.63-4.89-.72a298.93,298.93,0,0,1-83.7-16.26Q326.56,799,266.73,696.68a302.85,302.85,0,0,1-39.68-120.84c-.84-7.6-1.51-15.21-2.27-22.82V526.88c.24-1.49.51-3,.7-4.48,2.1-16,3.1-32.16,6.46-47.86,15.95-74.59,54.29-135.6,114.13-182.73,48.7-38.36,104.28-60,166.1-65.61a307.58,307.58,0,0,1,95.07,6c68.87,15.34,127,49.42,172.24,103.52,67.28,80.44,89.91,172.92,67.18,275.14-18.23,82-64.32,146.08-134.2,192.63-43.63,29.06-91.9,45.57-144.18,50.17C563.2,854.07,558.12,854.61,553.05,855.11ZM540.11,375.26A164.41,164.41,0,0,0,375.27,539.62c-.29,91.12,73.29,164.89,164.58,165a164.69,164.69,0,1,0,.26-329.37Z"/><path class="cls-2" d="M540.11,375.26a164.69,164.69,0,1,1-.26,329.37c-91.29-.12-164.87-73.89-164.58-165A164.41,164.41,0,0,1,540.11,375.26Zm0,315c83.23-.34,150.5-67.7,150.17-150.38-.34-83.11-67.86-150.53-150.41-150.2-83.06.33-150.4,67.79-150.18,150.44C389.9,623.16,457.43,690.57,540.1,690.24Z"/><path class="cls-1" d="M540.1,690.24c-82.67.33-150.2-67.08-150.42-150.14C389.46,457.45,456.8,390,539.86,389.66c82.55-.33,150.07,67.09,150.41,150.2C690.6,622.54,623.33,689.9,540.1,690.24Zm-57.21-68,139.69-85.93L482.89,457.6Z"/><path class="cls-2" d="M482.89,622.29V457.6l139.69,78.76Z"/></svg>